<svg xmlns="http://www.w3.org/2000/svg" viewBox="0 0 449.65 449.65"><defs><style>.cls-1{isolation:isolate;}.cls-2{fill:#634d45;}.cls-3{opacity:0.29;mix-blend-mode:color-burn;}.cls-4{fill:#c2c2c2;}.cls-21,.cls-5{fill:#fff;}.cls-5{opacity:0.34;}.cls-19,.cls-6,.cls-8,.cls-9{fill:gray;}.cls-10,.cls-11,.cls-12,.cls-13,.cls-14,.cls-15,.cls-16,.cls-17,.cls-18,.cls-6,.cls-9{fill-rule:evenodd;}.cls-6,.cls-7{opacity:0.5;mix-blend-mode:color-dodge;}.cls-19,.cls-48,.cls-9{opacity:0.7;}.cls-19,.cls-22,.cls-27,.cls-33,.cls-48,.cls-9{mix-blend-mode:multiply;}.cls-10{fill:#d49a70;}.cls-11{fill:#edd7c6;}.cls-12{fill:#ededed;}.cls-13{fill:#423123;}.cls-14{fill:#f0ae7f;}.cls-15,.cls-45{fill:#edb38d;}.cls-16,.cls-29{fill:#75ded8;}.cls-17,.cls-38{fill:#db9f82;}.cls-18{fill:#f7f3e1;opacity:0.45;}.cls-20{fill:#7d8aeb;}.cls-22{fill:#eaeaea;}.cls-23{fill:#fefefe;}.cls-24{fill:#c48e6a;}.cls-25{fill:#2b2823;}.cls-26{fill:#3a3730;}.cls-27,.cls-36{fill:#ccc;}.cls-28{fill:#30b0a9;}.cls-30{fill:#ff9b10;}.cls-31{fill:#ffb93a;}.cls-32{fill:#f70;}.cls-34{fill:#e2c8c2;}.cls-35{fill:#333;}.cls-37{fill:#c7c7c7;}.cls-39{fill:#9c6b49;}.cls-40{fill:#16171a;}.cls-41{fill:#6b5e50;}.cls-42{fill:#4f453b;}.cls-43{fill:#1e0f06;}.cls-44{fill:#e8dbce;}.cls-46{fill:#7a86d6;}.cls-47{fill:#29948e;}.cls-49{fill:#ffd78f;}.cls-50{fill:#ffa90f;}.cls-51{fill:#d9d9d9;}.cls-52{fill:#ffa300;}.cls-53{fill:#696969;}.cls-54{fill:#5768de;}.cls-55{fill:#e05728;}</style></defs><title>4</title><g class="cls-1"><g id="Layer_5" data-name="Layer 5"><rect class="cls-2" width="449.65" height="449.65"/><g class="cls-3"><circle class="cls-4" cx="229.48" cy="204.55" r="86.16" transform="translate(-41.2 58.34) rotate(-13.28)"/><path class="cls-4" d="M380.38,247.77h0c-26.39-19.18-26.39-54.17,0-73.34h0a40.78,40.78,0,0,0-40.51-70.26c-29.87,12.65-66.73-9.25-69.8-41.6h0A40.77,40.77,0,0,0,189,61.51c-4,32.23-47.85,56.59-77.39,43.12a40.78,40.78,0,0,0-39.3,71.3c27.34,17.56,29.43,52.62,4.34,73.33A40.78,40.78,0,0,0,122,316.58c28.66-15,61.52,1.1,67.26,33a40.78,40.78,0,0,0,80.39,0c5.75-31.86,38.61-47.93,67.27-33a40.77,40.77,0,0,0,43.44-68.81ZM249,306.84a40.82,40.82,0,0,0-38.95,0c-28.66,15-61.52-1.11-67.26-33a40.79,40.79,0,0,0-18.43-27.61C97,228.71,94.87,193.64,120,172.94a40.74,40.74,0,0,0,14.59-26.59c4-32.23,47.84-56.59,77.38-43.12a40.85,40.85,0,0,0,34.09.46c29.87-12.65,66.74,9.25,69.8,41.6h0a40.73,40.73,0,0,0,16.63,29.14h0c26.39,19.17,26.39,54.16,0,73.34h0a40.75,40.75,0,0,0-16.23,26.11C310.47,305.74,277.61,321.82,249,306.84Z" transform="translate(-0.35 0.14)"/></g><path class="cls-5" d="M225.24,347h-.14a.79.79,0,1,1,0-1.57h.14c1.7,0,3.4,0,5.06-.08a.75.75,0,0,1,.81.76.78.78,0,0,1-.76.8C228.67,346.93,227,347,225.24,347Zm-5.37-.1h0c-1.74-.06-3.5-.14-5.25-.26a.79.79,0,0,1-.73-.84.83.83,0,0,1,.84-.73c1.72.12,3.47.21,5.19.27a.78.78,0,0,1,.76.81A.78.78,0,0,1,219.87,346.86Zm15.68-.24a.78.78,0,0,1-.78-.73.79.79,0,0,1,.73-.84c1.71-.11,3.45-.25,5.18-.42a.78.78,0,1,1,.16,1.55c-1.75.18-3.51.32-5.24.44Zm-26.11-.46h-.08c-1.75-.18-3.5-.38-5.22-.62a.78.78,0,0,1-.67-.88.77.77,0,0,1,.88-.67c1.7.23,3.44.44,5.16.61a.79.79,0,0,1-.07,1.57Zm36.51-.58a.78.78,0,0,1-.1-1.56c1.72-.23,3.45-.49,5.14-.78a.78.78,0,1,1,.26,1.54c-1.71.29-3.46.56-5.19.79Zm-46.88-.84h-.13c-1.71-.29-3.45-.62-5.16-1a.79.79,0,0,1,.31-1.54c1.7.36,3.42.68,5.11,1a.78.78,0,0,1-.13,1.55Zm57.19-.91a.77.77,0,0,1-.76-.62.78.78,0,0,1,.61-.93c1.7-.34,3.4-.72,5.08-1.13a.79.79,0,0,1,.94.58.8.8,0,0,1-.58.95c-1.69.4-3.41.79-5.13,1.14Zm-67.43-1.2-.18,0c-1.71-.42-3.42-.86-5.09-1.33a.78.78,0,0,1,.42-1.51c1.66.46,3.35.91,5,1.31a.79.79,0,0,1,.57.95A.78.78,0,0,1,188.83,342.63Zm77.6-1.24a.79.79,0,0,1-.21-1.54c1.66-.46,3.33-1,5-1.48a.78.78,0,1,1,.47,1.49c-1.67.53-3.37,1-5,1.5Zm-87.67-1.58a1,1,0,0,1-.24,0c-1.66-.53-3.33-1.09-5-1.68a.77.77,0,0,1-.47-1,.78.78,0,0,1,1-.48c1.63.58,3.29,1.14,4.93,1.66a.78.78,0,0,1-.24,1.53Zm97.65-1.57a.78.78,0,0,1-.27-1.52c1.64-.58,3.28-1.19,4.88-1.82a.78.78,0,0,1,1,.44.79.79,0,0,1-.44,1c-1.61.63-3.27,1.25-4.92,1.84A.82.82,0,0,1,276.41,338.24Zm-107.5-1.93a.72.72,0,0,1-.29-.06c-1.63-.65-3.27-1.32-4.85-2a.78.78,0,1,1,.62-1.43c1.57.68,3.19,1.36,4.8,2a.79.79,0,0,1-.28,1.52Zm117.23-1.9a.8.8,0,0,1-.72-.47.78.78,0,0,1,.41-1c1.59-.69,3.18-1.42,4.73-2.16a.79.79,0,0,1,.67,1.42c-1.56.75-3.17,1.48-4.78,2.18A.85.85,0,0,1,286.14,334.41Zm-126.82-2.29A.71.71,0,0,1,159,332c-1.57-.75-3.15-1.54-4.7-2.35a.79.79,0,0,1,.73-1.39c1.53.8,3.09,1.58,4.65,2.33a.79.79,0,0,1,.37,1.05A.77.77,0,0,1,159.32,332.12Zm136.28-2.21a.79.79,0,0,1-.7-.43.78.78,0,0,1,.33-1.05c1.55-.81,3.09-1.64,4.59-2.49a.78.78,0,0,1,.77,1.36c-1.51.86-3.07,1.7-4.63,2.52A.8.8,0,0,1,295.6,329.91Zm-145.53-2.63a.78.78,0,0,1-.39-.1c-1.51-.86-3-1.76-4.51-2.67a.78.78,0,1,1,.82-1.33c1.47.9,3,1.79,4.47,2.64a.79.79,0,0,1,.29,1.07A.78.78,0,0,1,150.07,327.28Zm154.65-2.54a.78.78,0,0,1-.41-1.45c1.48-.91,3-1.85,4.39-2.81a.79.79,0,1,1,.87,1.31c-1.45,1-2.95,1.92-4.44,2.83A.78.78,0,0,1,304.72,324.74Zm-163.53-2.93a.75.75,0,0,1-.43-.13c-1.45-1-2.9-2-4.32-3a.78.78,0,0,1,.91-1.27c1.41,1,2.84,2,4.27,2.95a.78.78,0,0,1-.43,1.43Zm172.26-2.87a.76.76,0,0,1-.63-.33.77.77,0,0,1,.18-1.09c1.42-1,2.82-2.06,4.18-3.11a.78.78,0,1,1,.95,1.24c-1.36,1.06-2.79,2.11-4.22,3.14A.79.79,0,0,1,313.45,318.94Zm-180.74-3.21a.83.83,0,0,1-.48-.17c-1.37-1.06-2.74-2.16-4.09-3.28a.78.78,0,0,1,1-1.2c1.33,1.1,2.69,2.2,4.05,3.25a.78.78,0,0,1-.48,1.4Zm189-3.19a.81.81,0,0,1-.61-.28.79.79,0,0,1,.11-1.11c1.33-1.11,2.66-2.25,3.94-3.4a.8.8,0,0,1,1.11.06.79.79,0,0,1-.06,1.11c-1.3,1.16-2.64,2.32-4,3.44A.81.81,0,0,1,321.75,312.54Zm-197.06-3.49a.74.74,0,0,1-.52-.2c-1.32-1.17-2.61-2.38-3.85-3.57a.79.79,0,1,1,1.09-1.13c1.22,1.18,2.5,2.37,3.8,3.53a.79.79,0,0,1-.52,1.37Zm204.87-3.49a.78.78,0,0,1-.57-.24.79.79,0,0,1,0-1.11c1.25-1.19,2.49-2.43,3.69-3.67a.78.78,0,0,1,1.13,1.08c-1.22,1.26-2.48,2.51-3.73,3.72A.76.76,0,0,1,329.56,305.56Zm-212.39-3.75a.8.8,0,0,1-.57-.24c-1.21-1.25-2.41-2.54-3.58-3.84a.78.78,0,0,1,1.17-1c1.15,1.28,2.34,2.55,3.54,3.8a.78.78,0,0,1,0,1.1A.76.76,0,0,1,117.17,301.81ZM336.84,298a.76.76,0,0,1-.53-.2.78.78,0,0,1-.06-1.1c1.16-1.28,2.3-2.61,3.41-3.93a.78.78,0,1,1,1.2,1c-1.12,1.34-2.28,2.68-3.44,4A.79.79,0,0,1,336.84,298Zm-226.65-4a.78.78,0,0,1-.6-.28c-1.12-1.34-2.23-2.72-3.29-4.1a.78.78,0,1,1,1.23-1c1.06,1.37,2.15,2.73,3.26,4.06a.79.79,0,0,1-.1,1.1A.81.81,0,0,1,110.19,294Zm233.35-4a.77.77,0,0,1-.48-.16.79.79,0,0,1-.14-1.1c1.06-1.37,2.1-2.77,3.11-4.18a.78.78,0,0,1,1.09-.18.8.8,0,0,1,.18,1.1c-1,1.42-2.07,2.84-3.14,4.22A.82.82,0,0,1,343.54,290ZM103.8,285.77a.78.78,0,0,1-.64-.32c-1-1.42-2-2.88-3-4.34a.78.78,0,0,1,.22-1.08.79.79,0,0,1,1.09.22c1,1.44,1.94,2.88,2.94,4.28a.79.79,0,0,1-.18,1.1A.77.77,0,0,1,103.8,285.77Zm245.83-4.28a.8.8,0,0,1-.44-.13.77.77,0,0,1-.22-1.08c.95-1.44,1.89-2.92,2.78-4.39a.78.78,0,0,1,1.08-.26.77.77,0,0,1,.26,1.07c-.9,1.49-1.85,3-2.81,4.44A.77.77,0,0,1,349.63,281.49ZM98,277.05a.8.8,0,0,1-.67-.38c-.91-1.5-1.8-3-2.64-4.55a.77.77,0,0,1,.3-1.06.79.79,0,0,1,1.07.3c.83,1.5,1.71,3,2.61,4.5a.78.78,0,0,1-.27,1.07A.72.72,0,0,1,98,277.05Zm257-4.49a.75.75,0,0,1-.38-.1.77.77,0,0,1-.3-1.06c.83-1.51,1.65-3.06,2.43-4.59a.78.78,0,0,1,1.4.71c-.79,1.55-1.62,3.11-2.47,4.64A.79.79,0,0,1,355.05,272.56ZM93,267.9a.77.77,0,0,1-.7-.43c-.79-1.55-1.56-3.14-2.29-4.74a.78.78,0,1,1,1.42-.65c.73,1.58,1.49,3.15,2.27,4.69a.79.79,0,0,1-.35,1.05A.72.72,0,0,1,93,267.9Zm266.81-4.65a.72.72,0,0,1-.32-.08.78.78,0,0,1-.39-1c.73-1.58,1.43-3.18,2.08-4.75a.78.78,0,1,1,1.44.6c-.65,1.59-1.36,3.21-2.1,4.81A.77.77,0,0,1,359.77,263.25ZM88.59,258.39a.79.79,0,0,1-.73-.49c-.67-1.62-1.31-3.27-1.91-4.9a.78.78,0,1,1,1.47-.54c.59,1.61,1.23,3.24,1.89,4.85a.77.77,0,0,1-.42,1A.8.8,0,0,1,88.59,258.39Zm275.17-4.79a.65.65,0,0,1-.27,0,.77.77,0,0,1-.46-1c.59-1.62,1.16-3.27,1.7-4.9a.78.78,0,1,1,1.48.49c-.53,1.65-1.11,3.32-1.71,5A.78.78,0,0,1,363.76,253.6ZM85,248.56a.77.77,0,0,1-.74-.54c-.55-1.68-1.06-3.38-1.53-5.05a.78.78,0,1,1,1.51-.42c.46,1.65,1,3.33,1.51,5a.79.79,0,0,1-.51,1A.67.67,0,0,1,85,248.56Zm282-4.89-.21,0a.77.77,0,0,1-.54-1c.47-1.68.91-3.37,1.31-5a.78.78,0,0,1,1.52.36c-.4,1.69-.85,3.4-1.33,5.09A.77.77,0,0,1,367,243.67Zm-284.86-5.2a.8.8,0,0,1-.76-.61c-.4-1.69-.78-3.42-1.12-5.13a.78.78,0,0,1,1.53-.31c.34,1.7.71,3.41,1.11,5.08a.78.78,0,0,1-.58.94A.57.57,0,0,1,82.13,238.47Zm287.3-5-.15,0a.78.78,0,0,1-.61-.92c.33-1.68.64-3.4.91-5.12a.79.79,0,1,1,1.55.25c-.28,1.73-.59,3.48-.93,5.18A.78.78,0,0,1,369.43,233.51ZM80.1,228.21a.78.78,0,0,1-.77-.66c-.27-1.73-.51-3.48-.72-5.21a.79.79,0,0,1,1.56-.19c.2,1.72.44,3.45.71,5.15a.8.8,0,0,1-.66.9Zm291-5H371a.78.78,0,0,1-.69-.86c.21-1.73.38-3.48.51-5.18a.78.78,0,1,1,1.56.13c-.13,1.72-.31,3.48-.51,5.23A.79.79,0,0,1,371.07,223.18ZM78.88,217.82a.79.79,0,0,1-.78-.72c-.13-1.74-.23-3.51-.3-5.25a.78.78,0,0,1,1.56-.06c.07,1.72.17,3.47.31,5.19a.78.78,0,0,1-.72.84Zm293-5.06h0a.78.78,0,0,1-.75-.82c.07-1.73.11-3.48.11-5.19A.78.78,0,0,1,372,206h0a.78.78,0,0,1,.78.79c0,1.73,0,3.5-.1,5.26A.79.79,0,0,1,371.89,212.76ZM78.48,207.38a.78.78,0,0,1-.78-.79c0-1.74,0-3.51.1-5.25a.78.78,0,0,1,.78-.76h0a.78.78,0,0,1,.75.82c-.06,1.72-.1,3.47-.1,5.19A.78.78,0,0,1,78.48,207.38ZM371.9,202.3a.79.79,0,0,1-.78-.75c-.06-1.72-.16-3.47-.29-5.19a.78.78,0,0,1,1.56-.12c.13,1.74.23,3.51.3,5.25a.79.79,0,0,1-.75.81Zm-293-5.37h-.06a.78.78,0,0,1-.72-.84c.13-1.73.3-3.49.51-5.23a.78.78,0,1,1,1.55.18c-.2,1.72-.37,3.46-.5,5.17A.78.78,0,0,1,78.89,196.93Zm292.21-5.06a.77.77,0,0,1-.77-.69c-.2-1.71-.44-3.44-.7-5.15a.78.78,0,1,1,1.54-.24c.27,1.73.51,3.48.71,5.21a.79.79,0,0,1-.68.87Zm-291-5.33H80a.79.79,0,0,1-.65-.9c.27-1.71.58-3.46.92-5.18a.79.79,0,0,1,1.54.31c-.34,1.7-.65,3.42-.91,5.11A.78.78,0,0,1,80.11,186.54Zm289.38-5a.79.79,0,0,1-.77-.64c-.33-1.67-.7-3.38-1.1-5.08a.78.78,0,0,1,1.52-.36c.41,1.72.78,3.45,1.12,5.14a.78.78,0,0,1-.62.92ZM82.14,176.29l-.19,0a.78.78,0,0,1-.57-1c.4-1.69.85-3.41,1.32-5.09a.78.78,0,0,1,1-.54.79.79,0,0,1,.55,1c-.47,1.66-.91,3.35-1.31,5A.79.79,0,0,1,82.14,176.29Zm284.93-4.93a.79.79,0,0,1-.76-.57c-.46-1.67-1-3.35-1.5-5a.78.78,0,1,1,1.49-.48c.54,1.66,1.05,3.36,1.52,5.05a.78.78,0,0,1-.54,1ZM85,166.22a.69.69,0,0,1-.25,0,.78.78,0,0,1-.5-1c.54-1.66,1.12-3.33,1.71-5a.79.79,0,0,1,1-.46.77.77,0,0,1,.46,1c-.59,1.61-1.16,3.26-1.69,4.9A.78.78,0,0,1,85,166.22Zm278.88-4.83a.79.79,0,0,1-.74-.52c-.59-1.62-1.23-3.25-1.89-4.85a.78.78,0,0,1,.43-1,.77.77,0,0,1,1,.42c.67,1.62,1.31,3.27,1.91,4.91a.79.79,0,0,1-.47,1A.75.75,0,0,1,363.85,161.39Zm-275.28-5a.77.77,0,0,1-.3-.06.78.78,0,0,1-.43-1c.66-1.6,1.37-3.22,2.1-4.81a.78.78,0,1,1,1.42.65c-.72,1.58-1.42,3.18-2.07,4.76A.79.79,0,0,1,88.57,156.43Zm271.29-4.73a.78.78,0,0,1-.71-.45c-.72-1.57-1.48-3.15-2.26-4.69a.78.78,0,0,1,.34-1.05.79.79,0,0,1,1.06.34c.79,1.57,1.56,3.16,2.28,4.75a.77.77,0,0,1-.39,1A.71.71,0,0,1,359.86,151.7Zm-267-4.76a.72.72,0,0,1-.35-.08.78.78,0,0,1-.34-1.05c.79-1.57,1.62-3.13,2.46-4.64a.78.78,0,1,1,1.37.75c-.84,1.5-1.65,3.05-2.44,4.59A.76.76,0,0,1,92.91,146.94Zm262.23-4.57a.81.81,0,0,1-.69-.41c-.83-1.51-1.71-3-2.6-4.5a.77.77,0,0,1,.26-1.07.78.78,0,0,1,1.08.26c.9,1.49,1.79,3,2.63,4.55a.79.79,0,0,1-.3,1.07A.86.86,0,0,1,355.14,142.37ZM98,137.81a.79.79,0,0,1-.66-1.19c.91-1.5,1.85-3,2.8-4.44a.78.78,0,1,1,1.31.86c-.94,1.43-1.88,2.91-2.78,4.39A.78.78,0,0,1,98,137.81Zm251.74-4.39a.8.8,0,0,1-.65-.35c-.94-1.44-1.93-2.88-2.94-4.29a.78.78,0,0,1,.18-1.09.77.77,0,0,1,1.09.18c1,1.42,2,2.88,3,4.33a.79.79,0,0,1-.23,1.09A.75.75,0,0,1,349.72,133.42Zm-246-4.35a.77.77,0,0,1-.45-.14.78.78,0,0,1-.18-1.09c1-1.44,2.08-2.86,3.13-4.23a.79.79,0,0,1,1.1-.14.78.78,0,0,1,.14,1.1c-1,1.35-2.08,2.76-3.1,4.18A.78.78,0,0,1,103.73,129.07Zm239.92-4.16a.8.8,0,0,1-.62-.31c-1-1.36-2.14-2.72-3.25-4a.78.78,0,0,1,.11-1.1.77.77,0,0,1,1.1.1c1.11,1.34,2.22,2.72,3.28,4.1a.78.78,0,0,1-.14,1.1A.77.77,0,0,1,343.65,124.91Zm-233.52-4.12a.78.78,0,0,1-.6-1.28c1.12-1.35,2.28-2.69,3.44-4a.78.78,0,1,1,1.16,1c-1.14,1.28-2.29,2.61-3.4,3.94A.78.78,0,0,1,110.13,120.79ZM337,116.88a.78.78,0,0,1-.58-.26c-1.16-1.29-2.35-2.57-3.54-3.81a.78.78,0,0,1,0-1.1.79.79,0,0,1,1.11,0c1.2,1.24,2.4,2.54,3.57,3.84a.78.78,0,0,1-.58,1.31ZM117.12,113a.77.77,0,0,1-.55-.22.79.79,0,0,1,0-1.11c1.22-1.25,2.47-2.5,3.73-3.71a.78.78,0,0,1,1.11,0,.77.77,0,0,1,0,1.1c-1.24,1.2-2.48,2.44-3.68,3.68A.77.77,0,0,1,117.12,113Zm212.6-3.64a.75.75,0,0,1-.54-.22c-1.26-1.21-2.54-2.4-3.81-3.53a.79.79,0,0,1,1.05-1.17c1.28,1.15,2.58,2.35,3.84,3.57a.79.79,0,0,1,0,1.11A.77.77,0,0,1,329.72,109.36Zm-205.06-3.62a.77.77,0,0,1-.58-.26.78.78,0,0,1,.06-1.11c1.3-1.16,2.64-2.32,4-3.44a.8.8,0,0,1,1.11.1.78.78,0,0,1-.11,1.1c-1.32,1.11-2.65,2.26-3.94,3.41A.79.79,0,0,1,124.66,105.74ZM322,102.39a.77.77,0,0,1-.5-.18c-1.32-1.09-2.68-2.19-4.05-3.25a.78.78,0,1,1,1-1.24c1.39,1.08,2.76,2.18,4.09,3.29a.78.78,0,0,1-.5,1.38ZM132.71,99a.8.8,0,0,1-.62-.31.79.79,0,0,1,.14-1.1c1.38-1.06,2.8-2.12,4.23-3.14a.77.77,0,0,1,1.09.18.78.78,0,0,1-.18,1.09c-1.41,1-2.82,2.06-4.18,3.11A.78.78,0,0,1,132.71,99Zm181-3a.79.79,0,0,1-.46-.15c-1.4-1-2.83-2-4.26-2.95a.79.79,0,0,1-.22-1.09.78.78,0,0,1,1.09-.21c1.44,1,2.89,2,4.31,3a.77.77,0,0,1,.17,1.09A.76.76,0,0,1,313.7,96ZM141.23,92.92a.78.78,0,0,1-.44-1.43c1.45-1,2.94-1.92,4.44-2.84a.78.78,0,1,1,.82,1.33c-1.48.92-3,1.86-4.39,2.81A.77.77,0,0,1,141.23,92.92ZM305,90.21a.78.78,0,0,1-.41-.12c-1.48-.91-3-1.8-4.46-2.64a.78.78,0,0,1,.77-1.36c1.5.85,3,1.75,4.51,2.67a.78.78,0,0,1-.41,1.45ZM150.16,87.43a.79.79,0,0,1-.69-.4.78.78,0,0,1,.3-1.06c1.52-.87,3.08-1.72,4.63-2.52a.78.78,0,0,1,.72,1.39c-1.53.79-3.07,1.63-4.58,2.49A.75.75,0,0,1,150.16,87.43ZM296,85.05a.77.77,0,0,1-.36-.09c-1.55-.81-3.11-1.59-4.65-2.33a.79.79,0,0,1-.37-1,.77.77,0,0,1,1-.36c1.56.74,3.14,1.53,4.7,2.35a.78.78,0,0,1,.33,1.06A.77.77,0,0,1,296,85.05Zm-136.5-2.47a.77.77,0,0,1-.71-.44.79.79,0,0,1,.37-1c1.58-.75,3.18-1.49,4.78-2.18a.78.78,0,1,1,.62,1.43c-1.57.69-3.17,1.42-4.73,2.16A.67.67,0,0,1,159.46,82.58Zm127.07-2.06a.85.85,0,0,1-.31-.06c-1.58-.7-3.2-1.37-4.8-2A.78.78,0,0,1,282,77c1.62.64,3.26,1.32,4.86,2a.79.79,0,0,1,.4,1A.78.78,0,0,1,286.53,80.52ZM169,78.41a.79.79,0,0,1-.29-1.52c1.63-.64,3.29-1.26,4.93-1.84a.78.78,0,0,1,1,.48.79.79,0,0,1-.48,1c-1.62.57-3.26,1.19-4.87,1.82A.75.75,0,0,1,169,78.41Zm107.77-1.74a.75.75,0,0,1-.26,0c-1.64-.58-3.3-1.14-4.93-1.66a.79.79,0,0,1,.47-1.5c1.66.53,3.33,1.1,5,1.69a.78.78,0,0,1,.48,1A.79.79,0,0,1,276.81,76.67ZM178.9,74.91a.8.8,0,0,1-.75-.55.78.78,0,0,1,.51-1c1.65-.52,3.35-1,5-1.5a.78.78,0,0,1,.42,1.51c-1.67.47-3.35,1-5,1.48A.59.59,0,0,1,178.9,74.91Zm88-1.42-.22,0c-1.66-.47-3.35-.92-5-1.32a.79.79,0,0,1,.37-1.53c1.7.42,3.41.87,5.09,1.34a.78.78,0,0,1-.21,1.53ZM189,72.1a.78.78,0,0,1-.18-1.54c1.69-.41,3.42-.8,5.13-1.15a.78.78,0,1,1,.31,1.53c-1.69.35-3.4.73-5.07,1.14ZM256.69,71l-.16,0c-1.69-.35-3.41-.68-5.11-1a.78.78,0,0,1,.26-1.54c1.73.29,3.46.62,5.17,1a.77.77,0,0,1,.6.92A.78.78,0,0,1,256.69,71Zm-57.48-1a.78.78,0,0,1-.13-1.55c1.73-.29,3.47-.56,5.2-.79a.78.78,0,1,1,.21,1.55c-1.71.23-3.44.49-5.14.78Zm47.17-.75h-.11c-1.71-.24-3.45-.45-5.16-.62a.78.78,0,0,1-.7-.86.77.77,0,0,1,.86-.7c1.73.18,3.49.39,5.22.62a.8.8,0,0,1,.67.89A.79.79,0,0,1,246.38,69.24Zm-36.8-.65A.78.78,0,0,1,209.5,67c1.73-.18,3.49-.32,5.24-.44a.77.77,0,0,1,.83.73.78.78,0,0,1-.73.83c-1.73.12-3.47.26-5.18.44Zm26.4-.42h-.06c-1.73-.12-3.48-.21-5.19-.27a.78.78,0,0,1-.76-.81.77.77,0,0,1,.81-.75c1.73.06,3.5.15,5.25.27a.78.78,0,0,1-.05,1.56Zm-16-.28a.78.78,0,0,1,0-1.56c1.73-.06,3.5-.09,5.25-.09h.29a.79.79,0,0,1,0,1.57h-.29c-1.73,0-3.48,0-5.2.08Z" transform="translate(-0.35 0.14)"/><path class="cls-6" d="M301.43,336.51a3.67,3.67,0,0,1,6.19-2.68c.24-.05.49-.11.74-.15a3.67,3.67,0,0,1,6.87,0c.41.08.82.17,1.22.27a3.68,3.68,0,0,1,6.26,3c.28.2.55.41.82.63a3.67,3.67,0,0,1,4.45,5.27c.27.48.52,1,.75,1.49a3.67,3.67,0,0,1,1.62,6.59c0,.35,0,.7,0,1.06s0,1-.06,1.47a3.68,3.68,0,0,1-1.66,6.35,20.57,20.57,0,0,1-1.13,2.07,3.68,3.68,0,0,1-4.19,4.67,18.78,18.78,0,0,1-2.52,1.69,3.71,3.71,0,0,1-2.42,2.47,3.65,3.65,0,0,1-3.16-.46,18.68,18.68,0,0,1-3.45.32c-.39,0-.77,0-1.15,0a3.66,3.66,0,0,1-5.52-1.2,18.51,18.51,0,0,1-3.62-1.87,3.68,3.68,0,0,1-4.17-3.81,18.59,18.59,0,0,1-1.91-2.87,3.69,3.69,0,0,1-1.93-5.52,19.71,19.71,0,0,1-.28-3.28c0-.2,0-.4,0-.6a3.66,3.66,0,0,1,1.22-6.07,18.47,18.47,0,0,1,1.43-2.93,3.67,3.67,0,0,1,4.3-4.91q.61-.48,1.26-.93Zm10.36-3.87a1.81,1.81,0,1,0,1.8,1.81,1.81,1.81,0,0,0-1.8-1.81Zm8.29,1.8a1.8,1.8,0,1,0-1.58,3.24,1.8,1.8,0,1,0,1.58-3.24Zm6.54,5.08a1.81,1.81,0,1,0-.29,2.54,1.82,1.82,0,0,0,.29-2.54Zm3.85,7.93a1.8,1.8,0,1,0-1.4,2.13,1.8,1.8,0,0,0,1.4-2.13Zm-.34,9.42a1.8,1.8,0,1,0-2.26,1.19,1.81,1.81,0,0,0,2.26-1.19Zm-4.44,7.67a1.8,1.8,0,1,0-2.55,0,1.8,1.8,0,0,0,2.55,0ZM318,369.4a1.8,1.8,0,1,0-2.26-1.17A1.8,1.8,0,0,0,318,369.4Zm-10.18.5a1.81,1.81,0,1,0-1.32-2.18,1.81,1.81,0,0,0,1.32,2.18Zm-8.41-4.38a1.8,1.8,0,1,0-.1-2.55,1.79,1.79,0,0,0,.1,2.55Zm-5.07-7.47a1.8,1.8,0,1,0,1.1-2.3,1.81,1.81,0,0,0-1.1,2.3Zm-.89-9.76a1.8,1.8,0,1,0,2.1-1.44,1.79,1.79,0,0,0-2.1,1.44Zm4-8.79a1.8,1.8,0,1,0,2.54-.21,1.8,1.8,0,0,0-2.54.21Zm6.66-5.13a1.8,1.8,0,1,0,2.38.92,1.81,1.81,0,0,0-2.38-.92Zm8,6.91a1.8,1.8,0,1,0,1.8,1.8,1.8,1.8,0,0,0-1.8-1.8Zm.32,9a1.8,1.8,0,1,0,1.8,1.8,1.8,1.8,0,0,0-1.8-1.8Zm.48,9.91a1.8,1.8,0,1,0,1.8,1.8,1.81,1.81,0,0,0-1.8-1.8Zm-6.08-6.08a1.81,1.81,0,1,0,1.8,1.81,1.81,1.81,0,0,0-1.8-1.81Zm-.32-8.39a1.81,1.81,0,1,0,1.8,1.8,1.81,1.81,0,0,0-1.8-1.8Zm-5.91,6.08a1.8,1.8,0,1,0,1.8,1.8,1.8,1.8,0,0,0-1.8-1.8Zm17.9-6.32a1.81,1.81,0,1,0,1.8,1.8,1.81,1.81,0,0,0-1.8-1.8Zm0,8.71a1.81,1.81,0,1,0,1.8,1.81,1.8,1.8,0,0,0-1.8-1.81Zm5.44-3.91a1.8,1.8,0,1,0,1.8,1.8,1.8,1.8,0,0,0-1.8-1.8Zm-17.19-11a1.8,1.8,0,1,0,1.8,1.8,1.8,1.8,0,0,0-1.8-1.8Zm-5.67,4.47a1.81,1.81,0,1,0,1.8,1.81,1.81,1.81,0,0,0-1.8-1.81Zm16.62-4.95a1.8,1.8,0,1,0,1.8,1.8,1.81,1.81,0,0,0-1.8-1.8Zm6,4.47a1.81,1.81,0,1,0,1.81,1.81,1.81,1.81,0,0,0-1.81-1.81Zm-18.06,16.79a1.8,1.8,0,1,0,1.8,1.8,1.81,1.81,0,0,0-1.8-1.8Zm13.35-.32a1.8,1.8,0,1,0,1.8,1.8A1.81,1.81,0,0,0,319,359.74Z" transform="translate(-0.35 0.14)"/><path class="cls-6" d="M354.91,56.36a74.29,74.29,0,0,1-3.37,21.54c-.12,2.54-10.54,4.59-23.38,4.59-12.51,0-22.73-1.95-23.36-4.4l-.08-.09c-.84-3-3.85-14.13-3.36-21.66.29,2.43,6.49,3.93,14.91,4.81v-.08l0-1.43c-7.47-.71-12.68-1.88-12.75-3.5-.06-1.43,10.85-4,24.64-4s24.65,2.16,24.79,4.12c.1,1.37-5.43,2.61-13,3.31L340,61v0c8.41-.88,14.6-2.28,14.93-4.69Zm-38.3,7,1.25,8.51a126.42,126.42,0,0,0,20.51,0l1.25-8.51c-3.45-.35-7.36-.54-11.51-.54S320.06,63,316.61,63.39Z" transform="translate(-0.35 0.14)"/><path class="cls-6" d="M118.81,49.66c-1.14,1.5-2.12,3.27-3,4.52a18,18,0,0,0-2.22,3.43c-2.24,5.71-1.77,7-5.89,11.8l-3.41,5,9,8.53a47.07,47.07,0,0,1,4.63-8.43c.91-1.24,2.72-1.63,3.69-3s-.7-.8,0-1.8c1.84-2.52,6.58-5.29,9.43-8A4.6,4.6,0,0,0,132.56,58c.52.86,1.11,1.76,1.77,2.76l-.42.3.51,1.38c.38.32.54.44.57,1,.24,5.84,1.37,13,5.1,18.67h.67c-3.86-5.71-5-13-5.25-18.9,0-.55-.36-.69-.74-1l-.25-1,.54-.26-1.59-2.5c-.61-1-1.23-1.93-1.77-2.91a12.79,12.79,0,0,1-1.13-2.6,5.78,5.78,0,0,1-.17-.69,10.32,10.32,0,0,1-.23-2.6l-.24.11a3.25,3.25,0,0,0-.4-.15c-2.63,1.32-2.9,1.73-5.73,4.65a17.09,17.09,0,0,0-2.47,2.79c-.41.65-1.06,2.14-1.48,2.09-.66-.63.4-2.26.74-2.85A22,22,0,0,1,123.44,53a25.48,25.48,0,0,1,5.83-4.63,2.4,2.4,0,0,0-.54-2.23c.16-.21.31-.4.48-.6,1.1-1.27,1.5-2.92-.83-1.26a12.07,12.07,0,0,0-1.4,1.15,2.65,2.65,0,0,0-.56,0c-2.14,1.27-4.93,5.12-7.16,8.06-.7,1.09-1.4,2.06-2.17,3.14-.56-.35.57-2.26,1.35-3.53a26.38,26.38,0,0,1,5.65-6.78h0l.3-.31c1.29-1.38.55-1.4-.62-.73a9.75,9.75,0,0,0-1.6,1.18,9.58,9.58,0,0,0-3.34,3.13Zm34.54,24-.11.73c-3.07-5-8.83-9.29-13.44-13l-2.44-.84c-2.82-5-5.78-8.11-6.91-13.37l1.21,1.88.14,0c1-.28,1.47-.29,1.67-.15-.21-.49-.42-1-.64-1.45l-.42-.93a15.11,15.11,0,0,1,4,6.78H136l4.13,6.48.07,1.51c4.88,3.55,9.73,7.21,13.11,12.36ZM138.14,61.32v0c5.8,4.74,10.1,8.63,13.19,13h-1.27c-2.5-3.5-5.77-5.92-11.75-10.88a41.88,41.88,0,0,0,.51,4.73A28.14,28.14,0,0,0,143.47,80l-.75,2.06c-3.51-4.66-5.73-11-6.08-18.85v-.1a2.21,2.21,0,0,1,.25-1.53l-.38-1.24,1.63,1ZM134.46,53l-.38-.07-1.62-2.54c.61-.41,1.07-.9,1.11-1.21.2.49.4,1,.58,1.48s.27.72.4,1.09l-.17,1,.08.27Zm-2.93,3.18-.68.25h0l-3.22,1.5c-1.07.5-1.65,1.59-2.52,2.29-2.3,1.85-2.1,1.14-2.72,3.53-.28-2.38-.23-2.69,1.74-4.09,1-.68,1.84-2.15,2.94-2.61l3.42-1.62c.15-.08.36-.17.57-.3C131.2,55.45,131.36,55.79,131.53,56.14Z" transform="translate(-0.35 0.14)"/><g class="cls-7"><path class="cls-8" d="M401.59,198.77H382.44a1.92,1.92,0,0,0-1.93,1.92v27.47a1.93,1.93,0,0,0,1.93,1.93h19.15a1.93,1.93,0,0,0,1.92-1.93V200.69A1.92,1.92,0,0,0,401.59,198.77ZM392,222a7.6,7.6,0,1,1,7.6-7.59A7.59,7.59,0,0,1,392,222Z" transform="translate(-0.35 0.14)"/><rect class="cls-8" x="387.87" y="188.66" width="7.58" height="8.84"/><path class="cls-8" d="M394.82,214.17l-1.61-2.67.21-.24v-.95l-1.09-1.45-.26,2-.09.46v-.4l-1.4-2-.28,2,.28.47-.48.32-.83,1.52v.5l-1.93,3.14.61.84,2-.29,1.51-.77.12,4a5.52,5.52,0,0,0,.71.05,6.17,6.17,0,0,0,4.34-1.78Zm-6.43,2.8-.37.1,0,.23-.11-.19h-.21l-.17-.27.31-.49h.37l.23.19Zm2.66-3.11a.28.28,0,1,1,0-.56.28.28,0,1,1,0,.56Z" transform="translate(-0.35 0.14)"/><path class="cls-8" d="M413.64,190.07a.31.31,0,0,0,.31.31h6.74V191H414a.32.32,0,0,0,0,.63h6.74v.64H414a.32.32,0,0,0,0,.63h6.74v.64H414a.32.32,0,0,0,0,.63h6.74v.65H414a.31.31,0,0,0-.31.31.32.32,0,0,0,.31.32h6.74v.64H414a.31.31,0,0,0-.31.31.32.32,0,0,0,.31.32h6.74v.64H414a.32.32,0,0,0,0,.63h6.74v.64H414a.32.32,0,0,0,0,.63h6.74v.64H414a.32.32,0,0,0,0,.63h6.74v.64H414a.32.32,0,0,0,0,.63h6.74v.64H414a.32.32,0,0,0,0,.63h6.74v.64H414a.32.32,0,0,0-.31.32.31.31,0,0,0,.31.31h6.74V205H414a.32.32,0,0,0-.31.32.31.31,0,0,0,.31.31h6.74v.64H414a.32.32,0,0,0-.31.32.31.31,0,0,0,.31.31h6.74v.68l-5,.51c-2,.31-1.62,7.68-.65,12.12.44,1.95,1.69,6.64-.1,8.46l-.2.18c-3.59,3.22-7.47,0-7.25-3.52.19-3.08,1.15-6.18,1.44-9.27.51-5-.58-9.56-1.67-14.1-.73-3.22-1.3-12.79,3.5-13.12h9.92v.92H414A.31.31,0,0,0,413.64,190.07Z" transform="translate(-0.35 0.14)"/></g><g class="cls-7"><path class="cls-8" d="M135.21,349.84c.93-2.44,1.45-4,.68-5.61-.49.09-1,.2-1.49.32l-.84.2a9.58,9.58,0,0,1-1.6.17,4.25,4.25,0,0,1-.82-.07,2,2,0,0,1-1.45-.83,1.69,1.69,0,0,1-.08-1.46c0-.07,0-.13.06-.19l-.16-.17a2.1,2.1,0,0,1-.79-1.51v-.09a1.71,1.71,0,0,1,1.89-1.53,5.61,5.61,0,0,1,.87.08l.24,0H132l.9,0a4.47,4.47,0,0,0,1-.08,12.23,12.23,0,0,0-2.56-.6v-.75a1.63,1.63,0,1,0-3.25,0v.75a13,13,0,0,0-3.34.89l-.38-.64a1.63,1.63,0,1,0-2.82,1.63l.38.64a12.64,12.64,0,0,0-2.45,2.45l-.65-.38a1.63,1.63,0,1,0-1.63,2.82l.65.37a12.93,12.93,0,0,0-.89,3.35h-.76a1.63,1.63,0,0,0,0,3.26h.76a13,13,0,0,0,.89,3.34l-.65.37a1.63,1.63,0,1,0,1.63,2.82l.65-.38a12.64,12.64,0,0,0,2.45,2.45l-.38.64a1.63,1.63,0,1,0,2.82,1.63l.38-.64a12.65,12.65,0,0,0,3.34.89v.75a1.63,1.63,0,1,0,3.25,0v-.75a12.86,12.86,0,0,0,3.34-.89l.37.64a1.62,1.62,0,0,0,1.46.82,9.9,9.9,0,0,1-2.48-4.48C132.94,355.8,134.2,352.49,135.21,349.84Z" transform="translate(-0.35 0.14)"/><path class="cls-8" d="M163.75,347.05a9.26,9.26,0,0,1-1.89,4.39h0a12.64,12.64,0,0,1-9.52,4.43c-3.2-.12-6.85-1.6-7.31-5.14a6,6,0,0,1,0-.72c0-2.63,1.6-4.75,2.44-7.16a6.27,6.27,0,0,0-2.67-7.61c-3.48-1.93-9-.33-9.32,4.35v0a2.71,2.71,0,0,1-.35.24,6.36,6.36,0,0,1-3.47.42c-.47,0-1.3-.25-1.63.08a.44.44,0,0,0-.15.32c0,.57,1,.93,1,1.62s-.66,1.22.54,1.44a5.75,5.75,0,0,0,2-.09,29.21,29.21,0,0,1,3-.63h.13c1.24-.06,2.07.6,3.23.92a2.38,2.38,0,0,0,3.1-1.35,2.27,2.27,0,0,0-1.64-3,2.62,2.62,0,0,1,2.6,3.53c-.46,1.64-2.38,1.95-3.56,1.55s-2.14-1-3.38-1.06c2.32,4.51-3.61,8.58-1.74,16.26,2.77,11.39,27.07,11.45,33.27.06a.75.75,0,0,0,.07-.12,3.36,3.36,0,0,0,.19-.38l0-.06C170.81,354.81,169.08,348.42,163.75,347.05Zm-23.47-9.69a.75.75,0,0,1,.75.74.76.76,0,0,1-.75.75.75.75,0,0,1-.74-.75A.74.74,0,0,1,140.28,337.36Zm1.12,4.05a.54.54,0,0,1,.09.22c.23.88-2.32.71-2.88.71-1.65,0-3.83.17-4.94,0h0a1.13,1.13,0,0,1-.64-.22c-.47-.54,2.92.14,4.63-.43C138.09,341.53,140.8,340.59,141.4,341.41Zm3,24.79a4.07,4.07,0,0,1-.94-2.06c-.3-2.87,2.18-4.46,4.76-4.85s4.95.39,7.43.89a34.19,34.19,0,0,0,7,1.18,6.52,6.52,0,0,0,3.3-.69C161.85,366.77,151.42,368.6,144.36,366.2Z" transform="translate(-0.35 0.14)"/><path class="cls-8" d="M146.12,349.55a3.59,3.59,0,0,0,0,.47c0,.19,0,.38,0,.58.37,2.91,3.59,4.07,6.24,4.16h.18a12,12,0,0,0,6.85-2.44c-2.78.35-6.09-.88-8.44-1.75C149.58,350.09,147.7,349.26,146.12,349.55Z" transform="translate(-0.35 0.14)"/></g><g class="cls-7"><path class="cls-8" d="M27.73,229.8l1.51.34,3.26-1,2.83.85-.07-4.89,2.11-3.86,3.73-3.05,2.24-7.86,2.19-5.2,3.5-3.42.61-2.59v0l.68-1.46,0,0,0-.08,1.57-3,.09-2,.81-1.18.61-1.53.8-.51L54,186.09l.43-1,.8.72-.06-.75.55-.49,2.21,3.74-.24.93h1.82l2,1.6,3.7.17.87,0v1.69l-1.14,2.13.07.48L63.09,197l-3.38.32,0,.22.88,3.26h-.77l-.21.73-.68-.23-.49,1.26,1.89,2.24.28,3.5h-3.9a2.42,2.42,0,0,0-2.41,2.41v1.63H48.83a2.54,2.54,0,0,0-2.54,2.54v18a2.43,2.43,0,0,0,.42,1.39h-22v-2.27Z" transform="translate(-0.35 0.14)"/><path class="cls-8" d="M47.38,214.83v18a1.44,1.44,0,0,0,1.45,1.44H73a1.44,1.44,0,0,0,1.44-1.44v-18A1.45,1.45,0,0,0,73,213.38H66.49v-2.72a1.32,1.32,0,0,0-1.32-1.32H56.68a1.32,1.32,0,0,0-1.32,1.32v2.72H48.83A1.45,1.45,0,0,0,47.38,214.83ZM65,213.38H56.81v-2.59H65Zm-9.82,8.27a.81.81,0,0,1,.81-.82h1.91v-1.9a.81.81,0,0,1,.81-.81h4.36a.81.81,0,0,1,.81.81v1.9h1.9a.82.82,0,0,1,.82.82V226a.82.82,0,0,1-.82.81h-1.9v1.91a.82.82,0,0,1-.81.82H58.75a.82.82,0,0,1-.81-.82v-1.91H56a.81.81,0,0,1-.81-.81Z" transform="translate(-0.35 0.14)"/></g><path class="cls-9" d="M260,37.17a.8.8,0,0,0-.18-.24l-.07,0a1.3,1.3,0,0,0-.23-.15l-.08,0a2.8,2.8,0,0,0-.38-.13l-.11,0-.38-.08-.07,0h0c-.33-.06-.7-.11-1.09-.16-2.81-.31-5.25-.35-7.47-1.92-.73-1.72-.88-1.62-2.75-1.82a11.28,11.28,0,0,0-2-.51,18,18,0,0,0-6.19.9c-.13-.22-.32-.55-.52-.87l.43.47c.35.37-.22-.54-.64-1.23l.09-.08.94,1c.36.39-.25-.59-.67-1.28.33-.29.66-.56,1-.81h.13a1.1,1.1,0,0,0,.26,0,11.79,11.79,0,0,0,2.05,0,1.34,1.34,0,0,0-.2-1.14c.1-.14.22-.29.35-.48.35-.12.8-.19,1-.26.54-.19.52-.34.85-1,.15-.3.58-.6.51-1,0-.09,2.48-2,2.67-2.23a8.92,8.92,0,0,0,1-2.59,5.55,5.55,0,0,1,.47-1.93,16.52,16.52,0,0,1,1.95-2.48l1.85-2h-6.21l-.84,1.45h-.94l-.1.17L245,17l-.54.93A23.8,23.8,0,0,1,240,21.41c-.55.32-1.37.41-1.66.94s-.08,1.2-.27,2.29a10.23,10.23,0,0,1-.54,1.67A6.44,6.44,0,0,0,237,28.1a2.42,2.42,0,0,0,.84,1.11l.13.13a10.93,10.93,0,0,1-2.22,1.72A14.06,14.06,0,0,0,232.05,34c-2.2,2.31-3.48,4.67-2.85,5.27a.81.81,0,0,0,.71.1l0,0,1.26,1.38c.4.43-.43-.87-.82-1.54h0l1.17,1.27,0,0a22,22,0,0,0-1.63,3.72l-.06,0c-2,6.5-2,7.75-7.42,15.16A107.39,107.39,0,0,1,214,69.82c-6.38,6.92-6.83,11.59-7.62,12.79S201.72,85,201,91c-.24,1.94.41,4.62.83,8.2a11.11,11.11,0,0,1,0,1.91c-.1,1.77-.43,2.71.09,3.16s1.41.29,3.39.91l1.09.32h0l.05,0,.91.25.14,0,.77.18.13,0c.26.06.51.1.75.14l.16,0a5.72,5.72,0,0,0,.66.07c.78,0,1.68.32,1.86-.43.41.24,2.12.09,1.81-.86.64.57,1,.08,1.09-.14.26-.49,0-1.5-1.34-2.33l.44.11.16,0,.29.08.15,0,.25.07.13,0,.21.06.12,0,.2.06.09,0,.24.09.11,0,.14,0,.12,0,.11,0,.13,0,.11,0,.13,0,.12,0,.14,0,.13,0,.16,0h.32l.16,0h.19c.33,0,.71,0,1.19,0,0,.34.05.61.08.84h0a.09.09,0,0,1,0,0s0,.08,0,.12a1.43,1.43,0,0,0,0,.22s0,.06,0,.09a1,1,0,0,0,.09.21l0,0a.74.74,0,0,0,.16.2l.07,0a.7.7,0,0,0,.19.13l.1.06.27.13.13.05.5.19a4,4,0,0,0,3.2,0c.72.22,2.9.42,3.17-.4,2,.2,1.92-1.42,1.17-2.17a1.93,1.93,0,0,0-.29-.24l0,0,0,0a12.77,12.77,0,0,1,1.8-.28c1.71-.07,5.13,1,6.56,0a1.14,1.14,0,0,0,.43-.53h0a.88.88,0,0,0,0,.15.49.49,0,0,0,0,.11.57.57,0,0,0,.08.13l.06.09.11.12.09.08.15.09.1.06.21.08.12,0,.39.07c-.21,2,.3,2.27,2.29,1.64a4.75,4.75,0,0,0,3.21-.27c1,0,1.66-.19,2-.83s.28-1.84-1.37-1.9l-.37,0-.1,0-.23,0-.11,0a.88.88,0,0,1-.2-.09l-.09-.06a1,1,0,0,1-.19-.16,2.74,2.74,0,0,1-.62-1.23,15.32,15.32,0,0,1-.28-6,4.44,4.44,0,0,0-.13-1.75,22.31,22.31,0,0,1-.35-6.33,30.6,30.6,0,0,1,.49-3.14c.41-2.09.06-3.59.11-6.3.07-.19.16-.42.26-.66s.07-.17.1-.27l.28-.69h0c.13-.31.26-.64.39-1l.06-.17c.1-.24.19-.49.29-.74l0-.1c.1-.27.2-.53.29-.8a2,2,0,0,0,.08-.22c.09-.24.17-.48.25-.71l0-.11c.09-.26.16-.5.24-.74l.06-.21c.06-.23.12-.45.17-.66,0,0,0,0,0-.06,0-.22.09-.42.12-.61s0-.1,0-.15a3.16,3.16,0,0,0,0-.51c0-4.13-3.31-4.85-3.27-10.11a7.34,7.34,0,0,1,.05-.81c0-.09,0-.18,0-.28l.09-.54.09-.35c0-.17.08-.33.13-.51s.08-.26.13-.39.11-.35.17-.52l.17-.44c.07-.18.14-.36.22-.55l.2-.48.27-.61c.08-.17.16-.35.25-.53l.31-.67.29-.6,0-.07c2.12,2.46,4.05,2.05,4.77,1.06s.16-2,0-4.14c2.13-.45,4.42-.67,7-2.25,1.39-.86,1.38-1.37,1.3-1.89h0v0c0-.11,0-.22-.05-.33-.16-.18-1.95.32-3,.47l-.12,0h-.15a14.56,14.56,0,0,0,4-1.78c.34-.26.74-.57,1-.78h0l.17-.17A3.89,3.89,0,0,0,260,37.17Zm-27.71,1.64.22.24a.21.21,0,0,1,0,.06Zm5.14-5.31-.1-.18.14.16Zm-.19.09,0-.05,0,0Zm-3.36,3.72-.09-.14.11.11Zm-.29.35,0,0,0,0Zm-.34.38c0-.09-.1-.18-.16-.27l.2.22Zm-.26.35-.06-.09.07.07Zm4.67-5c0-.07-.09-.14-.13-.22l.18.2Zm.22-.08-.16-.27.22.24Zm-1.3.06.34.37-.11.06c-.08-.15-.17-.29-.24-.41Zm-4.3,4.71.51.56a.83.83,0,0,0-.11.15l-.42-.7Zm-.65.46.71.77-.16.23-.58-1Zm.27,1.12c.14.15.12.08,0-.09l.14.15-.07.11-.1-.18Zm6.21-6.44-.37-.62.43.46c.17.19.11.06,0-.2l.23.26Zm-7,6,.76.83-.18.31-.23-.38h0C231.72,40.24,231.44,39.74,231.1,39.18Zm7.36-6.1-.56-.94.61.66c.17.18.12.05,0-.21l.34.37Zm-6.89,7.31,0,0v0Zm-1.12,59.35c-3.1.33-2.07.69-4.73,0a12,12,0,0,1,1.47-4.3l.3-.35.75-.81.41-.42.66-.64.11-.1.61-.55.05,0c.21-.19.41-.37.62-.54l.58-.51.12-.11.58-.53,0,0,.63-.62.12-.12.69-.73,0,0c.23-.26.48-.54.73-.85l.06-.07h0l.16-.2a1.16,1.16,0,0,1,0,.18h0l.35,1.56c0,.13.06.27.09.4.1.44.2.88.29,1.32s.12.6.17.9.11.55.15.82c.09.57.16,1.13.2,1.67.11,1.44.15,2.55,1.19,3.58-.06.55-.15,1.09-.23,1.59C236,98.5,232.44,99.53,230.45,99.74Z" transform="translate(-0.35 0.14)"/><path class="cls-10" d="M224.05,98.5c3.48,1,2,.57,5.37.21,2.36-.25,6.86-1.65,6.35,1.62a1.77,1.77,0,0,1-.65,1.39c-1.43.93-4.84-.12-6.56,0a16.24,16.24,0,0,0-2,.32c-.55.1-.89.18-1.34.27l-1.13-1Z" transform="translate(-0.35 0.14)"/><path class="cls-11" d="M228.85,43.19c-2,6.51-2,7.75-7.42,15.16A107.57,107.57,0,0,1,213,68.8c-6.37,6.91-6.82,11.58-7.61,12.78s-4.68,2.34-5.43,8.34c-.25,2,.4,4.63.82,8.2a10.18,10.18,0,0,1,0,1.91c-.1,1.77-.42,2.71.09,3.16s1.42.3,3.4.91a21.07,21.07,0,0,0,4.66,1.07c.77,0,1.67.32,1.86-.42.41.23,2.11.08,1.8-.87.64.57,1,.08,1.09-.14.27-.49,0-1.49-1.34-2.32,3,.65,2.48,1.12,5.54,1,.17,1.62,0,1.76,1.7,2.38a4,4,0,0,0,3.19,0c.72.23,2.9.42,3.17-.4,2,.2,1.93-1.42,1.18-2.17-1-1-1.76.25-2.27-1.3-.66-2,.33-4.82,1.31-6.56,2.88-3.35,4.34-3.67,7.26-7.25A52,52,0,0,1,234.71,94c.1,1.43.15,2.54,1.18,3.58-.22,2.33-1.2,4.4,1.08,4.67-.21,2,.29,2.27,2.28,1.64a4.81,4.81,0,0,0,3.21-.26c1,0,1.66-.19,2-.83s.27-1.85-1.38-1.91c-.93,0-1.52-.26-1.9-1.68a15.08,15.08,0,0,1-.29-6,4.63,4.63,0,0,0-.12-1.76,22.69,22.69,0,0,1-.36-6.33c.1-.93.25-2,.49-3.14.41-2.08.06-3.58.11-6.3.75-1.92,2.76-6.61,2.75-8.39,0-4.12-3.31-4.85-3.27-10.1,0-2.26,1-4.45,3-8.5Z" transform="translate(-0.35 0.14)"/><path class="cls-10" d="M212.63,101.48c2.66.61,2.29,1.06,5.22,1v-.14c1.28-5.09.14-3.4.24-6.35,0-1.59.82-1.68,1.13-3.8a61.2,61.2,0,0,0,.27-6.37c-5,4.75-5.71,4.38-10.86.54,2.23,5,2.4,4.13-.33,9.21-1,1.86-4.51,2.57-4,4.34,3.29,1.6,5.44-.31,8.09,1.47l.21.14Zm13.75-7.36c.29-.33.57-.64.84-.91a41.33,41.33,0,0,1-.19-9.45c.46-2.77,1.46-3.12,3.27-6.79a24.58,24.58,0,0,0-3.16,4.58c-.93,1.82-1,3.4-1,8.27a35.14,35.14,0,0,1,.25,4.3Zm7.08-6.83A51.62,51.62,0,0,1,234.71,94c.1,1.43.15,2.54,1.18,3.58-.22,2.33-1.2,4.4,1.08,4.67-.21,2,.29,2.27,2.28,1.64a4.81,4.81,0,0,0,3.21-.26c1,0,1.66-.19,2-.83s.27-1.85-1.38-1.91c-.93,0-1.52-.26-1.9-1.68a15.08,15.08,0,0,1-.29-6,4.63,4.63,0,0,0-.12-1.76,22.69,22.69,0,0,1-.36-6.33c.1-.93.25-2,.49-3.14.41-2.08.06-3.58.11-6.3.16-.42.39-1,.65-1.61-1.72,1.45-1.92,2.56-2.94,4.92-.4.93-.81,1.86-1.28,2.83A28.51,28.51,0,0,1,233.46,87.29Z" transform="translate(-0.35 0.14)"/><path class="cls-12" d="M205.35,104.43a16,16,0,0,0,3.58.74c.77,0,1.67.32,1.86-.42.41.23,2.11.08,1.8-.87.64.57,1,.08,1.09-.14.27-.49,0-1.49-1.34-2.32l.25,0a5.6,5.6,0,0,0-.49-.36,3.57,3.57,0,0,0-1.67-.7,2.89,2.89,0,0,0-2,.54,10.46,10.46,0,0,0-1.66,2.58l-1.43.9ZM218,103.28c.09.86.26,1,1.62,1.54a4,4,0,0,0,3.19,0c.72.23,2.9.42,3.17-.4,2,.2,1.93-1.42,1.18-2.17s-1.6,0-2.1-.9l-.18,0a10.18,10.18,0,0,1-1.56.59c-.55.06-1.12-.34-1.66-.22s-1,.67-1.57.92a9.33,9.33,0,0,1-1.39.43l-.7.18Zm9.66-10.49c2-2,3.35-2.71,5.64-5.48l0-.23c2-1,4.45-5.75,6.17-9.45,1.14-2.47,1.73-3.35,2.28-3.84.88-2.21,2-5.22,2-6.57,0-4.12-3.31-4.85-3.27-10.1,0-2,.83-4,2.45-7.39a7.79,7.79,0,0,1-1.1.3c-1,.16-.63-.49-1.4-.54s-2.36-.55-3.12.27-.35,3-.43,3.55-2.09,3.33-2.15,3.82c-.66,6,.44,7.37-.59,10.48a34.51,34.51,0,0,1-4,7.26c-.31,1.24-.61,2.46-.88,3.66-1.21,5.27-1.4,5.13-2.07,14.19l.41.07Zm7.87,7.77a1.43,1.43,0,0,0,1.48,1.66c-.21,2,.29,2.27,2.28,1.64a4.81,4.81,0,0,0,3.21-.26c1,0,1.66-.19,2-.83s.27-1.85-1.38-1.91a1.72,1.72,0,0,1-1.34-.49,6.45,6.45,0,0,1-.76,0c-.58,0-1.14-.18-1.72-.22a17,17,0,0,0-2.47,0,2.12,2.12,0,0,0-1.24.38Z" transform="translate(-0.35 0.14)"/><path class="cls-10" d="M247.64,45.53c0,2.89.8,4.27.05,5.3s-3.45,1.54-6-2.84l3.72-2.91Z" transform="translate(-0.35 0.14)"/><path class="cls-11" d="M256.34,35.26c-2.82-.32-5.26-.36-7.48-1.93-.73-1.72-.87-1.62-2.75-1.81a10.16,10.16,0,0,0-2-.52,17.76,17.76,0,0,0-8.73,2c-1.51,1-1.66,1.55-2.58,3.32a19.59,19.59,0,0,0-4.24,8.13c-1.3,5.16,1.33-.28,4.94,10.87-.07-1.09,3.4-6.54,3.4-6.56S241,50,243.1,49A5.73,5.73,0,0,0,245,47.51c2.91-1.35,6-.82,9.65-3.08,1.6-1,1.33-1.52,1.26-2.14,0,0-3.41.47-3.27.39a14.71,14.71,0,0,0,4-1.77c.44-.35,1-.76,1.15-.94a3.93,3.93,0,0,0,1.08-3.83C258.68,35.57,257.62,35.4,256.34,35.26Z" transform="translate(-0.35 0.14)"/><path class="cls-10" d="M256,42.54c0-.12,0-.23,0-.36a15.41,15.41,0,0,0-3,.48,14.17,14.17,0,0,0-2.18.69c-1.52.36-4.08.32-5.22.52-.52.09-2.84,1.13-1,1.42s4.11-1.12,5.74-1.42,2.9-.28,3.74-.5A8.56,8.56,0,0,0,256,42.54Z" transform="translate(-0.35 0.14)"/><path class="cls-13" d="M257.66,40.13l.18-.16a3.93,3.93,0,0,0,1.08-3.83c-.17-.39-.73-.6-1.49-.73-1.44.25-1.76.87-1.83,1.39a1.18,1.18,0,0,0,.8,1.27c.49.1,1.1,0,1-.74.27-.21.45-.31.54-.26.4.21.2.74-.07,1s-1,.34-1,.61A2.54,2.54,0,0,0,257.66,40.13Z" transform="translate(-0.35 0.14)"/><path class="cls-12" d="M245.79,34.2c0-.36-.64-1.32-1.08-1.18-.73.23-1.14.94-1.55,1.53a5.53,5.53,0,0,0,2.2.16C245.66,34.61,245.81,34.49,245.79,34.2Z" transform="translate(-0.35 0.14)"/><path class="cls-13" d="M245.79,34.2c0-.36-.64-1.32-1.08-1.18a1.83,1.83,0,0,0-.66.39,1.36,1.36,0,0,0,1.31,1.3C245.66,34.61,245.81,34.49,245.79,34.2Z" transform="translate(-0.35 0.14)"/><path class="cls-12" d="M244.46,34c.07,0,.13-.15.13-.33s-.06-.32-.13-.32-.13.14-.13.32S244.39,34,244.46,34Z" transform="translate(-0.35 0.14)"/><path class="cls-10" d="M235.14,35.81l.83.6a4.38,4.38,0,0,1,.85,1.4,9,9,0,0,1-.61,1.25c-.09.17-.47.83-.57,1s.31.77.29,1a13.35,13.35,0,0,1-.79,1.31,9.81,9.81,0,0,0-.89,3.81c-.38,2.89-1,6.66-2.87,7.27C231.57,50,232,42,233.52,39Z" transform="translate(-0.35 0.14)"/><path class="cls-14" d="M229.94,41.1a2.24,2.24,0,0,1,.53-.49,10.12,10.12,0,0,0-.61,1.38c-.18.64-.3,1.41-.44,2.22-.23,1.27-.48,2.62-.73,3.72-.82,3.63-.5,5.2.49,5.72,2.49,1.31,4-2.64,4.24-4.51.14-1.2,0-2.19,0-3.64s0-5.27.47-6.79c.34-1.14.92-1.63,1.23-3a5.66,5.66,0,0,1-2.65,1.48C231.25,37.71,230.35,39.93,229.94,41.1Z" transform="translate(-0.35 0.14)"/><path class="cls-15" d="M245.11,14.06l-1.64,2.87A23.83,23.83,0,0,1,239,20.38c-.55.33-1.37.42-1.66.94s-.08,1.21-.27,2.3a9.17,9.17,0,0,1-.54,1.66,6.54,6.54,0,0,0-.54,1.79,2.4,2.4,0,0,0,.85,1.12A3.06,3.06,0,0,0,238,29a12.78,12.78,0,0,0,3,.17c.08-.31.1-1-.31-1.26.05-.39,1.12-.52,1.43-.63.54-.19.53-.33.86-1,.15-.31.58-.61.51-1,0-.1,2.48-2.05,2.66-2.24a8.64,8.64,0,0,0,1-2.59,5.92,5.92,0,0,1,.48-1.93,16.23,16.23,0,0,1,1.94-2.48l1.85-2Z" transform="translate(-0.35 0.14)"/><polygon class="cls-16" points="242.98 15.66 242.89 15.83 247.34 17.65 249.19 15.66 242.98 15.66"/><path class="cls-17" d="M240.73,22.94a9.89,9.89,0,0,1-.55,1.76c0,.05-.68.52-1.23,1.08a3.51,3.51,0,0,0-1.21,1.87.93.93,0,0,0,.56,1.13c1.58.87,2.68-1.75,3.61-2.43l1.51-1.11,0,.17c-.33.27-.67.53-1,.81a7.14,7.14,0,0,0-.87.77c-.45.56-.69.94-.92,1.23A2,2,0,0,1,238,29a1,1,0,0,1-.6-1.34,3.62,3.62,0,0,1,.71-1.23c.19-.28.21-.42.1-1a2.7,2.7,0,0,0,1-.22C240.12,24.72,240.33,23.83,240.73,22.94Z" transform="translate(-0.35 0.14)"/><path class="cls-18" d="M239.06,26.32a10,10,0,0,1,1.41.92,5.21,5.21,0,0,1-1,1.27.87.87,0,0,1-1.46-.79A3.57,3.57,0,0,1,239.06,26.32Z" transform="translate(-0.35 0.14)"/><path class="cls-13" d="M235.76,31.94a17.15,17.15,0,0,1-2.45,3.22c-2.21,2.31-4.5,3.69-5.13,3.09s.64-3,2.84-5.27A14.43,14.43,0,0,1,234.75,30a18.11,18.11,0,0,0,3-2.39,1.1,1.1,0,0,0,1,1.33A12.72,12.72,0,0,0,235.76,31.94Z" transform="translate(-0.35 0.14)"/><path class="cls-13" d="M237,30.33c.31.58,1.36,2.21.92,1.73l-1.26-1.38A3.8,3.8,0,0,0,237,30.33Z" transform="translate(-0.35 0.14)"/><path class="cls-13" d="M236.59,30.61c.3.57,1.36,2.2.92,1.72L236.25,31A3.8,3.8,0,0,0,236.59,30.61Z" transform="translate(-0.35 0.14)"/><path class="cls-13" d="M236.25,30.88c.31.58,1.37,2.21.93,1.73l-1.26-1.38A2.77,2.77,0,0,0,236.25,30.88Z" transform="translate(-0.35 0.14)"/><path class="cls-13" d="M235.86,31.16c.31.57,1.37,2.2.93,1.72l-1.27-1.38A2.73,2.73,0,0,0,235.86,31.16Z" transform="translate(-0.35 0.14)"/><path class="cls-13" d="M235.72,31.81c.31.57,1.37,2.2.93,1.72l-1.27-1.37A2.83,2.83,0,0,0,235.72,31.81Z" transform="translate(-0.35 0.14)"/><path class="cls-13" d="M235.33,32.08c.31.58,1.36,2.21.92,1.73L235,32.43A3.8,3.8,0,0,0,235.33,32.08Z" transform="translate(-0.35 0.14)"/><path class="cls-13" d="M235.28,32.56c.31.58,1.37,2.21.92,1.73l-1.26-1.38A3.8,3.8,0,0,0,235.28,32.56Z" transform="translate(-0.35 0.14)"/><path class="cls-13" d="M234.89,32.84c.3.57,1.36,2.2.92,1.72l-1.26-1.37A3.8,3.8,0,0,0,234.89,32.84Z" transform="translate(-0.35 0.14)"/><path class="cls-13" d="M234.69,33.28c.31.58,1.37,2.21.92,1.73l-1.26-1.38A3.8,3.8,0,0,0,234.69,33.28Z" transform="translate(-0.35 0.14)"/><path class="cls-13" d="M234.3,33.56c.3.57,1.36,2.2.92,1.72L234,33.91A3.8,3.8,0,0,0,234.3,33.56Z" transform="translate(-0.35 0.14)"/><path class="cls-13" d="M234.21,34.05c.31.58,1.37,2.21.93,1.72l-1.27-1.37A2.83,2.83,0,0,0,234.21,34.05Z" transform="translate(-0.35 0.14)"/><path class="cls-13" d="M233.82,34.33c.31.57,1.37,2.2.93,1.72l-1.27-1.38S233.82,34.35,233.82,34.33Z" transform="translate(-0.35 0.14)"/><path class="cls-13" d="M233.48,34.65c.31.58,1.36,2.21.92,1.73L233.14,35A3.8,3.8,0,0,0,233.48,34.65Z" transform="translate(-0.35 0.14)"/><path class="cls-13" d="M233.08,34.93c.31.57,1.37,2.2.93,1.72l-1.26-1.38A2.67,2.67,0,0,0,233.08,34.93Z" transform="translate(-0.35 0.14)"/><path class="cls-13" d="M232.78,35.31c.31.57,1.37,2.2.93,1.72l-1.27-1.37A2.83,2.83,0,0,0,232.78,35.31Z" transform="translate(-0.35 0.14)"/><path class="cls-13" d="M232.39,35.58c.31.58,1.37,2.21.93,1.73l-1.27-1.38A2.83,2.83,0,0,0,232.39,35.58Z" transform="translate(-0.35 0.14)"/><path class="cls-13" d="M232.08,35.89c.3.58,1.36,2.21.92,1.73l-1.26-1.38A3.8,3.8,0,0,0,232.08,35.89Z" transform="translate(-0.35 0.14)"/><path class="cls-13" d="M231.68,36.17c.31.57,1.37,2.2.93,1.72l-1.27-1.37A2.83,2.83,0,0,0,231.68,36.17Z" transform="translate(-0.35 0.14)"/><path class="cls-13" d="M231.45,36.57c.3.58,1.36,2.21.92,1.73l-1.26-1.38A3.8,3.8,0,0,0,231.45,36.57Z" transform="translate(-0.35 0.14)"/><path class="cls-13" d="M231.05,36.85c.31.57,1.37,2.2.93,1.72l-1.27-1.38A2.73,2.73,0,0,0,231.05,36.85Z" transform="translate(-0.35 0.14)"/><path class="cls-13" d="M230.81,37.08c.31.58,1.37,2.21.92,1.73l-1.26-1.38A3.8,3.8,0,0,0,230.81,37.08Z" transform="translate(-0.35 0.14)"/><path class="cls-13" d="M230.42,37.36c.3.57,1.36,2.2.92,1.72l-1.26-1.37A3.8,3.8,0,0,0,230.42,37.36Z" transform="translate(-0.35 0.14)"/><path class="cls-13" d="M230.18,37.56c.31.58,1.37,2.21.93,1.73l-1.26-1.38A2.77,2.77,0,0,0,230.18,37.56Z" transform="translate(-0.35 0.14)"/><path class="cls-13" d="M229.79,37.84c.31.57,1.37,2.2.93,1.72l-1.27-1.38A2.73,2.73,0,0,0,229.79,37.84Z" transform="translate(-0.35 0.14)"/><path class="cls-13" d="M229.59,37.75c.31.57,1.37,2.21.93,1.73l-1.27-1.38A2.83,2.83,0,0,0,229.59,37.75Z" transform="translate(-0.35 0.14)"/><path class="cls-13" d="M229.2,38c.31.57,1.37,2.2.93,1.72l-1.27-1.38S229.2,38.05,229.2,38Z" transform="translate(-0.35 0.14)"/><path class="cls-13" d="M237.28,29.5c.31.57,1.37,2.21.93,1.72l-1.27-1.37A2.83,2.83,0,0,0,237.28,29.5Z" transform="translate(-0.35 0.14)"/><path class="cls-13" d="M236.89,29.77c.31.58,1.37,2.21.93,1.73l-1.27-1.38A3.8,3.8,0,0,0,236.89,29.77Z" transform="translate(-0.35 0.14)"/><path class="cls-13" d="M236.56,30.05c.31.57,1.36,2.2.92,1.72l-1.26-1.37A3.8,3.8,0,0,0,236.56,30.05Z" transform="translate(-0.35 0.14)"/><path class="cls-13" d="M236.17,30.32c.3.58,1.36,2.21.92,1.73l-1.26-1.38A3.8,3.8,0,0,0,236.17,30.32Z" transform="translate(-0.35 0.14)"/><path class="cls-13" d="M236,31c.31.58,1.37,2.21.93,1.73l-1.27-1.38A2.83,2.83,0,0,0,236,31Z" transform="translate(-0.35 0.14)"/><path class="cls-13" d="M235.63,31.25c.31.57,1.37,2.2.93,1.72l-1.27-1.37A2.83,2.83,0,0,0,235.63,31.25Z" transform="translate(-0.35 0.14)"/><path class="cls-13" d="M235.58,31.73c.31.57,1.37,2.2.93,1.72l-1.27-1.37A2.83,2.83,0,0,0,235.58,31.73Z" transform="translate(-0.35 0.14)"/><path class="cls-13" d="M235.19,32c.31.58,1.37,2.21.93,1.73l-1.27-1.38A3.8,3.8,0,0,0,235.19,32Z" transform="translate(-0.35 0.14)"/><path class="cls-13" d="M235,32.45c.31.57,1.37,2.21.93,1.72l-1.27-1.37A2.83,2.83,0,0,0,235,32.45Z" transform="translate(-0.35 0.14)"/><path class="cls-13" d="M234.6,32.72c.31.58,1.37,2.21.92,1.73l-1.26-1.38A3.8,3.8,0,0,0,234.6,32.72Z" transform="translate(-0.35 0.14)"/><path class="cls-13" d="M234.52,33.22c.31.57,1.36,2.2.92,1.72l-1.26-1.38A3.63,3.63,0,0,0,234.52,33.22Z" transform="translate(-0.35 0.14)"/><path class="cls-13" d="M234.12,33.49c.31.58,1.37,2.21.93,1.73l-1.27-1.38A2.83,2.83,0,0,0,234.12,33.49Z" transform="translate(-0.35 0.14)"/><path class="cls-13" d="M233.78,33.82c.31.57,1.37,2.2.93,1.72l-1.27-1.37A2.83,2.83,0,0,0,233.78,33.82Z" transform="translate(-0.35 0.14)"/><path class="cls-13" d="M233.39,34.09c.31.58,1.37,2.21.92,1.73l-1.26-1.38A3.8,3.8,0,0,0,233.39,34.09Z" transform="translate(-0.35 0.14)"/><path class="cls-13" d="M233.09,34.47c.31.58,1.36,2.21.92,1.73l-1.26-1.38A3.8,3.8,0,0,0,233.09,34.47Z" transform="translate(-0.35 0.14)"/><path class="cls-13" d="M232.69,34.75c.31.57,1.37,2.2.93,1.72l-1.26-1.37A2.77,2.77,0,0,0,232.69,34.75Z" transform="translate(-0.35 0.14)"/><path class="cls-13" d="M232.38,35.06c.31.58,1.37,2.21.93,1.73L232,35.41A3.8,3.8,0,0,0,232.38,35.06Z" transform="translate(-0.35 0.14)"/><path class="cls-13" d="M232,35.34c.31.57,1.36,2.2.92,1.72l-1.26-1.38A3.63,3.63,0,0,0,232,35.34Z" transform="translate(-0.35 0.14)"/><path class="cls-13" d="M231.75,35.74c.31.57,1.37,2.2.93,1.72l-1.27-1.38A2.73,2.73,0,0,0,231.75,35.74Z" transform="translate(-0.35 0.14)"/><path class="cls-13" d="M231.36,36c.31.58,1.36,2.21.92,1.73L231,36.36A3.8,3.8,0,0,0,231.36,36Z" transform="translate(-0.35 0.14)"/><path class="cls-13" d="M231.11,36.25c.31.58,1.37,2.21.93,1.72l-1.27-1.37A2.83,2.83,0,0,0,231.11,36.25Z" transform="translate(-0.35 0.14)"/><path class="cls-13" d="M230.72,36.52c.31.58,1.37,2.21.92,1.73l-1.26-1.38A3.8,3.8,0,0,0,230.72,36.52Z" transform="translate(-0.35 0.14)"/><path class="cls-13" d="M230.49,36.73c.31.57,1.37,2.21.92,1.72l-1.26-1.37A3.8,3.8,0,0,0,230.49,36.73Z" transform="translate(-0.35 0.14)"/><path class="cls-13" d="M230.1,37c.3.58,1.36,2.21.92,1.73l-1.26-1.38A3.8,3.8,0,0,0,230.1,37Z" transform="translate(-0.35 0.14)"/><path class="cls-13" d="M229.9,36.92c.3.57,1.36,2.2.92,1.72l-1.26-1.38A3.63,3.63,0,0,0,229.9,36.92Z" transform="translate(-0.35 0.14)"/><path class="cls-13" d="M229.5,37.19c.31.58,1.37,2.21.93,1.73l-1.27-1.38A2.83,2.83,0,0,0,229.5,37.19Z" transform="translate(-0.35 0.14)"/><path class="cls-19" d="M375.93,255.7h-9.6v-17h-12.6v17h-9.6a3.2,3.2,0,0,0-3.2,3.2v45.62a3.2,3.2,0,0,0,3.2,3.2h31.8a3.2,3.2,0,0,0,3.2-3.2V258.9A3.2,3.2,0,0,0,375.93,255.7Z" transform="translate(-0.35 0.14)"/><rect class="cls-20" x="339.56" y="254.82" width="38.2" height="52.02" rx="3.2"/><rect class="cls-21" x="352.36" y="237.78" width="12.59" height="17.04"/><rect class="cls-22" x="360.88" y="237.78" width="4.07" height="17.04"/><path class="cls-23" d="M371.62,280.68A12.62,12.62,0,1,1,359,268.07,12.62,12.62,0,0,1,371.62,280.68Z" transform="translate(-0.35 0.14)"/><path class="cls-24" d="M366.76,288a10.28,10.28,0,0,1-7.21,3,9.39,9.39,0,0,1-1.19-.08l-.19-6.58-2.51,1.27-3.39.49-1-1.41,3.22-5.2v-.84l1.36-2.51.8-.53-.45-.79.45-3.35,2.34,3.4v.66l.15-.75.44-3.31,1.81,2.42,0,1.59-.35.4,2.68,4.43Z" transform="translate(-0.35 0.14)"/><path class="cls-25" d="M357.86,279.28a.47.47,0,1,1-.47-.47A.47.47,0,0,1,357.86,279.28Z" transform="translate(-0.35 0.14)"/><polygon class="cls-26" points="351.14 284.83 351.41 285.28 351.75 285.28 351.95 285.59 352.03 285.21 352.65 285.04 352.65 284.33 352.26 284.02 351.65 284.02 351.14 284.83"/><polygon class="cls-27" points="356.28 271.56 355.84 274.91 356.28 275.71 358.2 275.42 358.62 275.62 358.62 274.96 356.28 271.56"/><polygon class="cls-27" points="355.33 285.36 357.21 283.46 356.11 285.17 355.33 285.36"/><path class="cls-19" d="M133.84,130.77a16.17,16.17,0,0,1-3.27,7.6h0c-5.22,3.53-13.48.45-18.84-1.53-2.86-1-7-2.86-10-1.18a3.73,3.73,0,0,0-.37.23c0-4.54,2.77-8.21,4.22-12.38,1.58-4.54.34-10.41-4.61-13.16-5.34-3-13.44-1.1-15.58,5a2.87,2.87,0,0,0-1.24,1.13l-.64,1.13a21.63,21.63,0,0,0-5.78-1.54v-1.31a2.82,2.82,0,0,0-5.63,0v1.31a21.46,21.46,0,0,0-5.77,1.54l-.65-1.13a2.81,2.81,0,1,0-4.87,2.82l.65,1.13a22.25,22.25,0,0,0-4.23,4.22L56.13,124a2.81,2.81,0,0,0-2.81,4.87l.67.39a3,3,0,0,0-.13,1.83,22.59,22.59,0,0,0-1,4.21H51.6a2.81,2.81,0,0,0-.05,5.62,2.09,2.09,0,0,0,1.58,1.44,22,22,0,0,0,1.31,4.34l-1.12.65a2.81,2.81,0,1,0,2.82,4.87l.19-.11a1.61,1.61,0,0,0,1-.17l.12-.1a21.93,21.93,0,0,0,3.37,3.44.47.47,0,0,0-.06.09,1.76,1.76,0,0,0,0,1.64,2.81,2.81,0,0,0,4.91,2.73l.65-1.12a22,22,0,0,0,4.06,1.24,2.38,2.38,0,0,0,1.71,1.44v.16a2.82,2.82,0,0,0,5.63,0v-1.31c.6-.07,1.19-.18,1.77-.3l.45-.1.87-.22c.31-.08.61-.18.91-.27l.43-.14a3.4,3.4,0,0,0,.34-.12,3.43,3.43,0,0,0,1.09-.25l.56,1a2.81,2.81,0,0,0,2.38,1.39,2.7,2.7,0,0,0,1.47-.36h0a2.69,2.69,0,0,0,.52-.41l0,0h0c12.15,11.91,44.08,9.54,53.23-7.26a2.12,2.12,0,0,0,.11-.21c.12-.22.23-.43.33-.65a.37.37,0,0,0,.05-.11C146,144.18,143.05,133.15,133.84,130.77Z" transform="translate(-0.35 0.14)"/><path class="cls-28" d="M97.27,134.27H96a21.63,21.63,0,0,0-1.54-5.78l1.13-.64A2.82,2.82,0,1,0,92.73,123l-1.13.65a22.19,22.19,0,0,0-4.22-4.22l.65-1.13a2.81,2.81,0,0,0-4.87-2.81l-.65,1.12A22.3,22.3,0,0,0,76.73,115v-1.3a2.81,2.81,0,1,0-5.62,0V115a22.3,22.3,0,0,0-5.78,1.54l-.65-1.12a2.81,2.81,0,0,0-4.87,2.81l.65,1.13a22.54,22.54,0,0,0-4.23,4.22L55.11,123a2.82,2.82,0,1,0-2.82,4.88l1.13.65a21.46,21.46,0,0,0-1.54,5.77H50.57a2.82,2.82,0,0,0,0,5.63h1.31a21.46,21.46,0,0,0,1.54,5.77l-1.13.65a2.82,2.82,0,1,0,2.82,4.88l1.13-.66a22.25,22.25,0,0,0,4.22,4.23l-.65,1.13a2.81,2.81,0,1,0,4.87,2.81l.65-1.12a22.3,22.3,0,0,0,5.78,1.54v1.3a2.81,2.81,0,0,0,5.62,0v-1.3a22.3,22.3,0,0,0,5.78-1.54l.65,1.12A2.81,2.81,0,0,0,88,155.9l-.65-1.13a22.25,22.25,0,0,0,4.22-4.23l1.13.66a2.82,2.82,0,0,0,2.82-4.88l-1.12-.65A21.82,21.82,0,0,0,96,139.9h1.31a2.82,2.82,0,0,0,0-5.63Z" transform="translate(-0.35 0.14)"/><path class="cls-29" d="M75,138.54a2.82,2.82,0,1,1-2.82-2.81A2.81,2.81,0,0,1,75,138.54Z" transform="translate(-0.35 0.14)"/><path class="cls-29" d="M82.42,138.54a2.6,2.6,0,1,1-2.6-2.81A2.71,2.71,0,0,1,82.42,138.54Z" transform="translate(-0.35 0.14)"/><path class="cls-29" d="M88.54,138.54c0,1.55-1,2.81-2.2,2.81s-2.2-1.26-2.2-2.81,1-2.81,2.2-2.81S88.54,137,88.54,138.54Z" transform="translate(-0.35 0.14)"/><path class="cls-29" d="M94,138.54c0,1.55-.9,2.81-2,2.81s-2-1.26-2-2.81.9-2.82,2-2.82S94,137,94,138.54Z" transform="translate(-0.35 0.14)"/><path class="cls-29" d="M69.33,138.54a2.82,2.82,0,1,0,2.81-2.81A2.81,2.81,0,0,0,69.33,138.54Z" transform="translate(-0.35 0.14)"/><path class="cls-29" d="M61.86,138.54a2.61,2.61,0,1,0,2.6-2.81A2.72,2.72,0,0,0,61.86,138.54Z" transform="translate(-0.35 0.14)"/><path class="cls-29" d="M55.74,138.54A2.57,2.57,0,0,0,58,141.35c1.21,0,2.2-1.26,2.2-2.81s-1-2.81-2.2-2.81A2.57,2.57,0,0,0,55.74,138.54Z" transform="translate(-0.35 0.14)"/><path class="cls-29" d="M50.26,138.54c0,1.55.9,2.81,2,2.81s2-1.26,2-2.81-.89-2.81-2-2.81S50.26,137,50.26,138.54Z" transform="translate(-0.35 0.14)"/><path class="cls-29" d="M74.58,137.13a2.81,2.81,0,1,1-3.84-1A2.83,2.83,0,0,1,74.58,137.13Z" transform="translate(-0.35 0.14)"/><path class="cls-29" d="M86.34,130.34c.78,1.35.56,2.93-.5,3.54s-2.53,0-3.31-1.34S82,129.61,83,129A2.55,2.55,0,0,1,86.34,130.34Z" transform="translate(-0.35 0.14)"/><path class="cls-29" d="M91,127.63c.78,1.34.63,2.88-.32,3.43s-2.37-.08-3.15-1.43-.63-2.88.33-3.44S90.27,126.28,91,127.63Z" transform="translate(-0.35 0.14)"/><path class="cls-29" d="M69.71,140a2.81,2.81,0,1,0,1-3.85A2.82,2.82,0,0,0,69.71,140Z" transform="translate(-0.35 0.14)"/><path class="cls-29" d="M57.94,146.74c.78,1.34,2.26,1.94,3.31,1.34s1.28-2.2.5-3.54-2.26-1.95-3.31-1.34A2.57,2.57,0,0,0,57.94,146.74Z" transform="translate(-0.35 0.14)"/><path class="cls-29" d="M53.2,149.48c.77,1.34,2.18,2,3.14,1.43s1.11-2.09.33-3.44-2.19-2-3.14-1.43S52.42,148.13,53.2,149.48Z" transform="translate(-0.35 0.14)"/><path class="cls-29" d="M73.55,136.1a2.82,2.82,0,1,1-3.84,1A2.83,2.83,0,0,1,73.55,136.1Z" transform="translate(-0.35 0.14)"/><path class="cls-29" d="M77.28,129.64a2.61,2.61,0,1,1-3.73.84A2.7,2.7,0,0,1,77.28,129.64Z" transform="translate(-0.35 0.14)"/><path class="cls-29" d="M80.34,124.34a2.57,2.57,0,0,1,1.34,3.31c-.61,1.06-2.2,1.28-3.54.5a2.27,2.27,0,1,1,2.2-3.81Z" transform="translate(-0.35 0.14)"/><path class="cls-29" d="M83.06,119.64c1.34.77,2,2.18,1.43,3.14s-2.09,1.11-3.44.33-2-2.18-1.43-3.14S81.71,118.86,83.06,119.64Z" transform="translate(-0.35 0.14)"/><path class="cls-29" d="M70.74,141a2.82,2.82,0,1,0-1-3.85A2.82,2.82,0,0,0,70.74,141Z" transform="translate(-0.35 0.14)"/><path class="cls-29" d="M67,147.44a2.61,2.61,0,1,0-1.13-3.65A2.72,2.72,0,0,0,67,147.44Z" transform="translate(-0.35 0.14)"/><path class="cls-29" d="M63.94,152.74a2.57,2.57,0,0,0,3.54-.5c.61-1.05,0-2.54-1.34-3.31s-2.92-.56-3.53.5S62.6,152,63.94,152.74Z" transform="translate(-0.35 0.14)"/><path class="cls-29" d="M61.2,157.49c1.35.77,2.89.63,3.44-.33s-.09-2.37-1.43-3.15-2.89-.63-3.44.33S59.86,156.71,61.2,157.49Z" transform="translate(-0.35 0.14)"/><path class="cls-29" d="M72.14,135.73a2.81,2.81,0,1,1-2.81,2.81A2.81,2.81,0,0,1,72.14,135.73Z" transform="translate(-0.35 0.14)"/><path class="cls-29" d="M72.14,122.14c1.56,0,2.82,1,2.82,2.2s-1.26,2.21-2.82,2.21a2.57,2.57,0,0,1-2.81-2.21C69.33,123.13,70.59,122.14,72.14,122.14Z" transform="translate(-0.35 0.14)"/><path class="cls-29" d="M72.14,116.71c1.56,0,2.82.9,2.82,2s-1.26,2-2.82,2-2.81-.9-2.81-2S70.59,116.71,72.14,116.71Z" transform="translate(-0.35 0.14)"/><path class="cls-29" d="M72.14,141.35a2.81,2.81,0,1,0-2.81-2.81A2.81,2.81,0,0,0,72.14,141.35Z" transform="translate(-0.35 0.14)"/><path class="cls-29" d="M72.14,154.94c1.56,0,2.82-1,2.82-2.2s-1.26-2.21-2.82-2.21a2.57,2.57,0,0,0-2.81,2.21C69.33,154,70.59,154.94,72.14,154.94Z" transform="translate(-0.35 0.14)"/><path class="cls-29" d="M72.14,160.42c1.56,0,2.82-.9,2.82-2s-1.26-2-2.82-2-2.81.89-2.81,2S70.59,160.42,72.14,160.42Z" transform="translate(-0.35 0.14)"/><path class="cls-29" d="M70.74,136.1a2.82,2.82,0,1,1-1,3.85A2.82,2.82,0,0,1,70.74,136.1Z" transform="translate(-0.35 0.14)"/><path class="cls-29" d="M67,129.64a2.61,2.61,0,1,1-1.13,3.65A2.72,2.72,0,0,1,67,129.64Z" transform="translate(-0.35 0.14)"/><path class="cls-29" d="M63.94,124.34c1.35-.78,2.93-.56,3.54.5s0,2.54-1.33,3.31-2.93.56-3.54-.5S62.6,125.12,63.94,124.34Z" transform="translate(-0.35 0.14)"/><path class="cls-29" d="M61.23,119.64c1.34-.78,2.88-.63,3.44.33s-.09,2.36-1.44,3.14-2.88.63-3.44-.33S59.88,120.41,61.23,119.64Z" transform="translate(-0.35 0.14)"/><path class="cls-29" d="M73.55,141a2.82,2.82,0,1,0-3.84-1A2.81,2.81,0,0,0,73.55,141Z" transform="translate(-0.35 0.14)"/><path class="cls-29" d="M77.28,147.44a2.61,2.61,0,1,0-3.73-.84A2.7,2.7,0,0,0,77.28,147.44Z" transform="translate(-0.35 0.14)"/><path class="cls-29" d="M80.34,152.74c1.35-.78,2-2.26,1.34-3.31s-2.19-1.28-3.54-.5-2,2.26-1.34,3.31A2.57,2.57,0,0,0,80.34,152.74Z" transform="translate(-0.35 0.14)"/><path class="cls-29" d="M83.08,157.49c1.35-.78,2-2.19,1.43-3.15s-2.09-1.1-3.43-.33-2,2.19-1.44,3.15S81.74,158.26,83.08,157.49Z" transform="translate(-0.35 0.14)"/><path class="cls-29" d="M69.71,137.13a2.81,2.81,0,1,1,1,3.85A2.82,2.82,0,0,1,69.71,137.13Z" transform="translate(-0.35 0.14)"/><path class="cls-29" d="M57.94,130.34A2.58,2.58,0,0,1,61.26,129c1.05.61,1.27,2.2.5,3.54s-2.27,2-3.32,1.34A2.57,2.57,0,0,1,57.94,130.34Z" transform="translate(-0.35 0.14)"/><path class="cls-29" d="M53.24,127.63c.78-1.35,2.18-2,3.14-1.44s1.11,2.1.33,3.44-2.18,2-3.14,1.44S52.46,129,53.24,127.63Z" transform="translate(-0.35 0.14)"/><path class="cls-29" d="M74.58,140a2.81,2.81,0,1,0-3.84,1A2.81,2.81,0,0,0,74.58,140Z" transform="translate(-0.35 0.14)"/><path class="cls-29" d="M86.34,146.74c.78-1.35.56-2.93-.5-3.54s-2.53,0-3.31,1.34a2.27,2.27,0,1,0,3.81,2.2Z" transform="translate(-0.35 0.14)"/><path class="cls-29" d="M91.09,149.48c.78-1.35.63-2.89-.33-3.44s-2.37.09-3.14,1.43-.63,2.89.32,3.44S90.31,150.82,91.09,149.48Z" transform="translate(-0.35 0.14)"/><path class="cls-30" d="M141.29,151.06l-.06.11c-.1.23-.21.44-.32.65l-.12.21c-10.72,19.69-52.74,19.57-57.52-.12-3.38-13.86,8-20.89,2.41-29.13,2.13-.1,3.58,1,5.58,1.59,1.78.6,4.67.13,5.36-2.33.79-2.77-.85-6.29-6.05-5.07-1.48.79-2.27-.89-3.36-1.48-1.58-.79-1.77-.2-2.76.89a4.78,4.78,0,0,1-.59.53c.51-8.12,10.08-10.92,16.12-7.57,4.94,2.74,6.18,8.62,4.61,13.16-1.45,4.16-4.23,7.83-4.22,12.37a10.59,10.59,0,0,0,.07,1.25c.79,6.12,7.11,8.68,12.63,8.88,4.17.14,12-1.87,16.47-7.64h0a16.22,16.22,0,0,0,3.27-7.6C142,132.12,145,143.16,141.29,151.06Z" transform="translate(-0.35 0.14)"/><path class="cls-31" d="M129.54,137.36c-4.52,5.77-12.3,7.78-16.47,7.64-5.52-.2-11.84-2.76-12.63-8.88a10.59,10.59,0,0,1-.07-1.25c.12-.08.24-.16.37-.23,3-1.68,7.1.2,10,1.19C116.07,137.8,124.33,140.89,129.54,137.36Z" transform="translate(-0.35 0.14)"/><path class="cls-32" d="M96.62,122c-.69,2.46-3.58,2.93-5.36,2.33-2-.57-3.45-1.69-5.58-1.59h-.24c-1.68.2-3.46.7-5.24,1.09a10.09,10.09,0,0,1-3.42.17c-2.07-.4-1-1.12-.92-2.51.1-1.18-1.68-1.81-1.68-2.79.1-1.29,2.08-.79,3.06-.69,2.41.09,4.74.34,6.62-1.15a4.78,4.78,0,0,0,.59-.53c1-1.09,1.18-1.68,2.76-.89,1.09.59,1.88,2.27,3.36,1.48C95.77,115.75,97.41,119.27,96.62,122Z" transform="translate(-0.35 0.14)"/><g class="cls-33"><path class="cls-34" d="M89.35,121.59c-3.69,0-9,.51-9.7-.34s5.06.25,8-.73c.86-.33,6.21-2.19,6.67-.15C94.73,121.89,90.34,121.59,89.35,121.59Z" transform="translate(-0.35 0.14)"/></g><path class="cls-35" d="M93.53,114.27A1.29,1.29,0,1,1,92.25,113,1.28,1.28,0,0,1,93.53,114.27Z" transform="translate(-0.35 0.14)"/><path class="cls-31" d="M136.62,153.3c-7.1,10.54-25.12,13.71-37.33,9.55a6.93,6.93,0,0,1-1.61-3.56c-.51-5,3.77-7.71,8.22-8.39s8.57.68,12.85,1.54c3.94.86,8,2.06,12.16,2.06A11.41,11.41,0,0,0,136.62,153.3Z" transform="translate(-0.35 0.14)"/><g class="cls-33"><path class="cls-36" d="M87.56,159.31a2.38,2.38,0,0,1-.56.43,2.81,2.81,0,0,1-3.84-1l-.65-1.12a21.46,21.46,0,0,1-5.32,1.46c-1.55-12.22,8.09-18.88,2.89-26.61h-.25c-1.67.2-3.45.69-5.23,1.09a10.38,10.38,0,0,1-3.42.17c-2.08-.4-1-1.13-.93-2.5.11-1.19-1.67-1.81-1.67-2.8.1-1.29,2.07-.79,3.06-.7,2.41.1,4.73.35,6.62-1.14a9.25,9.25,0,0,1,.49-2.49,13.32,13.32,0,0,0,1.45-.2c1.78-.4,3.56-.89,5.23-1.09l.25,0c5.55,8.25-5.79,15.28-2.42,29.14A15.37,15.37,0,0,0,87.56,159.31Z" transform="translate(-0.35 0.14)"/></g><path class="cls-19" d="M328.62,247.67c-1.86-4.57-2.21-3.47-3.89-4.92a1.5,1.5,0,0,1,0-2.58l-2.5-6.13a20.78,20.78,0,0,0-6.89,3.55s.77,6.5,2.17,8.86l-.61.18-3.72-8L291.52,245s16-16.65,16.64-22.07a28.84,28.84,0,0,0-.6-9.42l-18.3,1.93.16-.46c3-.29,8.81-1.06,19.92-2.92,0,0-7.5-32.89-10-37.18s-9.13-10-9.13-10l-.27.14,1.55-4.08a11.22,11.22,0,0,0,1.43-8c-1-4.43-2.48-8.91-7.45-9.56s-10.43.63-10.77-1.64c0,0-2.82,4.41-1.49,6.82a.14.14,0,0,1,.12,0,6.63,6.63,0,0,0-2.11,2.78c-.71,1.79-.56,1.62-.33,2.29.38,1.11-.7,2.19-1.31,2.77-.94.91-1.91,1.4-.74,2.2,1.33.9.67,1.3.19,1.65s.16.92.32,1.12c0,0-.74.56-.35,1s.89.48.88.9-.62,1.93,0,2.57,2.67.47,3.7.53a3.94,3.94,0,0,1,2.94,1.13,8.7,8.7,0,0,1,1.86,3.15c0,.13.05.24.07.36l-.07,0s0,.2,0,.54c-1,1.53-11.45,13.7-13.95,14.19a7,7,0,0,1-2.54-.29A12.07,12.07,0,0,0,262,184a1.87,1.87,0,0,0,0-.34v0a.19.19,0,0,1,0-.07,1.51,1.51,0,0,0-.09-.18l0-.08s0,0,0,0a1.29,1.29,0,0,0-.16-.17l0,0-.06-.05-.05,0-.17-.11h0l-.1,0,0,0-.18-.07-.07,0a1.9,1.9,0,0,0-.36-.12h0a20.08,20.08,0,0,0-3.23-.35,1.16,1.16,0,0,1-.41-.09l-.1,0a1.12,1.12,0,0,1-.28-.16l-.11-.08-.25-.23-.09-.1a2.91,2.91,0,0,1-.26-.33l-.05-.07a8.49,8.49,0,0,1-1-2.28h0a11.56,11.56,0,0,1-.54-3,1.06,1.06,0,0,0-.06-.34h0a2.1,2.1,0,0,0-.28-.53l0-.05-.11-.15h0l-.23-.25,0,0-.09-.1h0a4.26,4.26,0,0,0-.38-.35l0,0,0,0a5,5,0,0,0-.43-.34h0l0,0c-.31-.24-.65-.47-1-.7l-.07,0h0a13.08,13.08,0,0,0-5.12-2c-2.61-.17-4.11-.95-8.08,1.17s-10.69,17.47-14.42,18.46-13.05,1.12-25.48-1.37-18-1.12-21.76-.49-8.83,3.85-13.55,3.6-8.82-1.49-15.41-2.61-12.56-7.21-13.93-9.45-6.09-14.29-2.23,0,32.19,17.16,32.19,17.16c-3.85,2.73-4.47,9.94-5.46,13.55s.74,14-3.11,16.78-6.34,2.73-8.08,6.09a103.19,103.19,0,0,0-5.35,14.79c-.62,2.61-2.17,6.71,2.61,6.59,3-.08,4-.87,3.48-2.11s-2-1.25-1.74-2.61,1.87-7.84,5-10.94,2.12-2.11,10.57-6.09c4.78-2.25,7.41-5.82,9.39-9.32.16,1.88.25,3.34.25,4,0,2.24-3.55,5.41-4.85,6.71s-1.51,2.94,4.19,9.51c4.71,5.43,5.69,7.65,7.74,8s5.53.11,5.42-.66c-.39-2.82-4.46-2.72-4.46-2.72L175.54,244c-3.67-5-4.37-5-.93-9S187.1,224.25,187.47,217c.1-1.86.14-3.51.16-5,3.47,1.08,9.54,3.89,11.34,5.89,2.24,2.49,10.57,3.23,9.7,4.6s-3.85,11.57-5.35,14.05-2.81,9.11-4.22,11.68C197,252.1,197,252.1,197,253.72s1.62,2.35,4.11,2.35,4.35-.87,2.33-3.1c-1.26-1.39-1.46-1.74.53-4.6s10.19-14.29,12.55-17.28l.73-.9.69-.8c.12-.12.22-.25.34-.37s.41-.45.63-.67l.5-.52.62-.59.62-.56.63-.54.06,0c2.19,4.89,5.27,12,6.43,15.32,1.87,5.41,3.29,12.43,5.9,12.92,5.36,1,7-1.12,3.92-3.35-.61-.44-1.66.27-2,0-1.22-.85-1-2-1.43-4-.56-2.61-1.87-12.68-1.68-16.22.11-2,.21-6.52.28-10.47a14.43,14.43,0,0,0,6.19-6.75c1.79-4.25,2.37-11.23,3.56-14.84l-.74,1a19.9,19.9,0,0,1,1.15-4.5,6,6,0,0,1,.52-.89,2.12,2.12,0,0,0,.74.09,17.15,17.15,0,0,1,3.18-.16l-.38,1.46s17.19,6.49,20,5.76c1.53-.4,7.44-4.3,12.57-7.82a74,74,0,0,0,3.38,14.19c-2.38-.44-18.67-3.43-21.56-3.07-3.12.39-5.66,2.73-5.66,5.27s4.88,37.67,4.88,37.67h2.2c-1.07,1.95-5.45,3.2-9.13,3.91-4.1.78-2.22,5.07-2.22,5.07h8.27c4.88,0,4-.78,5.95-1.86a1.48,1.48,0,0,1,2.34,1.08h6.53a6,6,0,0,0,3.4,3.87h6.64l34-9.83-.39-.83,2.17-.63-.53-1.14c2.1.74,4.84,4.74,6.76,7.79,2.25,3.57,5.28.28,5.28.28S330.48,252.25,328.62,247.67ZM270.47,222l11,3.87c-2.64,8.7-6.15,20.62-7.06,25.08a24.31,24.31,0,0,0-.61-3.18h.39Z" transform="translate(-0.35 0.14)"/><path class="cls-37" d="M277.87,171.43l-.44-1.05c.16.25-11.38,13.83-14,14.34s-12.65-4-12.65-4l-1.82,5.45,16.85,8.19,16.84-20.67Z" transform="translate(-0.35 0.14)"/><path class="cls-38" d="M252.91,182s-1.67.41-2-.44-6.94-4.73-8.55-3.23-.48,1.2,1.18,2.29,3.41,2.1,2.67,2.81-1.55-.85-2.57-.6c-.75.19.12,1.1,1.3,2.3a21.35,21.35,0,0,0,1.74,1.5c2.09,1.62,2.92,1.24,3.57,2.13S252.91,182,252.91,182Z" transform="translate(-0.35 0.14)"/><path class="cls-39" d="M218,219.87s6.9,15.1,8.76,20.51,3.3,12.43,5.91,12.93c5.36,1,7-1.12,3.91-3.36-.6-.44-1.65.27-2,0-1.22-.84-1-2-1.43-4-.55-2.61-1.86-12.67-1.68-16.22s.38-15.1.38-17.16S218,219.87,218,219.87Z" transform="translate(-0.35 0.14)"/><path class="cls-39" d="M167.24,207.75c1.68,3.91,2.8,17,2.8,19.2s-3.54,5.41-4.85,6.72-1.51,2.94,4.2,9.51c4.71,5.42,5.68,7.64,7.74,8s5.52.1,5.41-.66c-.38-2.82-4.45-2.72-4.45-2.72L174.51,243c-3.66-5-4.36-5-.93-9s12.49-10.81,12.87-18.09a93.72,93.72,0,0,0,0-11.56Z" transform="translate(-0.35 0.14)"/><path class="cls-24" d="M261,183c-.23,3.47-1.24,5.59-4.35,7.33s-4.6,2.86-6.72,1.74-1.24-.62-3-.25-3.61-.75-5.1,2.36-2,13.62-4,18.34-6.47,7.46-11.44,9.08-8.58,5.47-10.94,8.45-10.56,14.42-12.55,17.28-1.78,3.21-.53,4.6c2,2.24.16,3.11-2.33,3.11s-4.11-.74-4.11-2.36,0-1.62,2.12-5.47c1.41-2.57,2.73-9.2,4.23-11.68s4.47-12.69,5.34-14.06-7.46-2.11-9.69-4.59-11.07-6.22-13.31-6.34a12.7,12.7,0,0,0-10.81,5.09c-3.23,4.6-5,12.68-13.42,16.66s-7.46,3-10.57,6.09-4.72,9.58-5,10.94,1.25,1.37,1.75,2.61-.5,2-3.48,2.11c-4.79.13-3.23-4-2.61-6.59a103.06,103.06,0,0,1,5.34-14.79c1.74-3.35,4.22-3.35,8.08-6.09s2.11-13.17,3.11-16.78,1.61-10.81,5.47-13.55c0,0-28.35-2.86-32.2-17.15s.87-2.24,2.24,0,7.33,8.33,13.92,9.45,10.69,2.36,15.42,2.61,9.81-3,13.55-3.61,9.32-2,21.75.49,21.76,2.37,25.48,1.37S233.12,173.06,237.1,171s5.47-1.33,8.08-1.16,8,3.27,8,5,1.12,6.28,3.11,6.41S261.08,181.35,261,183Z" transform="translate(-0.35 0.14)"/><path class="cls-40" d="M241.21,187.14c2.06-.61,1.62-3.6,1.32-6.28h0s.73,3.38-2.33,4.14-5.23-5.15-5.29-5.34C235.86,183.85,238.62,187.92,241.21,187.14Z" transform="translate(-0.35 0.14)"/><path class="cls-39" d="M234.91,177.47s1.07,3.4,2.19,3.39a16,16,0,0,1,3.72.67c.93.23,1.54-3,1.54-3s.85,8.94-1.15,8.65S234.29,182.78,234.91,177.47Z" transform="translate(-0.35 0.14)"/><path class="cls-40" d="M234.87,174.47a13.34,13.34,0,0,0,1.06,6.65,15.26,15.26,0,0,0,1.53,2.95,6.61,6.61,0,0,0,2.17,2.17,1.5,1.5,0,0,0,2.1-.36,6.1,6.1,0,0,0,.42-3c0-1.14-.14-2.3-.13-3.49a7.91,7.91,0,0,1,.22-1.8,1.52,1.52,0,0,1,1.21-1.25,1.44,1.44,0,0,0-.82,1.33,6.75,6.75,0,0,0,.12,1.67c.16,1.13.42,2.26.56,3.45a6.53,6.53,0,0,1-.35,3.8,2.93,2.93,0,0,1-4,1,7.52,7.52,0,0,1-2.68-2.73,14,14,0,0,1-1.44-3.33A10.72,10.72,0,0,1,234.87,174.47Z" transform="translate(-0.35 0.14)"/><path class="cls-41" d="M256.25,181.21c-2-.13-3.11-4.67-3.11-6.41a1,1,0,0,0-.06-.33l-.08-.16a1.76,1.76,0,0,0-.09-.2c0-.08-.11-.15-.16-.23s-.06-.1-.1-.15l-.26-.28-.09-.1-.36-.33-.05-.06-.45-.36,0,0-.52-.38h0l-.57-.37h0s-1.89,1.79-2.14,3.45,1.05,3.81.65,5.6c-.2.88,7.44,4,5,6.62-.88.94-.94,3-.63,4.69a37.7,37.7,0,0,0,3.45-1.83c3.11-1.74,4.12-3.86,4.35-7.33C261.08,181.35,258.24,181.33,256.25,181.21Z" transform="translate(-0.35 0.14)"/><path class="cls-42" d="M250.65,176.9a2.92,2.92,0,0,0,1.28,4c2.45,1.28,4,1.78,4.32.35-2-.13-3.11-4.67-3.11-6.41C252.18,174.3,250.77,176.76,250.65,176.9Z" transform="translate(-0.35 0.14)"/><path class="cls-43" d="M251.77,177.47c.9-2.09,1.21,1.28,1.21,1.28S251.14,178.9,251.77,177.47Z" transform="translate(-0.35 0.14)"/><path class="cls-39" d="M261,183c.08-1.18-1.33-1.53-2.87-1.67-1.8.81-.49,1-.05,1.54s-.13,1.24.5,2-.14,1.62-.45,2.28.83,1.27.92,1.32A8.49,8.49,0,0,0,261,183Z" transform="translate(-0.35 0.14)"/><path class="cls-42" d="M260.76,184.87A6.52,6.52,0,0,0,261,183c.07-1.07-1.08-1.46-2.44-1.63A6.45,6.45,0,0,0,260.76,184.87Z" transform="translate(-0.35 0.14)"/><path class="cls-44" d="M259.76,181.65a15.61,15.61,0,0,0-3.51-.44c-1.18-.08-2.06-1.71-2.57-3.39h0c-.3,0-.46,1.11,0,2s.41,1.21,1.06,1.67a7.74,7.74,0,0,0,2.76.56A20.91,20.91,0,0,0,259.76,181.65Z" transform="translate(-0.35 0.14)"/><path class="cls-44" d="M222.18,216.26c-2.05,2.61-3.78,10.1-6,12.9h0c2.35-2.82,5.72-6.1,10.21-7.56,5-1.62,9.45-4.35,11.44-9.08,1.79-4.25,2.38-11.23,3.56-14.84,0,0-8,11.12-11,11.86S224.23,213.66,222.18,216.26Z" transform="translate(-0.35 0.14)"/><path class="cls-45" d="M246.78,193.25a21.61,21.61,0,0,0-3.7.14c-.93.24-8.38-2.71-8.18-5s.68-1.17,2.66-.5,3.93,1.49,4.05.41-1.71-.73-2.16-1.75c-.32-.74,1-.6,2.76-.39.7.08,2,.38,2.35.47,2.7.7,2.92,1.63,4.07,1.6S246.78,193.25,246.78,193.25Z" transform="translate(-0.35 0.14)"/><path class="cls-38" d="M248.63,188.21h-.14a26.83,26.83,0,0,1-2,4.07,21.89,21.89,0,0,0-3.7.15c-.82.2-6.52-2-7.89-4.08v0c-.2,2.31,7.25,5.26,8.18,5a21.61,21.61,0,0,1,3.7-.14S249.8,188.18,248.63,188.21Z" transform="translate(-0.35 0.14)"/><path class="cls-21" d="M272.79,246.7a23.57,23.57,0,0,1,.69,8.19h-6.54a1.48,1.48,0,0,0-2.35-1.07c-1.95,1.07-1.07,1.85-5.95,1.85h-8.27s-1.88-4.29,2.22-5.07,9.08-2.25,9.37-4.59S272.79,246.7,272.79,246.7Z" transform="translate(-0.35 0.14)"/><path class="cls-28" d="M284.16,226.09l-14.71-5.16,3.73,25.77H259.52s-4.88-35.14-4.88-37.68,2.54-4.87,5.66-5.26,21.86,3.12,21.86,3.12l6.29,6.85Z" transform="translate(-0.35 0.14)"/><polygon class="cls-46" points="285.91 220.19 288.11 213.88 285.91 211.49 285.91 220.19"/><polygon class="cls-47" points="284.64 223.86 266.91 217.97 271.01 246.84 272.84 246.84 269.1 221.07 283.81 226.24 284.64 223.86"/><path class="cls-21" d="M314.36,236.56a21,21,0,0,1,6.88-3.55l2.51,6.13a1.5,1.5,0,0,0-.05,2.58c1.69,1.45,2,.35,3.89,4.93s3.16,7.75,3.16,7.75-3,3.29-5.27-.28-5.61-8.43-7.77-7.87S314.36,236.56,314.36,236.56Z" transform="translate(-0.35 0.14)"/><path class="cls-29" d="M306.54,212.44l-23,2.42s-8.79,28.21-10.15,35.24,3.51,8.66,3.51,8.66h6.63l34-9.83-5.27-11.32-21.69,6.31s16-16.65,16.63-22.07A28.92,28.92,0,0,0,306.54,212.44Z" transform="translate(-0.35 0.14)"/><path class="cls-28" d="M287.66,253.78H281s-4.87-1.64-3.51-8.66c1.08-5.53,6.74-24.15,9.11-31.86l-1.33.14s-8.79,28.22-10.15,35.25,3.51,8.66,3.51,8.66h6.63l34-9.83L318.08,245Z" transform="translate(-0.35 0.14)"/><path class="cls-45" d="M275.46,145.65c-.63.54-4,1.37-5.3,4.61-.71,1.79-.55,1.63-.33,2.29.38,1.11-.7,2.19-1.31,2.77-.93.92-1.91,1.4-.73,2.21s.67,1.3.18,1.64.16.92.33,1.13c0,0-.75.55-.35,1s.89.49.88.9-.63,1.93,0,2.57,2.68.47,3.7.53a3.94,3.94,0,0,1,2.94,1.13c2.84,3.21,2.07,5.91,2.07,5.91s1,1.74,5.28-3c.6-.67,3.83-1.58,4-3,.16-1.84,2.49-10.3-1.35-11-.17,0-7.89-4.15-7.89-4.15Z" transform="translate(-0.35 0.14)"/><path class="cls-45" d="M282.49,169.78c.6-.57,3.69-1.18,3.91-2.52.14-.79.8-2.85,1.14-4.94-2.22-1.9-4.1-2.79-4.44-.84-.89,5.22-9.16,3.87-9.16,3.87h0a3.12,3.12,0,0,1,1.94,1.15c2.4,3.21,1.48,5.66,1.48,5.66S278.19,173.86,282.49,169.78Z" transform="translate(-0.35 0.14)"/><path class="cls-41" d="M291.86,151.91c-1-4.43-2.48-8.92-7.45-9.57S274,143,273.64,140.7c0,0-2.82,4.42-1.48,6.82.58-.81,5.83,7.84,6.67,9.13s.47-2.37,2.28-2,2.52,4.21,1.69,5.81c-.64,1.23,1.8,3.76,1.8,3.76l2.78,2.45-.51,2.61,3.57-9.41A11.22,11.22,0,0,0,291.86,151.91Z" transform="translate(-0.35 0.14)"/><path class="cls-21" d="M308.31,211s-7.49-32.89-10-37.18-9.12-10-9.12-10L277.38,170s-1.62,28.28,7.75,43.9C285.13,213.9,283.92,215.08,308.31,211Z" transform="translate(-0.35 0.14)"/><path class="cls-21" d="M286.74,186.87s-18,12.84-20.83,13.58-20-5.76-20-5.76l1.93-7.27s15.05,3.88,16.35,3.11c2.07-1.22,10.52-11.39,13.41-18.83Z" transform="translate(-0.35 0.14)"/><g class="cls-48"><path class="cls-8" d="M354.75,111.62H340.93a2.16,2.16,0,0,1-1.42-.37v-.35a2.16,2.16,0,0,1,1.42-.38h13.51a1.1,1.1,0,0,0,.87-1.78c-.83-1-2.55-1-4.54-1h-17l-3.32,70.4a4.48,4.48,0,0,0,4.48,4.47H335a4.47,4.47,0,0,0,4.47-4.47V147.69h11.26c2.11,0,3.93,0,4.69-1.25a1.09,1.09,0,0,0-1-1.61H340.93a2.23,2.23,0,0,1-1.42-.36v-.36a2.16,2.16,0,0,1,1.42-.38h13.82a1.09,1.09,0,0,0,1.09-1.1v0a1.09,1.09,0,0,0-1.09-1.1H340.93a2.16,2.16,0,0,1-1.42-.37v-.35a2.16,2.16,0,0,1,1.42-.38h13.82a1.09,1.09,0,0,0,1.09-1.1v0a1.09,1.09,0,0,0-1.09-1.1H340.93a2.16,2.16,0,0,1-1.42-.37v-.35a2.16,2.16,0,0,1,1.42-.38h13.82a1.09,1.09,0,0,0,1.09-1.1v0a1.09,1.09,0,0,0-1.09-1.1H340.93a2.16,2.16,0,0,1-1.42-.37v-.35a2.15,2.15,0,0,1,1.42-.39h13.82a1.09,1.09,0,0,0,1.09-1.09v0a1.09,1.09,0,0,0-1.09-1.1H340.93a2.16,2.16,0,0,1-1.42-.37v-.36a2.21,2.21,0,0,1,1.42-.38h13.82a1.09,1.09,0,0,0,1.09-1.09v0a1.09,1.09,0,0,0-1.09-1.1H340.93a2.22,2.22,0,0,1-1.42-.37v-.36a2.21,2.21,0,0,1,1.42-.38h13.82a1.09,1.09,0,0,0,1.09-1.09v0a1.09,1.09,0,0,0-1.09-1.09H340.93a2.22,2.22,0,0,1-1.42-.37v-.36a2.16,2.16,0,0,1,1.42-.38h13.82a1.09,1.09,0,0,0,1.09-1.09v0a1.09,1.09,0,0,0-1.09-1.09H340.93a2.22,2.22,0,0,1-1.42-.37v-.36a2.16,2.16,0,0,1,1.42-.38h13.82a1.09,1.09,0,0,0,1.09-1.1v0a1.09,1.09,0,0,0-1.09-1.09H340.93a2.22,2.22,0,0,1-1.42-.37v-.36a2.16,2.16,0,0,1,1.42-.38h13.82a1.09,1.09,0,0,0,1.09-1.1v0a1.09,1.09,0,0,0-1.09-1.09H340.93a2.22,2.22,0,0,1-1.42-.37v-.36a2.16,2.16,0,0,1,1.42-.38h13.82a1.09,1.09,0,0,0,1.09-1.1v0A1.1,1.1,0,0,0,354.75,111.62Z" transform="translate(-0.35 0.14)"/><path class="cls-8" d="M378.41,104.26h-.35c-10.44,0-18.93,8.21-18.93,18.3v12.11a18.47,18.47,0,0,0,14.95,17.88l-1.91,26.1a3.91,3.91,0,0,0,3.91,3.92h4.3a3.91,3.91,0,0,0,3.92-3.92l-1.91-26.1a18.48,18.48,0,0,0,14.95-17.88V122.56C397.34,112.47,388.84,104.26,378.41,104.26Z" transform="translate(-0.35 0.14)"/></g><path class="cls-30" d="M338.49,106.67v70.4a4.48,4.48,0,0,1-4.48,4.47h-.09a4.47,4.47,0,0,1-4.48-4.47l3.32-70.4Z" transform="translate(-0.35 0.14)"/><path class="cls-30" d="M339.9,110.6h13.82a1.09,1.09,0,0,1,1.1,1.09v0a1.09,1.09,0,0,1-1.1,1.09H339.9c-.83,0-1.5.26-1.5.56h0c0,.3.67.54,1.5.54h13.82a1.1,1.1,0,0,1,1.1,1.1v0a1.09,1.09,0,0,1-1.1,1.09H339.9c-.83,0-1.5.26-1.5.56h0c0,.3.67.54,1.5.54h13.82a1.1,1.1,0,0,1,1.1,1.1v0a1.09,1.09,0,0,1-1.1,1.09H339.9c-.83,0-1.5.26-1.5.56h0c0,.3.67.54,1.5.54h13.82a1.1,1.1,0,0,1,1.1,1.1v0a1.1,1.1,0,0,1-1.1,1.1H339.9c-.83,0-1.5.25-1.5.55h0c0,.3.67.54,1.5.54h13.82a1.1,1.1,0,0,1,1.1,1.1v0a1.1,1.1,0,0,1-1.1,1.1H339.9c-.83,0-1.5.25-1.5.55h0c0,.3.67.54,1.5.54h13.82a1.1,1.1,0,0,1,1.1,1.1v0a1.1,1.1,0,0,1-1.1,1.1H339.9c-.83,0-1.5.25-1.5.55h0c0,.3.67.54,1.5.54h13.82a1.1,1.1,0,0,1,1.1,1.1v0a1.1,1.1,0,0,1-1.1,1.1H339.9c-.83,0-1.5.25-1.5.55h0c0,.3.67.55,1.5.55h13.82a1.09,1.09,0,0,1,1.1,1.09v0a1.1,1.1,0,0,1-1.1,1.1H339.9c-.83,0-1.5.25-1.5.55h0c0,.3.67.55,1.5.55h13.82a1.09,1.09,0,0,1,1.1,1.09v0a1.1,1.1,0,0,1-1.1,1.1H339.9c-.83,0-1.5.26-1.5.55v0c0,.29.67.54,1.5.54h13.82a1.09,1.09,0,0,1,1.1,1.09v0a1.09,1.09,0,0,1-1.1,1.09H339.9c-.83,0-1.5.26-1.5.56h0c0,.3.67.54,1.5.54h13.56a1.09,1.09,0,0,1,1,1.61c-.76,1.21-2.57,1.25-4.68,1.25H335.44v-40h14.31c2,0,3.7,0,4.53,1a1.1,1.1,0,0,1-.86,1.78H339.9c-.83,0-1.5.26-1.5.56h0C338.4,110.36,339.07,110.6,339.9,110.6Z" transform="translate(-0.35 0.14)"/><path class="cls-31" d="M333.92,179.58a2.51,2.51,0,0,1-2.52-2.51l3.23-68.35a.09.09,0,0,1,.08-.09h1.73a.09.09,0,0,1,.09.09V177a2.6,2.6,0,0,1-2.61,2.6Z" transform="translate(-0.35 0.14)"/><path class="cls-30" d="M377.21,151.94v29.6h2.15a3.91,3.91,0,0,0,3.91-3.91l-1.9-26.1a19.43,19.43,0,0,1-4,.41Z" transform="translate(-0.35 0.14)"/><path class="cls-31" d="M377.38,103.23h-.17v2h.17c9.34,0,16.92,7.29,16.92,16.28v12.12c0,9-7.58,16.28-16.92,16.28h-.17v.92h4.11l.05.68a18.49,18.49,0,0,0,14.94-17.88V121.53C396.31,111.44,387.82,103.23,377.38,103.23Z" transform="translate(-0.35 0.14)"/><path class="cls-30" d="M377.21,150.85v-.92H377c-9.35,0-16.92-7.29-16.92-16.28V121.53c0-9,7.57-16.28,16.92-16.28h.17v-2H377c-10.44,0-18.94,8.21-18.94,18.3v12.12a18.5,18.5,0,0,0,14.95,17.88l.05-.68Zm-9.78-44.27h0Z" transform="translate(-0.35 0.14)"/><path class="cls-30" d="M367.43,106.58h0Z" transform="translate(-0.35 0.14)"/><path class="cls-28" d="M360.12,121.53v12.12c0,9,7.57,16.28,16.92,16.28h.17v-8.2a1.36,1.36,0,1,1,0-2.72v-5.67a1.37,1.37,0,1,1,0-2.73v-5.67a1.37,1.37,0,1,1,0-2.73v-5.67a1.37,1.37,0,1,1,0-2.73v-8.56H377C367.69,105.25,360.12,112.54,360.12,121.53Zm4.46,16a1.37,1.37,0,1,1,1.37-1.37A1.36,1.36,0,0,1,364.58,137.54Zm0-8.4a1.37,1.37,0,1,1,1.37-1.36A1.36,1.36,0,0,1,364.58,129.14Zm0-8.4a1.37,1.37,0,1,1,1.37-1.36A1.36,1.36,0,0,1,364.58,120.74Zm4.21,21a1.36,1.36,0,1,1,1.36-1.36A1.37,1.37,0,0,1,368.79,141.73Zm0-8.39a1.37,1.37,0,1,1,0-2.73,1.37,1.37,0,0,1,0,2.73Zm0-8.4a1.37,1.37,0,1,1,1.36-1.37A1.37,1.37,0,0,1,368.79,124.94Zm0-8.4a1.37,1.37,0,1,1,1.36-1.37A1.37,1.37,0,0,1,368.79,116.54Zm4.21,29.4a1.37,1.37,0,1,1,1.37-1.37A1.36,1.36,0,0,1,373,145.94Zm0-8.4a1.37,1.37,0,1,1,1.37-1.37A1.36,1.36,0,0,1,373,137.54Zm0-8.4a1.37,1.37,0,1,1,1.37-1.36A1.36,1.36,0,0,1,373,129.14Zm0-8.4a1.37,1.37,0,1,1,1.37-1.36A1.36,1.36,0,0,1,373,120.74Zm0-8.4a1.37,1.37,0,1,1,1.37-1.36A1.36,1.36,0,0,1,373,112.34Z" transform="translate(-0.35 0.14)"/><path class="cls-47" d="M378.57,115.17a1.36,1.36,0,0,1-1.36,1.37v5.67a1.37,1.37,0,0,1,0,2.73v5.67a1.37,1.37,0,0,1,0,2.73V139a1.36,1.36,0,0,1,0,2.72v8.2h.17c9.34,0,16.92-7.29,16.92-16.28V121.53c0-9-7.58-16.28-16.92-16.28h-.17v8.56A1.36,1.36,0,0,1,378.57,115.17ZM389.84,118a1.37,1.37,0,1,1-1.36,1.37A1.37,1.37,0,0,1,389.84,118Zm0,8.4a1.37,1.37,0,1,1-1.36,1.37A1.37,1.37,0,0,1,389.84,126.41Zm0,8.4a1.37,1.37,0,1,1-1.36,1.36A1.36,1.36,0,0,1,389.84,134.81Zm-4.21-21a1.37,1.37,0,1,1-1.37,1.36A1.36,1.36,0,0,1,385.63,113.81Zm0,8.4a1.37,1.37,0,1,1-1.37,1.36A1.36,1.36,0,0,1,385.63,122.21Zm0,8.4a1.37,1.37,0,1,1-1.37,1.36A1.36,1.36,0,0,1,385.63,130.61Zm0,8.4a1.36,1.36,0,1,1-1.37,1.36A1.36,1.36,0,0,1,385.63,139Zm-4.21-29.4a1.37,1.37,0,1,1-1.36,1.37A1.37,1.37,0,0,1,381.42,109.61Zm0,8.4a1.37,1.37,0,1,1-1.36,1.37A1.37,1.37,0,0,1,381.42,118Zm0,8.4a1.37,1.37,0,1,1-1.36,1.37A1.37,1.37,0,0,1,381.42,126.41Zm0,8.4a1.37,1.37,0,1,1-1.36,1.36A1.36,1.36,0,0,1,381.42,134.81Zm0,8.4a1.37,1.37,0,1,1-1.36,1.36A1.36,1.36,0,0,1,381.42,143.21Z" transform="translate(-0.35 0.14)"/><path class="cls-49" d="M368.79,113.81a1.37,1.37,0,1,0,1.36,1.36A1.37,1.37,0,0,0,368.79,113.81Z" transform="translate(-0.35 0.14)"/><path class="cls-49" d="M375.84,115.17a1.37,1.37,0,0,0,1.37,1.37v-2.73A1.36,1.36,0,0,0,375.84,115.17Z" transform="translate(-0.35 0.14)"/><path class="cls-50" d="M378.57,115.17a1.36,1.36,0,0,0-1.36-1.36v2.73A1.36,1.36,0,0,0,378.57,115.17Z" transform="translate(-0.35 0.14)"/><path class="cls-50" d="M385.63,116.54a1.37,1.37,0,1,0-1.37-1.37A1.36,1.36,0,0,0,385.63,116.54Z" transform="translate(-0.35 0.14)"/><path class="cls-49" d="M364.58,118a1.37,1.37,0,1,0,1.37,1.37A1.36,1.36,0,0,0,364.58,118Z" transform="translate(-0.35 0.14)"/><path class="cls-49" d="M373,118a1.37,1.37,0,1,0,1.37,1.37A1.36,1.36,0,0,0,373,118Z" transform="translate(-0.35 0.14)"/><path class="cls-50" d="M381.42,120.74a1.37,1.37,0,1,0-1.36-1.36A1.36,1.36,0,0,0,381.42,120.74Z" transform="translate(-0.35 0.14)"/><path class="cls-49" d="M373,109.61a1.37,1.37,0,1,0,1.37,1.37A1.37,1.37,0,0,0,373,109.61Z" transform="translate(-0.35 0.14)"/><path class="cls-50" d="M381.42,112.34a1.37,1.37,0,1,0-1.36-1.36A1.36,1.36,0,0,0,381.42,112.34Z" transform="translate(-0.35 0.14)"/><path class="cls-50" d="M389.84,120.74a1.37,1.37,0,1,0-1.36-1.36A1.36,1.36,0,0,0,389.84,120.74Z" transform="translate(-0.35 0.14)"/><path class="cls-49" d="M368.79,122.21a1.37,1.37,0,1,0,1.36,1.36A1.37,1.37,0,0,0,368.79,122.21Z" transform="translate(-0.35 0.14)"/><path class="cls-49" d="M375.84,123.57a1.37,1.37,0,0,0,1.37,1.37v-2.73A1.36,1.36,0,0,0,375.84,123.57Z" transform="translate(-0.35 0.14)"/><path class="cls-50" d="M378.57,123.57a1.36,1.36,0,0,0-1.36-1.36v2.73A1.36,1.36,0,0,0,378.57,123.57Z" transform="translate(-0.35 0.14)"/><path class="cls-50" d="M385.63,124.94a1.37,1.37,0,1,0-1.37-1.37A1.36,1.36,0,0,0,385.63,124.94Z" transform="translate(-0.35 0.14)"/><path class="cls-49" d="M364.58,126.41a1.37,1.37,0,1,0,1.37,1.37A1.36,1.36,0,0,0,364.58,126.41Z" transform="translate(-0.35 0.14)"/><path class="cls-49" d="M373,126.41a1.37,1.37,0,1,0,1.37,1.37A1.36,1.36,0,0,0,373,126.41Z" transform="translate(-0.35 0.14)"/><path class="cls-50" d="M381.42,129.14a1.37,1.37,0,1,0-1.36-1.36A1.36,1.36,0,0,0,381.42,129.14Z" transform="translate(-0.35 0.14)"/><path class="cls-50" d="M389.84,129.14a1.37,1.37,0,1,0-1.36-1.36A1.36,1.36,0,0,0,389.84,129.14Z" transform="translate(-0.35 0.14)"/><path class="cls-49" d="M368.79,130.61a1.37,1.37,0,1,0,1.36,1.36A1.37,1.37,0,0,0,368.79,130.61Z" transform="translate(-0.35 0.14)"/><path class="cls-49" d="M375.84,132a1.37,1.37,0,0,0,1.37,1.37v-2.73A1.36,1.36,0,0,0,375.84,132Z" transform="translate(-0.35 0.14)"/><path class="cls-50" d="M378.57,132a1.36,1.36,0,0,0-1.36-1.36v2.73A1.37,1.37,0,0,0,378.57,132Z" transform="translate(-0.35 0.14)"/><path class="cls-50" d="M385.63,133.34a1.37,1.37,0,1,0-1.37-1.37A1.37,1.37,0,0,0,385.63,133.34Z" transform="translate(-0.35 0.14)"/><path class="cls-49" d="M364.58,134.81a1.37,1.37,0,1,0,1.37,1.36A1.36,1.36,0,0,0,364.58,134.81Z" transform="translate(-0.35 0.14)"/><path class="cls-49" d="M373,134.81a1.37,1.37,0,1,0,1.37,1.36A1.36,1.36,0,0,0,373,134.81Z" transform="translate(-0.35 0.14)"/><path class="cls-50" d="M381.42,137.54a1.37,1.37,0,1,0-1.36-1.37A1.37,1.37,0,0,0,381.42,137.54Z" transform="translate(-0.35 0.14)"/><path class="cls-50" d="M389.84,137.54a1.37,1.37,0,1,0-1.36-1.37A1.37,1.37,0,0,0,389.84,137.54Z" transform="translate(-0.35 0.14)"/><path class="cls-49" d="M368.79,139a1.36,1.36,0,1,0,1.36,1.36A1.37,1.37,0,0,0,368.79,139Z" transform="translate(-0.35 0.14)"/><path class="cls-49" d="M375.84,140.37a1.36,1.36,0,0,0,1.37,1.36V139A1.36,1.36,0,0,0,375.84,140.37Z" transform="translate(-0.35 0.14)"/><path class="cls-50" d="M378.57,140.37a1.36,1.36,0,0,0-1.36-1.36v2.72A1.36,1.36,0,0,0,378.57,140.37Z" transform="translate(-0.35 0.14)"/><path class="cls-50" d="M385.63,141.73a1.36,1.36,0,1,0-1.37-1.36A1.36,1.36,0,0,0,385.63,141.73Z" transform="translate(-0.35 0.14)"/><path class="cls-49" d="M373,143.21a1.37,1.37,0,1,0,1.37,1.36A1.36,1.36,0,0,0,373,143.21Z" transform="translate(-0.35 0.14)"/><path class="cls-50" d="M381.42,145.94a1.37,1.37,0,1,0-1.36-1.37A1.37,1.37,0,0,0,381.42,145.94Z" transform="translate(-0.35 0.14)"/><path class="cls-31" d="M377,151.94a19.43,19.43,0,0,1-4-.41l-1.91,26.1a3.91,3.91,0,0,0,3.92,3.91h2.15v-29.6Z" transform="translate(-0.35 0.14)"/><path class="cls-30" d="M377.21,151.94v-1.09H373.1l-.05.68a19.43,19.43,0,0,0,4,.41Z" transform="translate(-0.35 0.14)"/><path class="cls-31" d="M377.21,150.85v1.09h.17a19.43,19.43,0,0,0,4-.41l-.05-.68Z" transform="translate(-0.35 0.14)"/><g class="cls-48"><path class="cls-8" d="M229,333.4l-4.94-5.59a23,23,0,0,0,2.87-10c0-2.33-.77-8.19-5.87-8.19-.88,0-1.61,0-2.21,0a.81.81,0,0,0-.44,1.46,9.15,9.15,0,0,1,3.09,6.34c.11,3.41-2.94,4.72-5.92,5.22-3-.5-6-1.81-5.93-5.22a9.26,9.26,0,0,1,2.9-6.18.93.93,0,0,0-.56-1.63c-.54,0-1.16,0-1.9,0-5.09,0-5.86,5.86-5.86,8.19a23.17,23.17,0,0,0,2.86,10l-4.94,5.59H202l-.11.21a95.34,95.34,0,0,0-10.92,44.3v5.72l.05,0a11.86,11.86,0,0,0,5.43-8.49l.35-2.65c1.43-11,7.1-15.92,12.18-25.75l.71-5.86c.06.38.11.79.15,1.14.23,1.89.36,2.72.91,2.72s.68-.84.91-2.73c.07-.59.17-1.4.28-1.87a17.39,17.39,0,0,1,.29,1.88c.23,1.89.35,2.72.91,2.72s.68-.84.91-2.73c.07-.59.17-1.41.28-1.87.12.46.21,1.28.29,1.88.23,1.89.35,2.72.91,2.72s.67-.83.9-2.72c.07-.6.18-1.41.29-1.88.11.47.21,1.28.28,1.88.23,1.89.36,2.72.91,2.72s.68-.83.91-2.72c.08-.6.18-1.42.29-1.89a17.6,17.6,0,0,1,.29,1.89c.23,1.89.36,2.72.91,2.72s.68-.83.91-2.72c.05-.36.1-.78.16-1.17l.72,5.89c5.08,9.83,10.74,14.77,12.18,25.75l.35,2.65A11.86,11.86,0,0,0,240,383.6l0,0v-5.72a95.33,95.33,0,0,0-10.91-44.3Zm-8.47,8.51a17,17,0,0,1-.29,1.88c-.11-.46-.21-1.28-.29-1.88-.23-1.89-.36-2.73-.91-2.73s-.68.84-.91,2.73a17.39,17.39,0,0,1-.29,1.88c-.11-.47-.21-1.29-.28-1.88-.23-1.89-.36-2.73-.91-2.73s-.68.84-.91,2.73a17.79,17.79,0,0,1-.29,1.88c-.11-.47-.21-1.29-.28-1.88-.23-1.89-.36-2.73-.91-2.73s-.68.84-.91,2.73c-.07.59-.17,1.41-.28,1.88-.12-.47-.21-1.29-.29-1.88-.23-1.89-.35-2.73-.91-2.73s-.67.84-.9,2.73c-.08.59-.18,1.41-.29,1.88-.11-.47-.21-1.29-.28-1.88a6,6,0,0,0-.59-2.59l.72-5.92h9.88l.72,5.92C220.87,339.62,220.75,340.45,220.57,341.91Z" transform="translate(-0.35 0.14)"/><path class="cls-8" d="M277.15,318.31l-2.93-.95a6.69,6.69,0,0,0-8.43,4.28L264.7,325l-4.95,14.28-5.45-15.92h0l-.68-2.08a6.66,6.66,0,0,0-6.35-4.61,7.36,7.36,0,0,0-.82.06c-1.23-6.8-3.65-9.49-6.14-10.63a.62.62,0,0,0-.71,1,12.55,12.55,0,0,1,3.15,5.12,18.69,18.69,0,0,1,.77,5.34l-1.26.41a6.7,6.7,0,0,0-4.28,8.43l1.51,4.62a6.67,6.67,0,0,0,6.35,4.62,6.94,6.94,0,0,0,2.07-.33l2.93-1a6.66,6.66,0,0,0,2.52-1.5l4.18,12.83-4.71,13.59a69.06,69.06,0,0,0-3.34,24.26v.12l10.21-31.32,10.2,31.32v-.12a69.06,69.06,0,0,0-3.34-24.26l-4.68-13.68L266,333.1a6.57,6.57,0,0,0,2.61,1.59l2.93,1a6.68,6.68,0,0,0,8.43-4.29l1.5-4.62A6.7,6.7,0,0,0,277.15,318.31Zm-27,13.95-2.93,1a4.59,4.59,0,0,1-1.4.22,4.52,4.52,0,0,1-4.29-3.11l-1.5-4.63a4.49,4.49,0,0,1,2.89-5.68l2.93-1a4.51,4.51,0,0,1,5.68,2.89l1.51,4.63A4.5,4.5,0,0,1,250.17,332.26Zm29.2-6.19-1.51,4.62a4.5,4.5,0,0,1-4.29,3.11,4.59,4.59,0,0,1-1.4-.22l-2.93-.95a4.52,4.52,0,0,1-2.89-5.69l1.51-4.62a4.5,4.5,0,0,1,4.28-3.12,4.24,4.24,0,0,1,1.4.23l2.94.95A4.52,4.52,0,0,1,279.37,326.07Z" transform="translate(-0.35 0.14)"/></g><path class="cls-21" d="M219.26,343.69c-.56,0-.68-.84-.92-2.73a17.6,17.6,0,0,0-.29-1.89c-.11.47-.21,1.29-.28,1.89-.23,1.89-.36,2.73-.91,2.73s-.68-.84-.91-2.73c-.08-.59-.18-1.41-.29-1.88-.11.47-.21,1.29-.28,1.88-.23,1.89-.36,2.73-.91,2.73s-.68-.84-.91-2.73c-.07-.59-.17-1.41-.28-1.88A17.39,17.39,0,0,0,213,341c-.23,1.89-.35,2.73-.91,2.73s-.68-.84-.91-2.73c-.07-.59-.17-1.41-.28-1.88-.11.47-.21,1.28-.29,1.88-.23,1.89-.35,2.73-.9,2.73s-.68-.84-.91-2.73a9.54,9.54,0,0,0-.41-2.22.17.17,0,0,0,.12.05v-.63c.56,0,.68.83.91,2.72a17.39,17.39,0,0,0,.29,1.88c.11-.47.21-1.29.28-1.88.23-1.89.35-2.72.91-2.72s.68.83.91,2.72c.07.6.17,1.41.28,1.88.12-.47.21-1.28.29-1.88.23-1.89.35-2.72.91-2.72s.67.83.9,2.72c.08.6.18,1.41.29,1.88.11-.47.21-1.28.28-1.88.23-1.89.36-2.72.91-2.72s.68.83.91,2.72a17,17,0,0,0,.29,1.88c.11-.46.21-1.28.28-1.88.23-1.89.36-2.72.91-2.72s.69.83.92,2.72a17.6,17.6,0,0,0,.29,1.89c.11-.47.21-1.29.28-1.89.24-1.89.36-2.72.92-2.72v.63a.17.17,0,0,0,.12-.05,9.54,9.54,0,0,0-.41,2.22C219.94,342.85,219.81,343.69,219.26,343.69Z" transform="translate(-0.35 0.14)"/><path class="cls-21" d="M218.84,322,228,332.37H209.54s-6.3-8.21-6.3-15.56c0-2.33.77-8.19,5.86-8.19.74,0,1.37,0,1.91,0a.92.92,0,0,1,.55,1.63,9.25,9.25,0,0,0-2.89,6.19C208.5,321.7,215.79,322,218.84,322Z" transform="translate(-0.35 0.14)"/><path class="cls-51" d="M210.34,322l-9.18,10.38h18.48s6.3-8.21,6.3-15.56c0-2.33-.77-8.19-5.86-8.19-.89,0-1.62,0-2.22.05a.81.81,0,0,0-.43,1.46,9.12,9.12,0,0,1,3.08,6.34C220.68,321.7,213.39,322,210.34,322Z" transform="translate(-0.35 0.14)"/><path class="cls-52" d="M239.05,382.61l-.05,0a11.9,11.9,0,0,1-5.43-8.49l-.35-2.66c-1.43-11-7.09-15.91-12.18-25.74l-1.62-13.32H228l.11.21a95.38,95.38,0,0,1,10.92,44.31Z" transform="translate(-0.35 0.14)"/><path class="cls-50" d="M189.92,382.61l.05,0a11.86,11.86,0,0,0,5.42-8.49l.35-2.66c1.44-11,7.1-15.91,12.19-25.74l1.61-13.32H201l-.11.21a95.26,95.26,0,0,0-10.92,44.31Z" transform="translate(-0.35 0.14)"/><path class="cls-53" d="M216.85,326.85a2.37,2.37,0,1,1-2.37-2.37A2.38,2.38,0,0,1,216.85,326.85Z" transform="translate(-0.35 0.14)"/><path class="cls-51" d="M271.12,318.18a4.59,4.59,0,0,1,1.4.22l2.93,1a4.5,4.5,0,0,1,2.89,5.68l-1.51,4.63a4.51,4.51,0,0,1-5.68,2.89l-2.94-1a4.51,4.51,0,0,1-2.89-5.68l1.51-4.63a4.52,4.52,0,0,1,4.29-3.11Zm0-2.18h0a6.68,6.68,0,0,0-6.36,4.62l-1.5,4.62a6.7,6.7,0,0,0,4.28,8.43l2.93.95a6.69,6.69,0,0,0,8.43-4.28l1.51-4.63a6.69,6.69,0,0,0-4.29-8.42l-2.93-1a6.64,6.64,0,0,0-2.07-.33Z" transform="translate(-0.35 0.14)"/><path class="cls-51" d="M265.1,331.58l-1.42-7.64L251.8,358.22a68.83,68.83,0,0,0-3.33,24.26v.13Z" transform="translate(-0.35 0.14)"/><path class="cls-21" d="M246.24,317.81a4.51,4.51,0,0,1,4.29,3.12l1.5,4.62a4.51,4.51,0,0,1-2.89,5.69l-2.93.95a4.47,4.47,0,0,1-5.68-2.89L239,324.68a4.51,4.51,0,0,1,2.89-5.69l2.93-.95a4.32,4.32,0,0,1,1.4-.23Zm0-2.17a6.64,6.64,0,0,0-2.07.33l-2.93,1a6.69,6.69,0,0,0-4.29,8.42l1.51,4.63a6.66,6.66,0,0,0,6.35,4.61,6.59,6.59,0,0,0,2.07-.33l2.94-1a6.69,6.69,0,0,0,4.28-8.42l-1.51-4.63a6.66,6.66,0,0,0-6.35-4.61Z" transform="translate(-0.35 0.14)"/><path class="cls-21" d="M252.26,331.58l1-9.25,12.29,35.89a69.06,69.06,0,0,1,3.33,24.26v.13Z" transform="translate(-0.35 0.14)"/><path class="cls-21" d="M245.53,316.28l-3.09,1a15.91,15.91,0,0,0-.71-6.06,12.66,12.66,0,0,0-3.15-5.12.61.61,0,0,1,.7-1C241.85,306.24,244.33,309.05,245.53,316.28Z" transform="translate(-0.35 0.14)"/><path class="cls-53" d="M260,344.75a1.24,1.24,0,1,1-1.24-1.23A1.24,1.24,0,0,1,260,344.75Z" transform="translate(-0.35 0.14)"/><path class="cls-19" d="M131.78,261.41H120.46v-4.85a7.22,7.22,0,0,0-7.21-7.21H94.91a7.22,7.22,0,0,0-7.21,7.21v4.85H76.38A6.59,6.59,0,0,0,69.79,268v30.27a6.58,6.58,0,0,0,6.59,6.58h55.4a6.57,6.57,0,0,0,6.58-6.58V268A6.58,6.58,0,0,0,131.78,261.41Zm-40.46-4.85A3.59,3.59,0,0,1,94.91,253h18.34a3.59,3.59,0,0,1,3.59,3.59v4.85H91.32Z" transform="translate(-0.35 0.14)"/><path class="cls-21" d="M112.23,273.2H93.88a7.22,7.22,0,0,1-7.21-7.2V255.53a7.22,7.22,0,0,1,7.21-7.2h18.35a7.21,7.21,0,0,1,7.2,7.2V266A7.21,7.21,0,0,1,112.23,273.2ZM93.88,251.94a3.59,3.59,0,0,0-3.59,3.59V266a3.59,3.59,0,0,0,3.59,3.58h18.35a3.59,3.59,0,0,0,3.59-3.58V255.53a3.59,3.59,0,0,0-3.59-3.59Z" transform="translate(-0.35 0.14)"/><rect class="cls-20" x="68.42" y="260.53" width="68.57" height="43.43" rx="6.41"/><rect class="cls-54" x="68.42" y="260.53" width="68.57" height="43.43" rx="6.41"/><rect class="cls-20" x="83.14" y="249.62" width="39.82" height="64.95" rx="4.25" transform="translate(384.81 179.19) rotate(90)"/><path class="cls-21" d="M98.62,269.45a4.51,4.51,0,0,0-2.19,3.18c-.12.55,2.19.27,2.19.27Z" transform="translate(-0.35 0.14)"/><path class="cls-21" d="M83.29,292.87a1.66,1.66,0,0,1-1.63,1.89H74.89s.16-1.6,2.59-1.37c4.9.45,5.64-1.83,5.64-1.83Z" transform="translate(-0.35 0.14)"/><path class="cls-21" d="M92.06,278.69c-1.5.64-9.3,8.13-9.28,11.69a8.6,8.6,0,0,0,.65,3.52,1.48,1.48,0,0,0,1.34.86h7.09s.45-1-.4-1.32a12.66,12.66,0,0,0-3.54-.16,2.38,2.38,0,0,0,2.45-.92,2.16,2.16,0,0,0,.24-2.46l3-2.31.3,5.11.8,2.06h2s.2-1-.35-1.22-.9-1.48-.9-1.48l.75-4.32.4-2c1.12-1.2,1.08-.49,1.93-2.62l1.21-4.25a11.83,11.83,0,0,0-.1-2.62s1.46-.08,2.19-.14.85-.36.85-.36,1.09-1.2.94-1.51-1.29-.5-2.12-.92c-.24-.12-.55-.91-1.13-1.29l-1.75-.69a5.58,5.58,0,0,0-1.82.86,2.51,2.51,0,0,0-1.1,1.42C95.6,273.78,93.84,277.93,92.06,278.69Z" transform="translate(-0.35 0.14)"/><path class="cls-55" d="M131.56,282.1a12.66,12.66,0,1,1-12.65-12.65A12.65,12.65,0,0,1,131.56,282.1Z" transform="translate(-0.35 0.14)"/><rect class="cls-21" x="116" y="273.87" width="5.12" height="16.75"/><rect class="cls-21" x="116.35" y="273.73" width="5.12" height="16.75" transform="translate(-163.54 401.15) rotate(-90)"/><path class="cls-21" d="M202.75,413.49a6,6,0,0,1,4.26,1.88l-1.79,2a3.38,3.38,0,0,0-2.42-1.08c-2,0-3.57,1.74-3.57,4.63s1.39,4.68,3.48,4.68a3.52,3.52,0,0,0,2.73-1.28l1.79,2a5.87,5.87,0,0,1-4.57,2.12c-3.72,0-6.76-2.54-6.76-7.37S199.05,413.49,202.75,413.49Z" transform="translate(-0.35 0.14)"/><path class="cls-21" d="M216.14,424.71h-4.41l-.89,3.42h-3.3l4.52-14.37h3.88l4.52,14.37H217Zm-.66-2.53-.36-1.32c-.39-1.44-.77-3.13-1.17-4.63h-.08c-.33,1.52-.73,3.19-1.13,4.63l-.35,1.32Z" transform="translate(-0.35 0.14)"/><path class="cls-21" d="M229.74,428.13,227,423h-1.76v5.18H222V413.76h5.18c3,0,5.55,1.06,5.55,4.47a4.24,4.24,0,0,1-2.55,4.15l3.24,5.75Zm-4.52-7.76h1.65c1.7,0,2.63-.73,2.63-2.14s-.93-1.89-2.63-1.89h-1.65Z" transform="translate(-0.35 0.14)"/><path class="cls-21" d="M235.51,413.76h9v2.73h-5.75v2.89h4.89v2.71h-4.89v3.31h6v2.73h-9.24Z" transform="translate(-0.35 0.14)"/></g></g></svg>