<svg xmlns="http://www.w3.org/2000/svg" viewBox="0 0 449.44 449.49"><defs><style>.cls-1{isolation:isolate;}.cls-2{fill:#edb551;}.cls-3{fill:#737373;opacity:0.39;mix-blend-mode:color-burn;}.cls-18,.cls-4,.cls-9{opacity:0.7;}.cls-5{fill:#fff;}.cls-18,.cls-6,.cls-8,.cls-9{fill:gray;}.cls-10,.cls-11,.cls-12,.cls-13,.cls-14,.cls-15,.cls-16,.cls-17,.cls-6,.cls-9{fill-rule:evenodd;}.cls-6,.cls-7{opacity:0.65;mix-blend-mode:color-dodge;}.cls-18,.cls-19,.cls-21,.cls-22,.cls-23,.cls-30,.cls-46,.cls-9{mix-blend-mode:multiply;}.cls-10{fill:#b3b3b3;}.cls-11{fill:#ededed;}.cls-12{fill:#cfcfcf;}.cls-13,.cls-47{fill:#664b37;}.cls-14,.cls-33{fill:#423123;}.cls-15{fill:#613d27;}.cls-16{fill:#80553b;}.cls-17{fill:#966548;}.cls-19{fill:#d1d1d1;}.cls-20{fill:#30b0a9;}.cls-21{fill:#adadad;opacity:0.79;}.cls-22{fill:#bebebe;}.cls-22,.cls-23{opacity:0.53;}.cls-23{fill:#be944a;}.cls-24{fill:#96694b;}.cls-25{fill:#704f38;}.cls-26{fill:#dab696;}.cls-27{fill:#362e27;}.cls-28{fill:#ebebeb;}.cls-29{fill:#d3d3d3;}.cls-31{fill:#dbdbdb;}.cls-32{fill:#e05728;}.cls-34{fill:#238c85;}.cls-35{fill:#3cdbd2;}.cls-36{fill:#664e49;}.cls-37{fill:#d9d9d9;}.cls-38{fill:#d48a55;}.cls-39{fill:#edd7c6;}.cls-40{fill:#a3673f;}.cls-41{fill:#f0f0f0;}.cls-42{fill:#f7f7f7;}.cls-43{fill:#7a4d2f;}.cls-44{fill:#7db0ad;}.cls-45{fill:#5768de;}.cls-46{fill:#b8b8b8;}.cls-48{fill:#b5431d;}</style></defs><title>2</title><g class="cls-1"><g id="Layer_3" data-name="Layer 3"><rect class="cls-2" width="449.44" height="449.49"/><path class="cls-3" d="M365.79,240.85a141,141,0,1,0-257.2,80H341A140.44,140.44,0,0,0,365.79,240.85Z" transform="translate(0 -0.51)"/><g class="cls-4"><path class="cls-5" d="M105.49,327.56h-3a.9.9,0,0,1-.75-.39c-.58-.84-1.15-1.69-1.71-2.54a.91.91,0,1,1,1.52-1c.47.71,1,1.41,1.43,2.11h2.56a.92.92,0,1,1,0,1.83Z" transform="translate(0 -0.51)"/><path class="cls-5" d="M337.94,327.56h-6.12a.92.92,0,1,1,0-1.83h6.12a.92.92,0,0,1,0,1.83Zm-12.24,0h-6.11a.92.92,0,1,1,0-1.83h6.11a.92.92,0,1,1,0,1.83Zm-12.23,0h-6.12a.92.92,0,0,1,0-1.83h6.12a.92.92,0,0,1,0,1.83Zm-12.24,0h-6.11a.92.92,0,1,1,0-1.83h6.11a.92.92,0,1,1,0,1.83Zm-12.23,0h-6.12a.92.92,0,0,1,0-1.83H289a.92.92,0,1,1,0,1.83Zm-12.23,0h-6.12a.92.92,0,0,1,0-1.83h6.12a.92.92,0,0,1,0,1.83Zm-12.24,0h-6.11a.92.92,0,1,1,0-1.83h6.11a.92.92,0,1,1,0,1.83Zm-12.23,0h-6.12a.92.92,0,0,1,0-1.83h6.12a.92.92,0,0,1,0,1.83Zm-12.23,0H234a.92.92,0,1,1,0-1.83h6.12a.92.92,0,0,1,0,1.83Zm-12.24,0h-6.12a.92.92,0,0,1,0-1.83h6.12a.92.92,0,1,1,0,1.83Zm-12.23,0h-6.12a.92.92,0,0,1,0-1.83h6.12a.92.92,0,0,1,0,1.83Zm-12.24,0h-6.11a.92.92,0,1,1,0-1.83h6.11a.92.92,0,1,1,0,1.83Zm-12.23,0H185a.92.92,0,0,1,0-1.83h6.12a.92.92,0,0,1,0,1.83Zm-12.23,0h-6.12a.92.92,0,1,1,0-1.83h6.12a.92.92,0,0,1,0,1.83Zm-12.24,0h-6.11a.92.92,0,1,1,0-1.83h6.11a.92.92,0,1,1,0,1.83Zm-12.23,0h-6.12a.92.92,0,0,1,0-1.83h6.12a.92.92,0,0,1,0,1.83Zm-12.24,0h-6.11a.92.92,0,1,1,0-1.83h6.11a.92.92,0,1,1,0,1.83Zm-12.23,0h-6.12a.92.92,0,0,1,0-1.83H130a.92.92,0,1,1,0,1.83Zm-12.23,0h-6.12a.92.92,0,1,1,0-1.83h6.12a.92.92,0,0,1,0,1.83Z" transform="translate(0 -0.51)"/><path class="cls-5" d="M347.1,327.56h-3.05a.92.92,0,0,1,0-1.83h2.57c.48-.7.95-1.4,1.42-2.11a.92.92,0,1,1,1.53,1c-.56.85-1.13,1.7-1.71,2.54A.92.92,0,0,1,347.1,327.56Z" transform="translate(0 -0.51)"/><path class="cls-5" d="M352.05,319.89a.9.9,0,0,1-.47-.13.92.92,0,0,1-.31-1.26c1-1.72,2.05-3.48,3-5.24a.92.92,0,1,1,1.61.88c-1,1.78-2,3.56-3.05,5.31A.94.94,0,0,1,352.05,319.89ZM97.4,319.74a.9.9,0,0,1-.78-.45c-1.05-1.74-2.07-3.53-3.05-5.32a.92.92,0,1,1,1.61-.87c1,1.76,2,3.53,3,5.25a.93.93,0,0,1-.79,1.39Zm260.5-10.53a1,1,0,0,1-.41-.09.93.93,0,0,1-.41-1.23c.89-1.79,1.75-3.63,2.57-5.47a.93.93,0,0,1,1.21-.47.92.92,0,0,1,.46,1.21c-.83,1.86-1.7,3.73-2.6,5.54A.9.9,0,0,1,357.9,309.21Zm-266.33-.16a.92.92,0,0,1-.82-.51c-.9-1.82-1.78-3.69-2.6-5.55a.92.92,0,0,1,.46-1.21.93.93,0,0,1,1.21.47c.81,1.84,1.68,3.68,2.57,5.48A.92.92,0,0,1,92,309,.85.85,0,0,1,91.57,309.05Zm271.28-11a1,1,0,0,1-.34-.06.91.91,0,0,1-.51-1.19c.74-1.87,1.45-3.77,2.11-5.67a.91.91,0,0,1,1.17-.56.92.92,0,0,1,.56,1.16c-.67,1.92-1.39,3.85-2.14,5.74A.92.92,0,0,1,362.85,298.09Zm-276.22-.17a.91.91,0,0,1-.85-.58c-.75-1.89-1.47-3.83-2.14-5.75a.91.91,0,0,1,.57-1.16.9.9,0,0,1,1.16.56c.66,1.9,1.37,3.81,2.11,5.67a.92.92,0,0,1-.52,1.19A.78.78,0,0,1,86.63,297.92ZM366.87,286.6a.84.84,0,0,1-.27,0,.92.92,0,0,1-.61-1.14c.59-1.93,1.14-3.89,1.64-5.82a.91.91,0,1,1,1.77.45c-.51,2-1.07,3.95-1.66,5.9A.91.91,0,0,1,366.87,286.6Zm-284.25-.19a.91.91,0,0,1-.87-.65c-.59-1.94-1.14-3.93-1.65-5.9a.91.91,0,0,1,1.77-.45c.5,1.94,1,3.9,1.63,5.82a.91.91,0,0,1-.61,1.14A.84.84,0,0,1,82.62,286.41Zm287.3-11.59-.2,0a.93.93,0,0,1-.7-1.09c.43-2,.82-4,1.16-5.94a.9.9,0,0,1,1.05-.74.91.91,0,0,1,.75,1.05c-.35,2-.74,4-1.17,6A.92.92,0,0,1,369.92,274.82Zm-290.34-.2a.91.91,0,0,1-.89-.72c-.42-2-.81-4-1.16-6a.92.92,0,0,1,.75-1.06.9.9,0,0,1,1,.75c.35,2,.73,4,1.15,5.94a.92.92,0,0,1-.7,1.09ZM372,262.82h-.12a.93.93,0,0,1-.79-1c.26-2,.49-4,.66-6a.94.94,0,0,1,1-.83.92.92,0,0,1,.83,1c-.18,2-.41,4.07-.67,6.09A.92.92,0,0,1,372,262.82Zm-294.46-.2a.92.92,0,0,1-.91-.8c-.26-2-.48-4.07-.66-6.09a.93.93,0,0,1,.83-1,.91.91,0,0,1,1,.84c.18,2,.4,4,.66,6a.93.93,0,0,1-.79,1ZM373.08,250.7H373a.91.91,0,0,1-.87-1c.1-2,.15-4,.17-6.05a.91.91,0,0,1,.92-.9h0a.91.91,0,0,1,.91.92c0,2-.07,4.09-.17,6.12A.92.92,0,0,1,373.08,250.7Zm-296.62-.22a.91.91,0,0,1-.91-.87c-.1-2-.15-4.08-.17-6.12a.93.93,0,0,1,.91-.93h0a.91.91,0,0,1,.91.91c0,2,.07,4.06.17,6.05a.92.92,0,0,1-.88,1Zm296.71-11.95a.92.92,0,0,1-.91-.89c-.06-2-.17-4-.32-6a.93.93,0,0,1,.85-1,.94.94,0,0,1,1,.85c.14,2,.25,4.08.32,6.11a.92.92,0,0,1-.89.95ZM76.38,238.3h0a.91.91,0,0,1-.88-.94c.06-2,.17-4.1.33-6.12a.89.89,0,0,1,1-.84.9.9,0,0,1,.84,1c-.15,2-.26,4-.33,6A.91.91,0,0,1,76.38,238.3Zm295.91-11.91a.92.92,0,0,1-.91-.81c-.23-2-.5-4-.81-6a.92.92,0,0,1,.77-1,.91.91,0,0,1,1,.76c.31,2,.59,4,.82,6.07a.91.91,0,0,1-.81,1Zm-295-.23h-.1a.93.93,0,0,1-.81-1c.24-2,.52-4.07.83-6.07a.92.92,0,0,1,1.81.29c-.31,2-.59,4-.82,6A.91.91,0,0,1,77.28,226.16Zm293.14-11.8a.92.92,0,0,1-.9-.73c-.39-2-.83-3.95-1.3-5.91a.92.92,0,1,1,1.78-.43c.48,2,.92,4,1.31,6a.9.9,0,0,1-.72,1.07A.5.5,0,0,1,370.42,214.36Zm-291.25-.22-.18,0a.91.91,0,0,1-.71-1.08c.39-2,.84-4,1.32-6a.92.92,0,0,1,1.78.44c-.48,1.95-.92,3.94-1.31,5.9A.92.92,0,0,1,79.17,214.14Zm288.39-11.61a.92.92,0,0,1-.88-.66c-.55-1.93-1.15-3.87-1.78-5.79a.91.91,0,0,1,.58-1.15.92.92,0,0,1,1.16.58c.64,1.94,1.25,3.91,1.8,5.85a.91.91,0,0,1-.63,1.13A.73.73,0,0,1,367.56,202.53Zm-285.51-.22a.78.78,0,0,1-.26,0,.91.91,0,0,1-.62-1.13c.56-1.95,1.17-3.92,1.81-5.85a.92.92,0,0,1,1.74.58c-.64,1.9-1.24,3.85-1.79,5.78A.92.92,0,0,1,82.05,202.31ZM363.73,191a.91.91,0,0,1-.85-.6c-.71-1.87-1.47-3.76-2.26-5.62a.91.91,0,0,1,1.68-.72c.8,1.88,1.57,3.8,2.29,5.7a.92.92,0,0,1-.53,1.18A1,1,0,0,1,363.73,191Zm-277.84-.2a.87.87,0,0,1-.32-.06.91.91,0,0,1-.54-1.18c.72-1.9,1.49-3.81,2.28-5.67a.92.92,0,0,1,1.69.72c-.79,1.84-1.54,3.72-2.26,5.6A.91.91,0,0,1,85.89,190.76Zm273.07-11a.92.92,0,0,1-.83-.52c-.87-1.83-1.78-3.65-2.71-5.42a.91.91,0,0,1,.38-1.24.92.92,0,0,1,1.24.39c.94,1.79,1.87,3.64,2.74,5.48a.91.91,0,0,1-.43,1.22A.92.92,0,0,1,359,179.73Zm-268.31-.14a.92.92,0,0,1-.39-.09.91.91,0,0,1-.43-1.22c.87-1.82,1.79-3.66,2.74-5.46a.91.91,0,0,1,1.62.85c-.94,1.78-1.85,3.6-2.71,5.4A.91.91,0,0,1,90.65,179.59Zm262.63-10.65a.92.92,0,0,1-.8-.45c-1-1.74-2.06-3.48-3.14-5.18a.91.91,0,1,1,1.54-1c1.1,1.72,2.17,3.48,3.19,5.24a.93.93,0,0,1-.33,1.25A1,1,0,0,1,353.28,168.94Zm-257-.09a.89.89,0,0,1-.46-.13.92.92,0,0,1-.33-1.25c1-1.76,2.1-3.52,3.19-5.22a.91.91,0,1,1,1.54,1c-1.08,1.69-2.13,3.42-3.14,5.16A.93.93,0,0,1,96.32,168.85Zm250.41-10.19a.92.92,0,0,1-.75-.39c-1.15-1.65-2.35-3.3-3.56-4.9a.92.92,0,0,1,1.46-1.11c1.23,1.62,2.44,3.29,3.6,5a.92.92,0,0,1-.22,1.28A.94.94,0,0,1,346.73,158.66Zm-243.87-.06a.92.92,0,0,1-.52-.17.91.91,0,0,1-.23-1.27c1.16-1.67,2.37-3.33,3.6-4.95a.91.91,0,0,1,1.46,1.1c-1.22,1.6-2.41,3.25-3.56,4.89A.91.91,0,0,1,102.86,158.6ZM339.37,149a.91.91,0,0,1-.7-.34c-1.28-1.55-2.61-3.09-3.95-4.59a.91.91,0,0,1,1.36-1.22c1.36,1.52,2.7,3.08,4,4.65a.92.92,0,0,1-.13,1.29A.9.9,0,0,1,339.37,149Zm-229.16-.05a.91.91,0,0,1-.7-1.5c1.29-1.56,2.63-3.12,4-4.64a.91.91,0,0,1,1.36,1.22c-1.34,1.5-2.67,3-3.94,4.59A.94.94,0,0,1,110.21,148.91Zm221-9a.94.94,0,0,1-.66-.28c-1.4-1.44-2.85-2.87-4.3-4.25a.92.92,0,1,1,1.26-1.33c1.47,1.39,2.93,2.84,4.35,4.3a.92.92,0,0,1,0,1.3A.93.93,0,0,1,331.25,139.89Zm-212.91,0a.92.92,0,0,1-.66-1.56c1.42-1.45,2.89-2.9,4.36-4.3a.92.92,0,1,1,1.26,1.33c-1.46,1.38-2.91,2.81-4.31,4.25A.92.92,0,0,1,118.34,139.85Zm204.08-8.34a.89.89,0,0,1-.6-.22c-1.51-1.32-3.07-2.63-4.64-3.89a.92.92,0,0,1,1.15-1.43c1.58,1.28,3.16,2.6,4.69,3.94a.92.92,0,0,1,.09,1.29A.91.91,0,0,1,322.42,131.51Zm-195.25,0a.89.89,0,0,1-.68-.31.91.91,0,0,1,.08-1.29c1.53-1.34,3.11-2.66,4.7-3.94a.92.92,0,1,1,1.15,1.43c-1.57,1.26-3.13,2.57-4.64,3.89A.94.94,0,0,1,127.17,131.47Zm185.77-7.58a1,1,0,0,1-.55-.18c-1.6-1.19-3.26-2.37-4.93-3.49a.92.92,0,0,1,1-1.52c1.68,1.14,3.36,2.33,5,3.54a.92.92,0,0,1-.54,1.65Zm-176.27,0a.9.9,0,0,1-.74-.37.92.92,0,0,1,.19-1.28c1.64-1.21,3.33-2.4,5-3.54a.92.92,0,0,1,1,1.52c-1.67,1.12-3.33,2.3-4.95,3.49A.84.84,0,0,1,136.67,123.84Zm166.2-6.78a.94.94,0,0,1-.48-.13c-1.7-1.06-3.45-2.09-5.2-3.08a.93.93,0,0,1-.35-1.25.92.92,0,0,1,1.25-.34c1.77,1,3.54,2,5.26,3.11a.91.91,0,0,1,.3,1.26A.9.9,0,0,1,302.87,117.06Zm-156.11,0a.91.91,0,0,1-.48-1.69c1.73-1.08,3.51-2.12,5.28-3.12a.91.91,0,1,1,.89,1.59c-1.74,1-3.49,2-5.21,3.09A.94.94,0,0,1,146.76,117Zm145.53-5.92a.92.92,0,0,1-.42-.1c-1.78-.91-3.6-1.8-5.43-2.64a.91.91,0,0,1,.77-1.66c1.85.85,3.7,1.75,5.5,2.67a.92.92,0,0,1-.42,1.73ZM157.38,111a.91.91,0,0,1-.42-1.73c1.81-.92,3.67-1.82,5.52-2.68a.92.92,0,0,1,.77,1.67c-1.83.84-3.67,1.73-5.46,2.64A.86.86,0,0,1,157.38,111Zm123.88-5a.87.87,0,0,1-.35-.07c-1.86-.76-3.76-1.5-5.64-2.19a.91.91,0,0,1,.63-1.71c1.9.69,3.83,1.43,5.71,2.21a.91.91,0,0,1-.35,1.76Zm-112.8-.07a.93.93,0,0,1-.85-.57.92.92,0,0,1,.5-1.19c1.89-.77,3.81-1.52,5.73-2.21a.9.9,0,0,1,1.17.54.93.93,0,0,1-.54,1.18c-1.9.68-3.8,1.42-5.66,2.18A.87.87,0,0,1,168.46,105.94Zm101.36-4.1a.84.84,0,0,1-.27,0c-1.92-.61-3.87-1.18-5.81-1.71a.92.92,0,1,1,.49-1.77c2,.54,3.93,1.12,5.87,1.74a.91.91,0,0,1-.28,1.78Zm-89.89-.06a.92.92,0,0,1-.27-1.79c1.94-.61,3.92-1.2,5.87-1.73A.92.92,0,1,1,186,100c-1.93.52-3.88,1.1-5.8,1.71A1.35,1.35,0,0,1,179.93,101.78Zm78.15-3.14a.69.69,0,0,1-.2,0c-2-.44-3.95-.86-5.93-1.22a.93.93,0,0,1-.73-1.07.91.91,0,0,1,1.07-.73c2,.37,4,.79,6,1.24a.92.92,0,0,1-.21,1.81Zm-66.4,0a.92.92,0,0,1-.2-1.81c2-.45,4-.86,6-1.24a.92.92,0,0,1,.33,1.8c-2,.37-4,.78-5.93,1.23Zm54.44-2.18H246c-2-.29-4-.54-6-.74a.91.91,0,0,1,.19-1.82c2,.21,4.07.46,6.08.75a.92.92,0,0,1-.13,1.82Zm-42.47,0a.92.92,0,0,1-.91-.79.91.91,0,0,1,.78-1c2-.29,4.06-.54,6.08-.74a.89.89,0,0,1,1,.82.91.91,0,0,1-.82,1c-2,.2-4,.45-6,.73ZM234,95.17H234c-2-.13-4-.21-6-.25a.92.92,0,0,1,0-1.83h0c2,0,4.09.13,6.12.25a.92.92,0,0,1-.06,1.83Zm-18.25,0a.91.91,0,0,1-.91-.87.9.9,0,0,1,.85-1c2-.12,4.09-.21,6.12-.24a.91.91,0,1,1,0,1.82c-2,0-4,.12-6.05.24Z" transform="translate(0 -0.51)"/></g><path class="cls-6" d="M133.28,98.6c1,3.47-2.23,5.31-3.92,1.85a4.36,4.36,0,0,0,.32,1.29c1.16,2.71,4.06,4.18,6.48,5.58a13.09,13.09,0,0,0,.57,3.59c.15.69.15,1.58.25,2.28.21,1.47.58,2.74.4,3.19-.11.26-.75.17-1,.22-.73.13-1.77.63-2.39.19-.26-1.41.53-1.42,1.77-1.89-.21-1.69-.2-3-1.26-4.43-1.7-2.32-4.3-3.51-7.08-5-2.43-1.34-3.35-1.81-4.58-5.26a11.32,11.32,0,0,0-2.37-4.36,6.22,6.22,0,0,0-4.15-1.27c-5.7,0-8.17,6.75-14.79,3.55-.26.8-.28.87.1,2.26a7.83,7.83,0,0,0-.85,3.64c0,1.26-.05,3.7-.13,5.79a10.35,10.35,0,0,1-.25,3.11c-.2.43-.54.1-.72.41a9.89,9.89,0,0,0-.16,2c-.12,1.85-.75,1.2-1.58,1.25a5.69,5.69,0,0,1-1.85.16c-.25-.06-.6-.24-.59-.46,0-1.38,1-1.57,2.24-1.33l.26-1.45a38.26,38.26,0,0,0,.12-5.89c-.07-2.47-.18-4.26-.29-6-.08-1.27-.09-1.65-.13-2.48l-.88-1.65a16.06,16.06,0,0,1-.77-3.1c-.33-1-1-1.37-1.19-2.2s-.1-2.11-.36-3.22a15.66,15.66,0,0,1-.7-2.08c-.34-1.61-.93-5.61-1.26-6.34-.63-1.43-1.58-1.91-3.19-2.65a3.46,3.46,0,0,1-1-.62c-.29-.3-.35-.47-.63-.62s-.57-.14-1-.32-.7-.5-.82-1.24c-.39-.43-.35-.72-.27-1.28-.12-.38-.25-.72,0-.79A4.92,4.92,0,0,1,87,73c.6.08,1.24.21,1.92.33a5.32,5.32,0,0,0,1.92.06,1.63,1.63,0,0,1,1.74-.5,16.56,16.56,0,0,1,2,.4c.3.22.27.26.16.49-.56,1.16-.82,1.81-.39,2.43.2.31.94.31,1.25.12a2.62,2.62,0,0,0,.85-2.16c-.05-.21-.2-.34-.54-.34a.46.46,0,0,1-.32-.15l.08,0,.35-.12c.22,0,.49-.11.65.09h0c.53.78,1.06.24,1.23.77a2.59,2.59,0,0,1,.09.4A2.44,2.44,0,0,1,97.4,77a.4.4,0,0,1-.16.08c.57,1.35,1.4,2.67,1.81,3.65.7,1.71,1,3,2.34,3.88a14.22,14.22,0,0,0,3.28.79,13.68,13.68,0,0,0,4,.74c5.35-.26,9.6-.38,14.16,1.57,3.73,1.59,5.86,3.31,6.36,7.2a18.94,18.94,0,0,1,.14,2.38,11.1,11.1,0,0,0,1,2.77C131.22,101.59,132.66,102.06,133.28,98.6Z" transform="translate(0 -0.51)"/><g class="cls-7"><path class="cls-8" d="M47.91,250.06a1.36,1.36,0,0,1-1.14-.31,1.33,1.33,0,0,1-.5-1.07l-1.69-1.42a3.45,3.45,0,0,1-.78-.93,58.48,58.48,0,0,1-8.13,6.9c-3.15,2.14-5.75,3.12-7.25,2.59l-.21-.09a2.36,2.36,0,0,1-.35-.23h0l6.94,5.84c2.25,1.88,8.76-2,15.84-9a2.77,2.77,0,0,1-.45-.31ZM43,254.78a1.29,1.29,0,0,1-1.82.06,1.22,1.22,0,1,1,1.82-.06Z" transform="translate(0 -0.51)"/><path class="cls-8" d="M53.58,239.17l-1-.89L47.3,244.5l5.13,4.32,5.22-6.22-1.14-1-3.16,3.78a2,2,0,0,1-1.31.67,2,2,0,0,1-1.4-.44,1.93,1.93,0,0,1-.23-2.71Z" transform="translate(0 -0.51)"/><path class="cls-8" d="M67,223l-6.93-5.83a2.16,2.16,0,0,1,.29.31,3.81,3.81,0,0,1,.23.4v0a3.37,3.37,0,0,1,.18.61,5.48,5.48,0,0,1,.06.61.27.27,0,0,0,0,.09,9.42,9.42,0,0,1-.19,1.79c0,.13-.06.29-.1.43s0,.06,0,.09-.07.24-.11.37-.11.39-.17.59a1.09,1.09,0,0,0,0,.17,2.09,2.09,0,0,0-.08.23,3.52,3.52,0,0,1-.15.42l-.06.19-.18.44c0,.11-.08.22-.13.33s-.09.21-.14.32-.19.46-.29.68a59,59,0,0,1-5.47,9.27,3.43,3.43,0,0,1,1,.61l1.42,1.19a2,2,0,0,1,.68-.2,1.88,1.88,0,0,1,1.4.45,1.91,1.91,0,0,1,.6,2l1.5,1.26a3.59,3.59,0,0,1,.39.39q1.42-2,2.58-3.92l-1-7.14,1.8,5.8C67.52,229.11,68.79,224.46,67,223Z" transform="translate(0 -0.51)"/><path class="cls-8" d="M36.38,251.76a75.07,75.07,0,0,1,9.45-13.87A75.6,75.6,0,0,1,57.88,226.2c2.21-4.48,2.72-7.57,1.71-8.42-1.87-1.57-10.41,3.29-20.07,14.79s-13,20.73-11.14,22.3C29.39,255.72,32.35,254.7,36.38,251.76Z" transform="translate(0 -0.51)"/><path class="cls-8" d="M58.29,239.54l-1,1.25,1.38,1.15a.81.81,0,0,1,.09,1.15l-5.62,6.68a.82.82,0,0,1-1.15.1l-5.59-4.71a.81.81,0,0,1-.1-1.15l5.62-6.68a.81.81,0,0,1,1.15-.1l1.28,1.08,1.05-1.24L54.06,236a2.44,2.44,0,0,0-3.43.3L45,243a2.45,2.45,0,0,0,.3,3.44l5.59,4.71a2.45,2.45,0,0,0,3.44-.29L60,244.13a2.44,2.44,0,0,0-.3-3.43Z" transform="translate(0 -0.51)"/><path class="cls-8" d="M57.56,237.42a.81.81,0,0,0-1.13.1l-5.16,6.14a.8.8,0,1,0,1.22,1l5.17-6.14A.81.81,0,0,0,57.56,237.42Z" transform="translate(0 -0.51)"/></g><g class="cls-7"><path class="cls-8" d="M348.34,93.46A1.43,1.43,0,0,0,347,92.2H303.71a1.45,1.45,0,0,0-1.4,1.26l-1.56,14.43a1.11,1.11,0,0,0,1.12,1.26h46.85a1.12,1.12,0,0,0,1.13-1.26ZM331.74,102a1.64,1.64,0,0,1-1.63,1.64,1.67,1.67,0,0,1-1.63-1.39h-6.37a1.64,1.64,0,0,1-3.26-.25,1.63,1.63,0,0,1,.64-1.3,1.64,1.64,0,1,1,2.63-1.48h6.35a1.64,1.64,0,0,1,3.27.18,1.63,1.63,0,0,1-.64,1.3A1.63,1.63,0,0,1,331.74,102Z" transform="translate(0 -0.51)"/><path class="cls-8" d="M343,89c-.87-1-1.34-.48-2.53-.4-.46.09-1.57.16-2-.23-.15-.24.16-.79,0-1.11a2.5,2.5,0,0,0-2.2-1.18c-.47.16-1.1,1.5-2,.4-.4-.4.07-1.11-.56-1.74-.86-.86-2.05-.32-3.15-.55.31-1.58-3.46-2.52-4.41-2-.47.16-.07.79-.71.87s-1-.87-1.5-1c-.78-.09-3.62.78-3.85,1.18-.56.79.46,1.89-.56,2.6-.55-.4-.94-1.11-1.58-1.27a3.44,3.44,0,0,0-2.44.79c-.32.48.17,1.11-.54,1.51s-1.66-.72-2.53-.09c-.47.4-.55,1.58-1.26,1.74-.4.07-1-.63-1.42-.63-.74,0-1.83,1.3-2.63,2.52h36.27A1.79,1.79,0,0,0,343,89Z" transform="translate(0 -0.51)"/></g><g class="cls-7"><path class="cls-8" d="M390.85,222.85l-.09-1.88-.77-1.12-.58-1.47-.75-.49.27-3.12-.41-1-.76.69.05-.72-.52-.47-2.1,3.57.23.88h-1.74l-1.94,1.53-3.54.16-.83,0v1.61l1.09,2-.06.46,1.82,1.57,3.23.31,0,.2-.85,3.11h.73l8.5-4Zm-12.75-2-.49.24v-1.44l1,0Zm5.91-.74a.5.5,0,1,1,.5-.5A.5.5,0,0,1,384,220.11Z" transform="translate(0 -0.51)"/><polygon class="cls-8" points="406.92 258.74 404.07 260.14 388.33 260.14 388.33 259.36 388.84 258.02 390.33 257.68 391.75 258.07 395.18 257.26 390.59 254.6 390.29 252.98 391.06 251.22 392.69 249.17 394.92 248.61 400.57 250.63 395.52 247.8 392.57 248.36 390.25 250.54 388.56 249.12 388.11 254.41 386.93 257.64 387.3 257.87 386.79 258.15 386.79 258.7 386.39 258.7 386.05 260.14 380.85 260.14 380.75 259.74 381.31 258.63 381.74 258.63 382.98 258.29 384.35 253.96 383.96 243.9 382.18 240.68 381.71 237.38 382.59 235.65 382.89 232.05 384.11 230.6 393.35 228 393.63 229.19 396.97 232.44 399.06 237.4 401.19 244.89 404.74 247.8 406.75 251.48 406.69 256.14 406.92 258.74"/><polygon class="cls-8" points="416.81 257.97 416.81 260.14 405.89 260.14 408 259.01 407.83 255.8 409.39 255.33 412.5 256.25 413.94 255.93 416.81 257.97"/><polygon class="cls-8" points="393.45 226.63 384.33 230.13 383.82 228.82 392.68 225 392.72 225.07 392.74 225.11 393.45 226.62 393.45 226.63"/></g><path class="cls-9" d="M285.35,99.39s0,0,0-.08v-.15h0c-.14-2.11-2.2-4.11-5.79-5.92a105.58,105.58,0,0,0-11.31-18.76,1.93,1.93,0,0,1,0,.24c0,4.89-14.43,9-34,10.22h0c19.58-1.22,34.06-5.34,34.06-10.22,0-2.83-4.89-5.41-12.83-7.31-.1-2-2.61-3.57-5.7-3.57a6.85,6.85,0,0,0-4.79,1.69l-.34,0a6.61,6.61,0,0,0-5.06-2,7.57,7.57,0,0,0-4,1.09l-1.25-.08a7,7,0,0,0-4.66-1.57,7.34,7.34,0,0,0-4.24,1.23l-1.49,0c0-.07,0-.13,0-.2,0-2-2.55-3.69-5.71-3.69a7.27,7.27,0,0,0-4.33,1.29,7.4,7.4,0,0,0-4.18-1.18c-2.49,0-4.6,1-5.38,2.46h-.11c-2.68,0-4.93,1.2-5.54,2.82-1.06.14-2.08.3-3.08.46a8.82,8.82,0,0,0-1.57-.14,7.31,7.31,0,0,0-4.34,1.29q-1.36.31-2.61.66a4.51,4.51,0,0,0-1.11-.16,4.14,4.14,0,0,0-3.31,1.59c-4.07,1.58-6.42,3.41-6.42,5.37,0,4.88,14.49,9,34.07,10.22h0c-19.61-1.21-34.05-5.33-34.05-10.22a1.94,1.94,0,0,1,0-.24,102.9,102.9,0,0,0-11.39,18.8c-3.61,1.83-5.66,3.86-5.73,6,0,0,0,0,0,0v2c0,8.13,28.28,14.72,63.16,14.72s63.16-6.59,63.16-14.72V99.46S285.35,99.41,285.35,99.39Z" transform="translate(0 -0.51)"/><path class="cls-10" d="M221.17,85.54l63.14,12.6v2.12c0,8.13-28.27,14.72-63.15,14.72S158,108.39,158,100.26v-2C162.77,91.26,190.28,79.37,221.17,85.54Z" transform="translate(0 -0.51)"/><path class="cls-11" d="M221.17,113.09c34.78,0,63.15-6.62,63.15-14.72S256,83.65,221.17,83.65,158,90.26,158,98.37,186.38,113.09,221.17,113.09Z" transform="translate(0 -0.51)"/><path class="cls-12" d="M280.28,99.1c-1.86,6.33-27.61,11.34-59.11,11.34s-57.26-5-59.11-11.34c-.8-5.78,10.4-22.45,13.07-25.64,0,.08,0,.16,0,.24,0,5.85,20.62,10.58,46,10.58s46-4.73,46-10.58a1.93,1.93,0,0,0,0-.24C269.86,76.65,281,93.38,280.28,99.1Z" transform="translate(0 -0.51)"/><path class="cls-11" d="M221.17,84.28c25.36,0,46-4.75,46-10.58s-20.68-10.58-46-10.58-46,4.75-46,10.58S195.8,84.28,221.17,84.28Z" transform="translate(0 -0.51)"/><path class="cls-10" d="M221.17,82.27c23.86,0,43.32-4,43.32-8.81s-19.46-8.8-43.32-8.8-43.33,4-43.33,8.8S197.3,82.27,221.17,82.27Z" transform="translate(0 -0.51)"/><path class="cls-13" d="M214.75,72.67c3.15,0,5.71,1.66,5.71,3.7s-2.56,3.7-5.71,3.7S209,78.41,209,76.37,211.59,72.67,214.75,72.67Z" transform="translate(0 -0.51)"/><path class="cls-14" d="M218.78,75a3.87,3.87,0,0,1,4,3.69,3.76,3.76,0,0,1-2.9,3.55l-2.36,0a3.73,3.73,0,0,1-2.8-3.52A3.87,3.87,0,0,1,218.78,75Z" transform="translate(0 -0.51)"/><path class="cls-14" d="M228.52,61.92c3.16,0,5.71,1.66,5.71,3.7s-2.55,3.69-5.71,3.69-5.71-1.65-5.71-3.69S225.37,61.92,228.52,61.92Z" transform="translate(0 -0.51)"/><path class="cls-14" d="M192.91,64.94c3.15,0,5.71,1.66,5.71,3.7s-2.56,3.7-5.71,3.7-5.71-1.66-5.71-3.7S189.75,64.94,192.91,64.94Z" transform="translate(0 -0.51)"/><path class="cls-14" d="M238.49,62.48c3.15,0,5.71,1.66,5.71,3.7s-2.56,3.69-5.71,3.69-5.71-1.65-5.71-3.69S235.33,62.48,238.49,62.48Z" transform="translate(0 -0.51)"/><path class="cls-14" d="M248.68,62.82c3.16,0,5.71,1.65,5.71,3.69s-2.55,3.7-5.71,3.7S243,68.55,243,66.51,245.53,62.82,248.68,62.82Z" transform="translate(0 -0.51)"/><path class="cls-14" d="M208.59,59.34c3.15,0,5.71,1.66,5.71,3.7s-2.56,3.7-5.71,3.7-5.71-1.66-5.71-3.7S205.43,59.34,208.59,59.34Z" transform="translate(0 -0.51)"/><path class="cls-14" d="M259.77,71.11a6.6,6.6,0,0,1,5,2,.41.41,0,0,0-.31.4c0,1.76-2.52,3.39-6.87,4.77-2.09-.55-3.56-1.88-3.56-3.43C254.06,72.76,256.61,71.11,259.77,71.11Z" transform="translate(0 -0.51)"/><path class="cls-14" d="M181,71.11a3.87,3.87,0,0,1,4,3.69,3.59,3.59,0,0,1-1.66,3c-3.54-1.28-5.57-2.75-5.57-4.33a.42.42,0,0,0-.34-.43A4.08,4.08,0,0,1,181,71.11Z" transform="translate(0 -0.51)"/><path class="cls-13" d="M211.16,65.17c3.16,0,5.72,1.65,5.72,3.7s-2.56,3.69-5.72,3.69-5.71-1.65-5.71-3.69S208,65.17,211.16,65.17Z" transform="translate(0 -0.51)"/><path class="cls-13" d="M201.08,68.08c3.16,0,5.72,1.66,5.72,3.7s-2.56,3.69-5.72,3.69-5.71-1.65-5.71-3.69S197.93,68.08,201.08,68.08Z" transform="translate(0 -0.51)"/><path class="cls-13" d="M221.36,66c3.15,0,5.71,1.66,5.71,3.7s-2.56,3.7-5.71,3.7-5.72-1.66-5.72-3.7S218.2,66,221.36,66Z" transform="translate(0 -0.51)"/><path class="cls-13" d="M189.21,70.21c3.16,0,5.71,1.65,5.71,3.7s-2.55,3.69-5.71,3.69S183.5,76,183.5,73.91,186.06,70.21,189.21,70.21Z" transform="translate(0 -0.51)"/><path class="cls-13" d="M238.83,67.74c3.15,0,5.71,1.66,5.71,3.7s-2.56,3.7-5.71,3.7-5.72-1.66-5.72-3.7S235.67,67.74,238.83,67.74Z" transform="translate(0 -0.51)"/><path class="cls-13" d="M252.38,67.41c3.15,0,5.71,1.65,5.71,3.7s-2.56,3.69-5.71,3.69-5.72-1.65-5.72-3.69S249.22,67.41,252.38,67.41Z" transform="translate(0 -0.51)"/><path class="cls-15" d="M203.1,61.81c3.15,0,5.71,1.65,5.71,3.7s-2.56,3.69-5.71,3.69-5.71-1.65-5.71-3.69S200,61.81,203.1,61.81Z" transform="translate(0 -0.51)"/><path class="cls-13" d="M217.1,59.23c3.15,0,5.71,1.66,5.71,3.7s-2.56,3.69-5.71,3.69-5.71-1.65-5.71-3.69S213.94,59.23,217.1,59.23Z" transform="translate(0 -0.51)"/><path class="cls-15" d="M244.76,64.94a3.71,3.71,0,1,1-4,3.7A3.88,3.88,0,0,1,244.76,64.94Z" transform="translate(0 -0.51)"/><path class="cls-15" d="M184.85,66.74a3.71,3.71,0,1,1-4,3.69A3.87,3.87,0,0,1,184.85,66.74Z" transform="translate(0 -0.51)"/><path class="cls-15" d="M206.24,71.78c3.15,0,5.71,1.65,5.71,3.69s-2.56,3.7-5.71,3.7-5.71-1.66-5.71-3.7S203.08,71.78,206.24,71.78Z" transform="translate(0 -0.51)"/><path class="cls-15" d="M221.58,71.33c3.15,0,5.71,1.65,5.71,3.7s-2.56,3.69-5.71,3.69-5.71-1.65-5.71-3.69S218.43,71.33,221.58,71.33Z" transform="translate(0 -0.51)"/><path class="cls-15" d="M229.53,67c3.15,0,5.71,1.66,5.71,3.7s-2.56,3.69-5.71,3.69-5.71-1.65-5.71-3.69S226.38,67,229.53,67Z" transform="translate(0 -0.51)"/><path class="cls-15" d="M187.87,73.79a3.88,3.88,0,0,1,4,3.7,3.48,3.48,0,0,1-.88,2.3A54.83,54.83,0,0,1,183.87,78a3.44,3.44,0,0,1,0-.46A3.88,3.88,0,0,1,187.87,73.79Z" transform="translate(0 -0.51)"/><path class="cls-14" d="M242.52,72.11a3.71,3.71,0,1,1-4,3.7A3.88,3.88,0,0,1,242.52,72.11Z" transform="translate(0 -0.51)"/><path class="cls-15" d="M252.38,71.89a3.71,3.71,0,1,1-4,3.7A3.87,3.87,0,0,1,252.38,71.89Z" transform="translate(0 -0.51)"/><path class="cls-13" d="M227,75.47a3.88,3.88,0,0,1,4,3.7,3.59,3.59,0,0,1-1.6,2.94c-1.53.06-3.09.11-4.67.13a3.6,3.6,0,0,1-1.8-3.07A3.88,3.88,0,0,1,227,75.47Z" transform="translate(0 -0.51)"/><path class="cls-16" d="M195.6,72.79c3.15,0,5.71,1.65,5.71,3.69s-2.56,3.7-5.71,3.7-5.71-1.66-5.71-3.7S192.44,72.79,195.6,72.79Z" transform="translate(0 -0.51)"/><path class="cls-16" d="M222.14,68.19a3.71,3.71,0,1,1-4,3.7A3.88,3.88,0,0,1,222.14,68.19Z" transform="translate(0 -0.51)"/><path class="cls-16" d="M233.11,76a3.88,3.88,0,0,1,4,3.7,3.4,3.4,0,0,1-.63,2c-2.09.16-4.27.29-6.51.39a3.5,3.5,0,0,1-.93-2.36A3.88,3.88,0,0,1,233.11,76Z" transform="translate(0 -0.51)"/><path class="cls-16" d="M213.63,79.17a4,4,0,0,1,4,3.07c-2.7,0-5.34-.14-7.88-.28A4,4,0,0,1,213.63,79.17Z" transform="translate(0 -0.51)"/><path class="cls-16" d="M205.57,77.6a3.88,3.88,0,0,1,4,3.7,3.5,3.5,0,0,1-.07.65q-4.18-.24-8-.63v0A3.88,3.88,0,0,1,205.57,77.6Z" transform="translate(0 -0.51)"/><path class="cls-16" d="M245.77,69.43a3.71,3.71,0,1,1-4,3.69A3.87,3.87,0,0,1,245.77,69.43Z" transform="translate(0 -0.51)"/><path class="cls-17" d="M214.51,70.32c2.34,0,4.23,1.23,4.23,2.75s-1.89,2.74-4.23,2.74-4.24-1.23-4.24-2.74S212.17,70.32,214.51,70.32Z" transform="translate(0 -0.51)"/><path class="cls-17" d="M200.86,74.8a3.88,3.88,0,0,1,4,3.7,3.61,3.61,0,0,1-1.66,3q-2.83-.27-5.45-.61a3.5,3.5,0,0,1-.95-2.38A3.88,3.88,0,0,1,200.86,74.8Z" transform="translate(0 -0.51)"/><path class="cls-17" d="M210.38,75.36a3.88,3.88,0,0,1,4,3.7,3.61,3.61,0,0,1-1.74,3c-1.69-.07-3.34-.15-4.94-.26a3.55,3.55,0,0,1-1.38-2.78A3.88,3.88,0,0,1,210.38,75.36Z" transform="translate(0 -0.51)"/><path class="cls-17" d="M233.23,71.22a3.71,3.71,0,1,1-4,3.69A3.87,3.87,0,0,1,233.23,71.22Z" transform="translate(0 -0.51)"/><path class="cls-17" d="M237.93,74.35a3.88,3.88,0,0,1,4,3.7,3.71,3.71,0,0,1-2.44,3.4l-2.45.21a3.79,3.79,0,0,1-3.17-3.61A3.88,3.88,0,0,1,237.93,74.35Z" transform="translate(0 -0.51)"/><path class="cls-17" d="M223.71,78.5a3.87,3.87,0,0,1,4,3.67c-2.14.07-4.34.1-6.57.1h-1.49v-.08A3.88,3.88,0,0,1,223.71,78.5Z" transform="translate(0 -0.51)"/><path class="cls-17" d="M192.13,77.6a3.94,3.94,0,0,1,4,3.05c-2.7-.39-5.17-.84-7.36-1.35A4.14,4.14,0,0,1,192.13,77.6Z" transform="translate(0 -0.51)"/><path class="cls-17" d="M246.55,75.7a3.87,3.87,0,0,1,4,3.69,3.31,3.31,0,0,1,0,.55c-2.31.43-4.85.81-7.58,1.14a3.49,3.49,0,0,1-.44-1.69A3.87,3.87,0,0,1,246.55,75.7Z" transform="translate(0 -0.51)"/><path class="cls-13" d="M227.85,72.35c1.9,0,3.44,1,3.44,2.23s-1.54,2.22-3.44,2.22-3.44-1-3.44-2.22S226,72.35,227.85,72.35Z" transform="translate(0 -0.51)"/><path class="cls-13" d="M207.13,73.14c1.9,0,3.44,1,3.44,2.22s-1.54,2.22-3.44,2.22-3.44-1-3.44-2.22S205.23,73.14,207.13,73.14Z" transform="translate(0 -0.51)"/><path class="cls-18" d="M157.15,165.52a11.71,11.71,0,0,0-5.85-5.43h0a11.63,11.63,0,0,0-2.49-.73c.16-.34.3-.7.43-1,0-.11.07-.21.11-.31.11-.34.21-.68.29-1l.06-.31q.09-.45.15-.9l0-.27a10.84,10.84,0,0,0,.06-1.13v-.24a9.61,9.61,0,0,0-.07-1.19h0a12.21,12.21,0,0,0-12-18.57,12.22,12.22,0,1,0-21.61,6.1L82.78,174A12.23,12.23,0,0,0,66.42,192.1a12.66,12.66,0,0,0,2.3,1.8l.32.3.2.19a11,11,0,0,0,.91.75l.15.1a9.53,9.53,0,0,0,.89.57l.2.12a12.11,12.11,0,0,0,2.29,1l.09,0a12.46,12.46,0,0,0,1.24.3,11.68,11.68,0,0,0,.15,10.37c.06.13.14.24.21.37s.22.4.34.59L76,209c.12.18.24.35.37.52l.31.36c.14.17.28.33.43.49l.27.27a3.31,3.31,0,0,0,.26.27h0a11.69,11.69,0,0,0,18.74-4.14,12.42,12.42,0,0,0,1-.91,12.19,12.19,0,0,0,3.54-9.43l36.28-18.62a11.71,11.71,0,0,0,19.89-12.25Z" transform="translate(0 -0.51)"/><path class="cls-5" d="M147.79,158.33a11.72,11.72,0,1,0-21.51-.78L85.9,178.28A11.72,11.72,0,1,0,74,196.2a11.71,11.71,0,1,0,21.7,1.36l40.55-20.81a11.71,11.71,0,1,0,11.55-18.42Z" transform="translate(0 -0.51)"/><path class="cls-19" d="M147.35,160.71l-3.1-.56,1.35-2.86a9.27,9.27,0,0,0-5.08-12.66c0,.3.06.6.06.89,0,.89-2,2.12-2,.88,0-.78-.15-1.54-.18-2.32A9.4,9.4,0,0,0,133,145a9.27,9.27,0,0,0-4.42,11.63l.79,2.05-10.72,5.5c-.35.71-1.59,1.53-1.85.95l-4.09,2.1c-.11.35-.23.71-.34,1a2.05,2.05,0,0,1-1.27,1.16c-.49.16-.67-.14-.53-.58.06-.2.12-.41.19-.61L91,178.41a3.91,3.91,0,0,0-.2,1c0,.77-2,2.07-2,1a4.2,4.2,0,0,1,.17-1l-2.08,1.07c0,.17-.06.35-.08.52a2,2,0,0,1-1.1,1.27l0,0a4.05,4.05,0,0,1,.07,1.52,2,2,0,0,1-1.1,1.25c-.31.16-.91.27-.84-.29a3.22,3.22,0,0,0-.68-2.46c-.41-.54.71-1.66,1.4-1.75l-.64-1a9,9,0,0,0-1.54-1.8,6.79,6.79,0,0,1-.77.84c-.24.22-1,.75-1.28.39s.26-1,.5-1.25a1.39,1.39,0,0,0,.46-.84,9.29,9.29,0,0,0-13.42,12,9,9,0,0,0,3.66,3.83c.08-.12.15-.25.22-.38a1.74,1.74,0,0,1,1.4-.92c.57,0,.5.62.3,1l-.54,1a11.33,11.33,0,0,0,1.57.43l3.11.57-1.36,2.85a9.26,9.26,0,0,0,3,11.57c.5-.51,1.33-.75,1.65-.12l.38.73a.66.66,0,0,1,0,.48,4.72,4.72,0,0,0,.9.29h0a2.25,2.25,0,0,1,.35-.22l.21-.13a1.06,1.06,0,0,0-.16-.61c-.19-.43.57-1.25,1.2-1.5a2.57,2.57,0,0,1,.75-1.94c.32-.37.92-.87,1.45-.62s.26.94,0,1.25-.2.27-.08.58c.27.59-.52,1.42-1.2,1.6a2.57,2.57,0,0,1-1,1.87,9.27,9.27,0,0,0,9.65-12.15l-.65-2,1-.5a.7.7,0,0,1-.22-.75A3.41,3.41,0,0,1,96,192.55c1.53-.42,1.24,1.6.09,1.92-.32.08-.48.06-.52.37,0,0,0,0,0,0l2.3-1.18a1.46,1.46,0,0,1,0-.2c-.68,0-.11-1.51.62-1.88.41-.22.66-.19.75,0a.48.48,0,0,1,.19-.09c.45-.13.77.17.56.61a3.73,3.73,0,0,0-.2.59l8.66-4.45a11.55,11.55,0,0,1,.69-2.56,2.2,2.2,0,0,1,1.27-1.16c.47-.14.68.14.51.58a9.9,9.9,0,0,0-.57,2.17l11.47-5.9a13.91,13.91,0,0,1,0-1.58c0-.7,2-2,1.91-1,0,.53,0,1.06,0,1.59L137,173.64l1.21,1.68a8.29,8.29,0,0,0,1.29,1.41c.46-.61,1.43-1.08,1.77-.42a8.57,8.57,0,0,1,.83,2.11,9.3,9.3,0,1,0,5.27-17.71ZM140.46,148a.83.83,0,0,0,0-.78c-.32-.8,1.59-2.26,2-1.3a2.53,2.53,0,0,1-.3,2.12,1.82,1.82,0,0,1-1.4.94C140.21,149,140.25,148.35,140.46,148ZM91.63,199.49a1.35,1.35,0,0,0,0-.4.74.74,0,0,1,0-.12c0,.23-.07.47-.11.72l-.52.52a1.86,1.86,0,0,0,.66-.7,1.65,1.65,0,0,1-.75,1c-.31.19-1.16.43-1.28-.15a1.63,1.63,0,0,1,.84-1.67c.36-.23,1.08-.4,1.27.14A.9.9,0,0,1,91.63,199.49Zm1.59-20.72c-.06.18-.11.36-.17.54a1.65,1.65,0,0,1-1.27,1.15.67.67,0,0,1-.79-.87l.18-.54a1.62,1.62,0,0,1,1.28-1.15A.66.66,0,0,1,93.22,178.77ZM100.43,191c-1.42.72-.88-1.31,0-1.78C101.88,188.5,101.34,190.54,100.43,191Zm12.47-13.65c-1.41.72-.39-1.14.31-1.5C114.61,175.14,113.59,177,112.9,177.36Zm-.91-3.49c-1.39.71-.19-1.06.42-1.37C113.8,171.78,112.6,173.56,112,173.87Zm28.9-3.45a3.7,3.7,0,0,0-.16,2.7c.2.68-1.7,2.11-1.92,1.36a4.8,4.8,0,0,1,.32-3.45,2.45,2.45,0,0,1,1.27-1.15C140.86,169.73,141.09,170,140.89,170.42Zm-3.72-12.08c-1.42.73-1.72-1-.56-1.57C138,156,138.34,157.74,137.17,158.34Z" transform="translate(0 -0.51)"/><path class="cls-20" d="M136.86,133.33a12.23,12.23,0,1,0-21.61,6.1l-33.49,33.5a12.23,12.23,0,1,0-6.1,21.61,12.22,12.22,0,1,0,22-5.59l33.63-33.63a12.22,12.22,0,1,0,5.59-22Z" transform="translate(0 -0.51)"/><path class="cls-21" d="M137.19,135.83l-3.27.44.43-3.27a9.66,9.66,0,0,0-9.09-11c.13.29.25.58.35.87.32.87-1.3,2.74-1.73,1.52-.27-.77-.65-1.48-.92-2.24a9.69,9.69,0,0,0-5.75,15.64l1.44,1.78-8.89,8.89c-.12.82-1.09,2-1.53,1.53l-3.4,3.4v1.13a2.26,2.26,0,0,1-.89,1.56c-.44.31-.72.07-.72-.41,0-.22,0-.44,0-.67l-16.4,16.4a4.18,4.18,0,0,0,.13,1.1c.22.77-1.33,2.7-1.64,1.58a3.49,3.49,0,0,1-.14-1l-1.73,1.73a5.42,5.42,0,0,0,.08.54,2.07,2.07,0,0,1-.68,1.61l0,0a4.13,4.13,0,0,1,.56,1.48,2.14,2.14,0,0,1-.69,1.61c-.26.25-.82.55-.93,0a3.33,3.33,0,0,0-1.46-2.23c-.58-.4.18-1.88.83-2.19l-1-.78a9.31,9.31,0,0,0-2.11-1.3,5.86,5.86,0,0,1-.49,1.08c-.17.3-.72,1.06-1.15.8s-.07-1.1.1-1.4a1.43,1.43,0,0,0,.18-1,9.7,9.7,0,1,0-4.63,18.83l.09-.45a1.8,1.8,0,0,1,1.1-1.37c.56-.17.69.46.61.88s-.16.76-.23,1.13a10.69,10.69,0,0,0,1.69-.08l3.28-.43-.44,3.27A9.67,9.67,0,0,0,80.91,203a9.53,9.53,0,0,0,4,2.39c.34-.66,1.08-1.17,1.61-.64l.6.6a.63.63,0,0,1,.19.47,5.35,5.35,0,0,0,1,0h0a3,3,0,0,1,.28-.33l.17-.19a1.16,1.16,0,0,0-.35-.56c-.33-.37.16-1.42.71-1.87a2.7,2.7,0,0,1,.12-2.17c.21-.47.64-1.15,1.24-1.08s.57.85.39,1.24-.11.34.12.6c.44.5-.07,1.59-.69,2a2.71,2.71,0,0,1-.36,2.17,9.68,9.68,0,0,0,5.71-15.16l-1.28-1.75.81-.81c-.22-.06-.39-.27-.45-.67a3.56,3.56,0,0,1,1.69-3.34c1.38-.9,1.74,1.19.69,1.88-.28.18-.44.22-.39.54v.05l1.91-1.9a.86.86,0,0,1,0-.22c-.68.18-.59-1.47,0-2.07.34-.35.59-.4.73-.27a.75.75,0,0,1,.16-.15c.4-.27.82-.08.75.43a4.75,4.75,0,0,0,0,.65l7.18-7.19a12.12,12.12,0,0,1-.14-2.76,2.29,2.29,0,0,1,.9-1.56c.42-.29.72-.08.7.41a10.21,10.21,0,0,0,.11,2.34l9.52-9.52a13.36,13.36,0,0,1-.49-1.59c-.19-.7,1.32-2.65,1.58-1.6.15.54.33,1.06.52,1.58L131,152l1.74,1.28a9.08,9.08,0,0,0,1.73,1c.27-.75,1.08-1.53,1.63-1a8.92,8.92,0,0,1,1.49,1.83,9.7,9.7,0,1,0-.42-19.28Zm-10.91-10.42a.84.84,0,0,0-.22-.78c-.57-.7.86-2.76,1.55-1.92a2.63,2.63,0,0,1,.37,2.2,1.9,1.9,0,0,1-1.09,1.38C126.34,126.45,126.19,125.83,126.28,125.41Zm-32,66.76a1.22,1.22,0,0,0-.15-.4l-.06-.11c0,.25.08.49.13.75-.12.22-.24.46-.35.69a2.06,2.06,0,0,0,.43-.92,1.7,1.7,0,0,1-.43,1.22c-.25.29-1,.8-1.32.26a1.68,1.68,0,0,1,.3-1.92c.28-.35,1-.75,1.3-.27A.91.91,0,0,1,94.23,192.17Zm-5-21.09v.59a1.7,1.7,0,0,1-.88,1.54.7.7,0,0,1-1.07-.61V172a1.71,1.71,0,0,1,.91-1.55A.69.69,0,0,1,89.19,171.08Zm11.07,9.85c-1.17,1.17-1.29-1-.53-1.78C100.9,178,101,180.17,100.26,180.93Zm8-17.55c-1.16,1.17-.75-1-.17-1.58C109.28,160.64,108.86,162.81,108.28,163.38Zm-2-3.17c-1.15,1.15-.53-1,0-1.5C107.4,157.56,106.77,159.7,106.27,160.21Zm27.6-12.67a3.87,3.87,0,0,0,.71,2.73c.42.62-1,2.64-1.47,2a5,5,0,0,1-.79-3.52,2.49,2.49,0,0,1,.9-1.56C133.62,146.86,133.93,147.05,133.87,147.54Zm-7.55-10.8c-1.18,1.18-2-.42-1.06-1.38C126.44,134.18,127.29,135.77,126.32,136.74Z" transform="translate(0 -0.51)"/><path class="cls-22" d="M150.28,159.06a12.2,12.2,0,0,1-20.42,5.5L100.61,186l30.67-30.67a12.23,12.23,0,0,0,15.84-1.23,12,12,0,0,0,1.73-2.19,12,12,0,0,1-1.06,6.43A11.63,11.63,0,0,1,150.28,159.06Z" transform="translate(0 -0.51)"/><path class="cls-23" d="M87.53,208.38a12.21,12.21,0,0,1-10.92,1.46A11.74,11.74,0,0,1,74,196.21a11.81,11.81,0,0,1-6.32-3.35,12.17,12.17,0,0,0,8,1.68,12.21,12.21,0,0,0,11.87,13.84Z" transform="translate(0 -0.51)"/><path class="cls-18" d="M393.35,339.53a4.49,4.49,0,0,1-1.84.84c.6-3.2-.61-7.26-3.1-8.89a6.13,6.13,0,0,1-.15,3.59,3.32,3.32,0,0,0-1.06-1.71,2.05,2.05,0,0,1-1.43,1.83A73.72,73.72,0,0,0,381,317.56h0c-.2-.46-.4-.9-.61-1.34h0c-.18-.38-.37-.76-.56-1.13l-.22-.42-.35-.64-.38-.67h0c-.19-.32-.39-.63-.58-.93l-.05-.06c-.2-.31-.4-.6-.61-.88l-.17-.24c-.23-.3-.46-.59-.69-.85l.57-.37a3.26,3.26,0,0,1,1.27,1.09,5.94,5.94,0,0,0-.29-1.8,14.72,14.72,0,0,0,5.28-7.55h0a4.76,4.76,0,0,1,1.56.23,2.53,2.53,0,0,0-.53-1.53,5.73,5.73,0,0,1,1.25.5,4.11,4.11,0,0,0-1.66-2.42,23.48,23.48,0,0,0-.46-8.87,7.8,7.8,0,0,0,2.16.26,7,7,0,0,0,1-.1c.12,0,.22-.06.34-.09s.39-.09.56-.15.34-.15.5-.23a2.39,2.39,0,0,0,.28-.13,3.62,3.62,0,0,0,.38-.26l.28-.2.3-.3.17-.18h0c2-2.42.87-6.89-1-9.6-3.37-4.25-14.33-11.07-17.86-9.62,0,0,0,0,0,0a1.94,1.94,0,0,0-.27.23v0a.48.48,0,0,0-.09.11,1.68,1.68,0,0,0-.25.29,2.07,2.07,0,0,0-.15.25l-.06.1c-5.14-3.88-12.92-4.41-19.11-.9h0c-7.33-1.65-28.71,10.23-19.94,20.12h0a1.93,1.93,0,0,0,.27.31c1.55,1.63,2.86,2.36,4,2.44a3.45,3.45,0,0,0,.85-.07,17.51,17.51,0,0,0,.15,8,2.55,2.55,0,0,0-1.07,1.8,3.43,3.43,0,0,1,1.16-.31,2.35,2.35,0,0,0-.13,1.3,3.26,3.26,0,0,1,1-.23,12.33,12.33,0,0,0,.85,1.6,2.08,2.08,0,0,0-.43.74,2.61,2.61,0,0,1,.72-.27,21.6,21.6,0,0,0,4.07,4.6q.33.3.69.57c-.33.33-.66.68-1,1l-.09.09c-.06.07-.11.14-.17.2l-.47.56c-.06.08-.13.15-.19.22h0c-9.47,11.67-10.08,31.05-9.32,37.78-4.21,3.08,1.55,5.43,6.3,5.12h.07a11.43,11.43,0,0,0,1.21-.15l.16,0a7.86,7.86,0,0,0,1.16-.32c-.16.74-.25,1.46-.35,2.11H352c-.09-1.1-.13-2.18-.16-3.23.19,0,.4.06.6.09l.86.14h0a64.41,64.41,0,0,0,16.82,0h0l.59-.08.76-.11c.08,1,.15,2.08.19,3.17H384.5a10.8,10.8,0,0,0-.4-1.81c2.2-.64,4.27-1.88,3.84-3.64,3.22-1.32,6.43-4,4.48-6.84A5.51,5.51,0,0,0,393.35,339.53Z" transform="translate(0 -0.51)"/><path class="cls-5" d="M383.68,299.45a2.52,2.52,0,0,1,.52,1.53,4.42,4.42,0,0,0-1.55-.23h0a14.64,14.64,0,0,1-5.28,7.55,5.62,5.62,0,0,1,.3,1.8,3.33,3.33,0,0,0-1.27-1.09c-.19.12-.37.25-.57.36-9.47,6-25.61,5.61-33.69-.63-.24-.19-.47-.37-.7-.57a21.77,21.77,0,0,1-4.06-4.6,2.49,2.49,0,0,0-.72.27,2.08,2.08,0,0,1,.43-.74,12.33,12.33,0,0,1-.85-1.6,3.26,3.26,0,0,0-1,.23,2.25,2.25,0,0,1,.13-1.3,3.43,3.43,0,0,0-1.16.31,2.53,2.53,0,0,1,1.07-1.8,17.42,17.42,0,0,1-.15-8,25,25,0,0,1,1.1-3.92.49.49,0,0,0,0-.11s0,0,0-.07c1.93-5.2,5.4-10.28,9-14.84a18,18,0,0,1,4.67-3.85c6.76-3.84,15.43-2.86,20.47,2.05,8.25,8,14.35,16.26,12.85,27.35a4.14,4.14,0,0,1,1.66,2.43A5.73,5.73,0,0,0,383.68,299.45Z" transform="translate(0 -0.51)"/><path class="cls-24" d="M350.6,277.14c-3,3.19-7.08,4.08-9.73,7.79-3.19,4.78-5.64,8.83-10.61,3.62-9.76-10.22,13.53-22.77,20.27-20.26l.23.07a3,3,0,0,1,2,2.41C353.25,273.07,352,275.56,350.6,277.14Z" transform="translate(0 -0.51)"/><path class="cls-25" d="M350.6,277.14c-3,3.19-7.08,4.08-9.73,7.79-3.2,4.78-5.65,8.83-10.62,3.62a2.38,2.38,0,0,1-.26-.31,6,6,0,0,0,2.47.77c2.74.08,4.15-2.4,5.4-4.43,1.5-2.57,2.74-4.61,5.49-5.94,2.29-1.06,5.21-1.77,7.16-3.54a7.08,7.08,0,0,0,2.24-4.2C353.2,273.16,352,275.59,350.6,277.14Z" transform="translate(0 -0.51)"/><path class="cls-24" d="M386,288.82c-5.48.89-10.09-4.43-12.56-8.49-1.46-2.58-6.86-10.15-3.55-12.28h0c3.53-1.44,14.5,5.38,17.87,9.63C390.23,281.22,391.47,287.76,386,288.82Z" transform="translate(0 -0.51)"/><path class="cls-25" d="M388.8,287.28a4.66,4.66,0,0,1-2.81,1.54c-5.48.89-10.1-4.43-12.56-8.49-1.42-2.49-6.54-9.7-3.82-12.06a22.05,22.05,0,0,0,3.39,8C374.15,278,378.89,288.24,388.8,287.28Z" transform="translate(0 -0.51)"/><path class="cls-26" d="M376.57,295c-4,7-19.9-4.36-13.68-11.91C371.47,274.94,379.79,289.39,376.57,295Z" transform="translate(0 -0.51)"/><path class="cls-27" d="M369.71,286.72a1.81,1.81,0,1,1-1.77-2.2A2,2,0,0,1,369.71,286.72Z" transform="translate(0 -0.51)"/><ellipse class="cls-27" cx="349.85" cy="286.21" rx="1.77" ry="2.2"/><path class="cls-27" d="M363.18,298.11a2.09,2.09,0,0,1-1.34.73,4.84,4.84,0,0,0-1.48.83,1.87,1.87,0,0,1-1.45.47c-.78-.05-1.52-.72-2-.88-1.22-.37-2.77-.58-3.12-2.15-.26-1.29,1.17-2.15,2.5-2.54.37-.09.79-.17,1.22-.23h0a7,7,0,0,1,5.25,1.1A1.89,1.89,0,0,1,363.18,298.11Z" transform="translate(0 -0.51)"/><path class="cls-24" d="M364,304.35c-1.2.95-3.21.75-3.8-.4-1.17-2.28-1.15-1.21-1.93.23-.58,1.08-2.73,1-3.77.3-.49-.34-1.43.11-1.08.49,1.47,1.59,4.23,1.24,6,.25a4.1,4.1,0,0,0,5.2-.05C365.47,304.61,364.62,303.88,364,304.35Z" transform="translate(0 -0.51)"/><path class="cls-28" d="M383.07,353.55a9.91,9.91,0,0,1,.41,1.81H370.59c0-1.09-.12-2.15-.19-3.17-2.57-35.11-20.62-31.93-19.63-.06,0,1.05.07,2.12.15,3.23H339.44c.1-.65.2-1.38.36-2.11-4.69,1.71-13.95-.94-8.91-4.62-.8-7.16-.07-28.61,11.23-39.89,8.08,6.24,24.22,6.67,33.69.63,4.12,4.78,7.45,14.69,8.93,24.79v0c.14.86.26,1.71.36,2.58a68.75,68.75,0,0,1,.42,11.17,4,4,0,0,1,1.4,2C387.35,351.66,385.28,352.91,383.07,353.55Z" transform="translate(0 -0.51)"/><path class="cls-29" d="M370.4,352.19a63,63,0,0,1-19.63-.06C349.78,320.26,367.83,317.08,370.4,352.19Z" transform="translate(0 -0.51)"/><g class="cls-30"><path class="cls-31" d="M370.4,352.18l-1.35.2c-3.06-25.41-16.28-23.32-16.82,0l-1.46-.22C349.78,320.26,367.83,317.07,370.4,352.18Z" transform="translate(0 -0.51)"/></g><path class="cls-24" d="M391.4,343.07c2,2.87-1.26,5.52-4.48,6.84a4,4,0,0,0-1.4-2,68.75,68.75,0,0,0-.42-11.17c-.1-.87-.22-1.72-.36-2.58v0a2,2,0,0,0,1.43-1.82,3.34,3.34,0,0,1,1.07,1.71,6.16,6.16,0,0,0,.15-3.6c2.49,1.63,3.69,5.7,3.1,8.9a4.49,4.49,0,0,0,1.84-.84A5.51,5.51,0,0,1,391.4,343.07Z" transform="translate(0 -0.51)"/><g class="cls-30"><path class="cls-31" d="M340.73,350.59a9.2,9.2,0,0,0-.93,2.66,9.6,9.6,0,0,1-2.61.51,7.58,7.58,0,0,1,.61-3.57,1.66,1.66,0,0,1,.72-.74c.07-7.91,1.67-13.7,3.33-16.29A73,73,0,0,0,340.73,350.59Z" transform="translate(0 -0.51)"/></g><g class="cls-30"><path class="cls-31" d="M384.32,353.11a12.28,12.28,0,0,1-1.25.44,6.08,6.08,0,0,0-2.42-3.5c-.41-5.73-.54-11.33-2.18-16.92,1.71,3.3,3.53,10.55,3.84,17A7.66,7.66,0,0,1,384.32,353.11Z" transform="translate(0 -0.51)"/></g><path class="cls-32" d="M377.91,312.33c-3.93,3.49-10.68,5.77-18.34,5.77-8.55,0-15.95-2.85-19.56-7a25.09,25.09,0,0,1,2.11-2.38c8.08,6.24,24.22,6.67,33.69.63A21.9,21.9,0,0,1,377.91,312.33Z" transform="translate(0 -0.51)"/><g class="cls-30"><path class="cls-31" d="M380,316.54c-16.6,7.91-34.93-.27-39.8-5.69a25.48,25.48,0,0,1,1.9-2.11c8.08,6.24,24.22,6.67,33.69.63A28.55,28.55,0,0,1,380,316.54Z" transform="translate(0 -0.51)"/></g><path class="cls-18" d="M363.88,161.6c-.22-1.22-.47-2.42-.75-3.62l-3.37-14.25a68.42,68.42,0,0,1-1.82-15.68V121h-2.78l-38.11,8.32v4.33a68.26,68.26,0,0,1-3.27,20.89l-.07.21a68.29,68.29,0,0,0-3.28,20.9V206a1.65,1.65,0,0,0,.85,1.44l13.12,7.3a1.61,1.61,0,0,0,.69.2h.11a1.67,1.67,0,0,0,.67-.14l37.43-8.18h.2A1.64,1.64,0,0,0,365,205V173.67A68.74,68.74,0,0,0,363.88,161.6Z" transform="translate(0 -0.51)"/><path class="cls-33" d="M352.69,164.83v0h-.37Z" transform="translate(0 -0.51)"/><path class="cls-20" d="M363.93,172.65V204a1.66,1.66,0,0,1-1.46,1.64h-.19L324.18,214a1.65,1.65,0,0,0,1.65-1.65V181A68.44,68.44,0,0,0,324,165.28L320.64,151a68.45,68.45,0,0,1-1.83-15.69v-7.08l38.1-8.32V127a68.45,68.45,0,0,0,1.83,15.69L362.11,157c.28,1.2.53,2.4.75,3.61A68.94,68.94,0,0,1,363.93,172.65Z" transform="translate(0 -0.51)"/><path class="cls-34" d="M325.83,181v31.35a1.65,1.65,0,0,1-1.65,1.65h-.12a1.57,1.57,0,0,1-.68-.2l-13.12-7.3a1.65,1.65,0,0,1-.85-1.44V174.59a68.29,68.29,0,0,1,3.28-20.9l.07-.21A68.26,68.26,0,0,0,316,132.59v-4.33h2.78v7.08A68.45,68.45,0,0,0,320.64,151L324,165.28A68.44,68.44,0,0,1,325.83,181Z" transform="translate(0 -0.51)"/><polygon class="cls-35" points="356.91 119.43 354.13 119.43 316.03 127.75 318.81 127.75 356.91 119.43"/><path class="cls-36" d="M360.67,190.72l-.29-.93A1.63,1.63,0,0,1,360.67,190.72Z" transform="translate(0 -0.51)"/><path class="cls-5" d="M347.72,197.09l-.1,0a15,15,0,0,0-4.36,1.91c-1.44.88-3.34,1.62-3.88-.23l-.24-.83a3.25,3.25,0,0,1,1.29-3.36l1.57-1.18a5.17,5.17,0,0,0,1.93-3l.1-.45a5.35,5.35,0,0,1,3.66-4h0Z" transform="translate(0 -0.51)"/><path class="cls-5" d="M343.28,187.13s3.26-1.11,3.35-2.58,0-5.36,0-5.36a1.65,1.65,0,0,0-2.74-.67,9.13,9.13,0,0,0-3.12,5.68C340.76,187.23,343.28,187.13,343.28,187.13Z" transform="translate(0 -0.51)"/><path class="cls-5" d="M338.87,194s3-2,2.54-3.26-1.89-4.45-1.89-4.45a2.06,2.06,0,0,0-3.09.35,6.82,6.82,0,0,0-1.2,5.7A2.9,2.9,0,0,0,338.87,194Z" transform="translate(0 -0.51)"/><path class="cls-37" d="M347.72,197.09h.1a11.33,11.33,0,0,1,4.35.08c1.44.32,3.35.28,3.89-1.9l.24-1a2.36,2.36,0,0,0-1.29-3l-1.58-.5a2.86,2.86,0,0,1-1.92-2.18l-.1-.41a2.88,2.88,0,0,0-3.66-2.23h0Z" transform="translate(0 -0.51)"/><path class="cls-37" d="M352.16,184.88s-3.26.54-3.36-.9,0-5.39,0-5.39.85-2.63,2.74-2.25,3.11,2.84,3.12,4.16A4.86,4.86,0,0,1,352.16,184.88Z" transform="translate(0 -0.51)"/><path class="cls-37" d="M356.57,189.91s-3-.67-2.55-2.21,1.89-5.66,1.89-5.66,1.63-2.45,3.09-1.3,1.65,4.21,1.21,5.59C359.13,189.63,356.57,189.91,356.57,189.91Z" transform="translate(0 -0.51)"/><path class="cls-18" d="M112.74,277.42a2.82,2.82,0,0,0,4-.69l3.6-5.19a8,8,0,0,0-.38-9.67l-3-3.73a6.63,6.63,0,0,0-6.22-2.35l-3.31-1.41v0a13.43,13.43,0,0,0-10.64-5.24H83.87a13.45,13.45,0,0,0-10.64,5.24v0l-3.31,1.41a6.63,6.63,0,0,0-6.22,2.35l-3.05,3.73a8,8,0,0,0-.38,9.67l3.6,5.19a2.82,2.82,0,0,0,3.95.69,9.08,9.08,0,0,0,4,6.91l1.83,1.22-1.73,6.35a32,32,0,0,0-1,10.39,55.9,55.9,0,0,0-3,14.74c-1.73,4-5.74,13.32-6.31,16.09-.7,3.36-.18,13.28,6,16.64-.25,1.21-.52,3.49.5,5.13a4.58,4.58,0,0,0,4.12,3l3,.1a2.56,2.56,0,0,0,1.94-.89,4.52,4.52,0,0,0,2.4.79l3,.1a2.58,2.58,0,0,0,2.42-1.7c1.21-.13,2-.23,2-.23s3.67-1.87,2-5.54c.82-.13,1.31-.23,1.31-.23s.48.1,1.3.23c-1.65,3.67,2,5.54,2,5.54l2.43.28A2.6,2.6,0,0,0,98.45,358l3-.1a4.52,4.52,0,0,0,2.4-.79,2.6,2.6,0,0,0,1.94.89l3-.1a4.57,4.57,0,0,0,4.4-4.56l0-.61a10.15,10.15,0,0,0-.19-2.95c6.15-3.36,6.67-13.28,6-16.64-.57-2.77-4.58-12.12-6.31-16.09a55.9,55.9,0,0,0-3-14.74,32,32,0,0,0-1-10.39l-1.73-6.35,1.83-1.22A9.08,9.08,0,0,0,112.74,277.42Z" transform="translate(0 -0.51)"/><path class="cls-38" d="M67.69,314.21s-6.37,14.34-7.11,17.89-.12,14.47,7.11,17.16,21.57,0,21.57,0V319.72Z" transform="translate(0 -0.51)"/><path class="cls-39" d="M71.12,297.78l-1.06,3a55.78,55.78,0,0,0-3.29,18.88v28.27s-1.65,5.15,1.41,7.11,17.76,0,17.76,0S92,352,85.1,346s.36-25.74.12-28.8S71.12,297.78,71.12,297.78Z" transform="translate(0 -0.51)"/><path class="cls-5" d="M73.21,282.46l-2.29,8.42a32,32,0,0,0,.19,17.42l.74,2.48a14.48,14.48,0,0,0,9.06,9.57l.12,0a14.59,14.59,0,0,1,7,5.27l1.26,1.78V280Z" transform="translate(0 -0.51)"/><path class="cls-38" d="M89.26,248.14V280l-6.89,11-11.55-7.68a9.08,9.08,0,0,1-3.91-9.17l2.71-14.95a13.43,13.43,0,0,1,13.23-11.05Z" transform="translate(0 -0.51)"/><path class="cls-27" d="M80.92,273.13l0,0a3.72,3.72,0,0,1-5.27,0l0,0a2.58,2.58,0,0,1,0-3.65l.86-.86a2.58,2.58,0,0,1,3.65,0l.86.86A2.6,2.6,0,0,1,80.92,273.13Z" transform="translate(0 -0.51)"/><path class="cls-40" d="M72.21,253.36l-3.3,1.41a6.62,6.62,0,0,0-6.22,2.35l-3,3.73a8,8,0,0,0-.38,9.67l3.6,5.18a2.83,2.83,0,0,0,4.07.63l.06-.05a11,11,0,0,0,4.09-6.9Z" transform="translate(0 -0.51)"/><path class="cls-40" d="M110.83,314.21s6.38,14.34,7.11,17.89.13,14.47-7.11,17.16-21.57,0-21.57,0V319.72Z" transform="translate(0 -0.51)"/><path class="cls-39" d="M107.4,297.78l1.07,3a55.78,55.78,0,0,1,3.29,18.88v28.27s1.65,5.15-1.42,7.11-17.75,0-17.75,0-6-3.06.84-9.07-.37-25.74-.12-28.8S107.4,297.78,107.4,297.78Z" transform="translate(0 -0.51)"/><path class="cls-41" d="M97.42,357l3-.1a4.57,4.57,0,0,0,4.41-4.56l-.11-1.53a4.13,4.13,0,0,0-5-3.74h0A4.92,4.92,0,0,0,94.84,352v2.42A2.58,2.58,0,0,0,97.42,357Z" transform="translate(0 -0.51)"/><path class="cls-5" d="M81.55,357l-3-.1a4.57,4.57,0,0,1-4.41-4.56l.11-1.53a4.13,4.13,0,0,1,5-3.74h0A4.92,4.92,0,0,1,84.13,352v2.42A2.58,2.58,0,0,1,81.55,357Z" transform="translate(0 -0.51)"/><path class="cls-42" d="M105.32,282.46l2.28,8.42a31.83,31.83,0,0,1-.19,17.42l-.73,2.48a14.52,14.52,0,0,1-9.06,9.57l-.12,0a14.54,14.54,0,0,0-7,5.27l-1.27,1.78V280Z" transform="translate(0 -0.51)"/><path class="cls-40" d="M89.26,248.14V280l6.9,11,11.55-7.68a9.07,9.07,0,0,0,3.9-9.17l-2.7-14.95a13.45,13.45,0,0,0-13.23-11.05Z" transform="translate(0 -0.51)"/><path class="cls-39" d="M99.12,285.64,98.36,282a4,4,0,0,0-3-3.09h0a4,4,0,0,1-2.51-1.82l-3.54-5.8-3.53,5.8a4,4,0,0,1-2.51,1.82h0a4,4,0,0,0-3,3.09l-.75,3.62A4.68,4.68,0,0,0,84,291.28h2.82a2.44,2.44,0,0,0,2.45-2.45,2.45,2.45,0,0,0,2.45,2.45h2.82A4.69,4.69,0,0,0,99.12,285.64Z" transform="translate(0 -0.51)"/><path class="cls-27" d="M91.31,282.46H87.22A1.28,1.28,0,0,0,86,284.13l1.08,3.33a1.27,1.27,0,0,0,1.21.88h1.95a1.27,1.27,0,0,0,1.21-.88l1.07-3.33A1.27,1.27,0,0,0,91.31,282.46Z" transform="translate(0 -0.51)"/><path class="cls-27" d="M97.61,273.13l0,0a3.72,3.72,0,0,0,5.27,0l0,0a2.6,2.6,0,0,0,0-3.65l-.86-.86a2.58,2.58,0,0,0-3.65,0l-.86.86A2.58,2.58,0,0,0,97.61,273.13Z" transform="translate(0 -0.51)"/><path class="cls-43" d="M106.31,253.36l3.31,1.41a6.64,6.64,0,0,1,6.22,2.35l3,3.73a8,8,0,0,1,.38,9.67l-3.6,5.18a2.84,2.84,0,0,1-4.08.63l0-.05a10.94,10.94,0,0,1-4.09-6.9Z" transform="translate(0 -0.51)"/><path class="cls-44" d="M80.9,271.07a2.67,2.67,0,1,1-2.67-2.67A2.67,2.67,0,0,1,80.9,271.07Z" transform="translate(0 -0.51)"/><path class="cls-44" d="M102.73,271.3a2.67,2.67,0,1,1-2.67-2.67A2.67,2.67,0,0,1,102.73,271.3Z" transform="translate(0 -0.51)"/><path class="cls-27" d="M79.27,271.07a1,1,0,1,1-1-1A1,1,0,0,1,79.27,271.07Z" transform="translate(0 -0.51)"/><path class="cls-27" d="M101.1,271.3a1,1,0,1,1-1-1A1,1,0,0,1,101.1,271.3Z" transform="translate(0 -0.51)"/><path class="cls-41" d="M74.19,357l-3-.1a4.57,4.57,0,0,1-4.41-4.56l.16-2.28a3.48,3.48,0,0,1,4.19-3.15l.74.16A4.92,4.92,0,0,1,76.78,352v2.42A2.59,2.59,0,0,1,74.19,357Z" transform="translate(0 -0.51)"/><path class="cls-5" d="M104.78,357l3-.1a4.57,4.57,0,0,0,4.41-4.56L112,350a3.48,3.48,0,0,0-4.19-3.15l-.74.16a4.92,4.92,0,0,0-4.92,4.92v2.42A2.59,2.59,0,0,0,104.78,357Z" transform="translate(0 -0.51)"/><path class="cls-18" d="M310.45,287.72a5.27,5.27,0,0,0-5.09-4.61H293.44c-.16-.27-.35-.57-.53-.9-.88-2,.28-3.75-2-6.06-3.17-3.48-4.91-1.76-9.26-1.46-1.71.3-5.78.58-7.22-.86-.58-.88.58-2.92,0-4.07a9.27,9.27,0,0,0-8.1-4.33c-1.74.58-4.05,5.48-7.22,1.46-1.46-1.46.28-4.08-2-6.39-3.19-3.17-7.52-1.16-11.57-2,1.16-5.78-12.73-9.26-16.2-7.52-1.74.58-.28,2.89-2.59,3.2-2,.27-3.78-3.2-5.52-3.78-2.89-.3-13.3,2.9-14.16,4.33-2,2.92,1.71,7-2,9.56-2-1.46-3.47-4-5.78-4.63-2-.58-7.83,1.16-9,2.9s.6,4-2,5.5c-2.89,1.44-6.08-2.61-9.26-.3-1.73,1.46-2,5.79-4.63,6.37-1.45.28-3.77-2.31-5.2-2.31-3.15,0-8,6.38-10.93,11.31H146.51a5.32,5.32,0,0,0-5.14,4.61l-5.74,53a4.06,4.06,0,0,0,4.12,4.6H311.82a4.09,4.09,0,0,0,4.14-4.6Z" transform="translate(0 -0.51)"/><path class="cls-45" d="M314.94,339.73a4.09,4.09,0,0,1-4.14,4.61H138.73a4.06,4.06,0,0,1-4.12-4.61l5.74-53a5.32,5.32,0,0,1,5.14-4.61H304.34a5.27,5.27,0,0,1,5.09,4.61Z" transform="translate(0 -0.51)"/><path class="cls-46" d="M246.09,313.23a6,6,0,1,0-9.66-5.41H213.11a6,6,0,1,0-9.65,5.41,6,6,0,1,0,9.6,5.71h23.42a6,6,0,1,0,9.61-5.71Z" transform="translate(0 -0.51)"/><path class="cls-24" d="M292.42,282.09H157.13c3-4.93,7.78-11.32,10.92-11.32,1.44,0,3.76,2.6,5.21,2.32,2.62-.58,2.9-4.91,4.63-6.37,3.18-2.31,6.37,1.74,9.26.3,2.62-1.46.86-3.77,2-5.51s6.94-3.47,9-2.89c2.32.58,3.76,3.17,5.79,4.63,3.75-2.62,0-6.64,2-9.56.85-1.44,11.27-4.63,14.16-4.33,1.74.58,3.48,4,5.51,3.77,2.32-.3.86-2.61,2.59-3.19,3.48-1.74,17.36,1.74,16.21,7.52,4.05.86,8.38-1.16,11.57,2,2.31,2.31.58,4.93,2,6.39,3.17,4,5.48-.88,7.22-1.46a9.27,9.27,0,0,1,8.1,4.33c.58,1.15-.58,3.19,0,4.07,1.44,1.43,5.51,1.16,7.22.86,4.35-.3,6.09-2,9.26,1.45,2.32,2.32,1.16,4,2,6.07C292.07,281.51,292.26,281.81,292.42,282.09Z" transform="translate(0 -0.51)"/><path class="cls-47" d="M288.46,282.09H259c-.77-.69-1.55-1.32-2.27-1.9-2.32-1.73-3.91-.88-6.78-.3a4.88,4.88,0,0,0-3.62,2.2H232.26c-.09-.09-.18-.21-.27-.32-1.58-1.88-2.16-4.33-3.62-6.21-1.43-2.17-5.74-3.3-6-.63.14,2.76,1.13,4.69-.61,6.7a2.85,2.85,0,0,1-.62.46H197.75c-.95-1.73-1.8-3.79-3.79-3.79-1.16,0-5.51,2.75-6.37,3.77l0,0H161.11c.07-1.29,2.22-2.27,2.89-3.31,1.07-1.73.77-3,3-3.75,1.74-.67,3-.21,4.54.67,2,1.16,2.8,1.07,5,.1,2-1,2.41-1.93,3.26-3.87.4-1,1.16-2.5,2.53-2.59s3.75,1.34,5,1.83c.41.16.83.34,1.25.55,2,.12,3.37-.28,4.16-3,.37-1.55,1.65-4.84,3.27-5.42.88-.18,2.52.88,3.47,1.28,2.22.85,4.63,6.55,7.33,3.75,1.16-1.25.77-3.75,1.65-5.31.51-.85,1.08-1.69,1.71-2.54-.65-1.85-1.16-4.93.21-5.95,1.64-1.41,5.14-2.18,7.5-2.71,2.17,0,2.22,3.68,2.08,5.37,1.55.21,3.29,2.2,4.12,3,1.69,1.88,3,1.49,4.37.74a10.94,10.94,0,0,1-1-1.71c-.79-1.74.18-1.74,1.44-2.68a4.67,4.67,0,0,0,1.71-2.74v0c1.52-2.27,4.33.74,6,1.3a5.4,5.4,0,0,1,3.59,2.26c.63,1.18.21,1.58,1.25,2a13.74,13.74,0,0,0,3.38.85c2.2.3,4.24-.58,6.37-.39s1.92,1.94,2.59,3.87c.67,1.64.61,2.3,1.31,3.85.11.3.82,1.56.91,1.79a22.56,22.56,0,0,0,6.46-.14c1.45-.3,1.64-1.45,3.08-1.94,4.93-1.92,5.74,2.6,5.65,6.7,0,1.78,5.25,2.28,6.89,2.28,2,0,4.72-1.55,6.46-1.16s3.68,3.08,3.77,4.82C288.37,280.66,288.41,281.38,288.46,282.09Z" transform="translate(0 -0.51)"/><path class="cls-48" d="M201.66,246.32A8.41,8.41,0,0,1,189.89,248a7.33,7.33,0,0,1-2.58-4.7,2.83,2.83,0,0,0-3.27-2.61,7.33,7.33,0,0,1-5.16-1.46,8.41,8.41,0,0,1-1-11.85c3-3.74,8.85-2.38,8.85-2.38,1.6.37,2.94.68,3,.7s1.33-.51,2.9-1.18c0,0,3.75-1.58,6.49.6s2,6.19,2,6.19c-.29,1.68-.51,3.07-.49,3.09s.63,1.24,1.35,2.73C202,237.16,204.64,242.58,201.66,246.32Z" transform="translate(0 -0.51)"/><path class="cls-48" d="M203.66,222.46a3.55,3.55,0,0,0-.65,5h0a3.82,3.82,0,0,0,5.27,1l4.17-3.33c1.86-1.62,3-4.51,1.36-6.63h0c-2.16-3.19-2.3-2.91-6.09.4Z" transform="translate(0 -0.51)"/><path class="cls-48" d="M213.94,236.61l-3.67,1.13a3.24,3.24,0,1,1-1.78-6.23l4.64-1.67a3.21,3.21,0,0,1,3.19.45,2,2,0,0,1,.26.24c.52.85-.39,3.58-1.37,5A2.11,2.11,0,0,1,213.94,236.61Z" transform="translate(0 -0.51)"/><path class="cls-48" d="M200.87,220.24a3.54,3.54,0,0,1-4.69,1.75h0a3.82,3.82,0,0,1-2.17-4.91l2.31-4.81c1.16-2.18,3.73-3.91,6.16-2.81h0c3.59,1.39,3.35,1.58,1,6Z" transform="translate(0 -0.51)"/><path class="cls-48" d="M184.78,213.39l-.28,3.84a3.28,3.28,0,0,0,1.21,2.71,3.18,3.18,0,0,0,1.86.69,3.23,3.23,0,0,0,3.4-3.06l.59-4.91a3.22,3.22,0,0,0-1.15-3,1.57,1.57,0,0,0-.3-.2c-.94-.32-3.39,1.18-4.59,2.46A2.14,2.14,0,0,0,184.78,213.39Z" transform="translate(0 -0.51)"/><path class="cls-48" d="M230.06,193a8.4,8.4,0,0,1-11.77,1.7,7.31,7.31,0,0,1-2.58-4.7,2.83,2.83,0,0,0-3.27-2.6,7.32,7.32,0,0,1-5.16-1.46,8.42,8.42,0,0,1-1-11.86c3-3.73,8.85-2.38,8.85-2.38,1.6.37,2.93.69,3,.71s1.33-.51,2.9-1.18c0,0,3.75-1.58,6.49.59s2,6.2,2,6.2c-.29,1.68-.52,3.07-.49,3.09s.63,1.24,1.35,2.72C230.4,183.82,233,189.25,230.06,193Z" transform="translate(0 -0.51)"/><path class="cls-48" d="M232.06,169.13a3.54,3.54,0,0,0-.65,5h0a3.82,3.82,0,0,0,5.27,1l4.17-3.34c1.86-1.61,3-4.5,1.35-6.63h0c-2.16-3.19-2.29-2.9-6.08.41Z" transform="translate(0 -0.51)"/><path class="cls-48" d="M242.34,183.28l-3.67,1.13a3.22,3.22,0,0,1-2.91-.58,3.08,3.08,0,0,1-1.1-1.64,3.24,3.24,0,0,1,2.22-4l4.65-1.67a3.21,3.21,0,0,1,3.18.44,1.24,1.24,0,0,1,.26.25c.53.85-.38,3.58-1.36,5A2.18,2.18,0,0,1,242.34,183.28Z" transform="translate(0 -0.51)"/><path class="cls-48" d="M229.27,166.91a3.54,3.54,0,0,1-4.69,1.75h0a3.83,3.83,0,0,1-2.17-4.92l2.31-4.81c1.16-2.17,3.73-3.9,6.16-2.8h0c3.59,1.39,3.35,1.58,1,6Z" transform="translate(0 -0.51)"/><path class="cls-48" d="M213.18,160.06l-.28,3.83a3.2,3.2,0,0,0,1.21,2.71,3.1,3.1,0,0,0,1.85.7,3.24,3.24,0,0,0,3.41-3.06l.59-4.91a3.24,3.24,0,0,0-1.15-3,1.21,1.21,0,0,0-.3-.2c-.94-.32-3.4,1.18-4.59,2.46A2.14,2.14,0,0,0,213.18,160.06Z" transform="translate(0 -0.51)"/><path class="cls-48" d="M255.69,235.22a8.43,8.43,0,0,1-10.84,4.91,7.3,7.3,0,0,1-3.78-3.81,2.83,2.83,0,0,0-3.86-1.59,7.3,7.3,0,0,1-5.36,0,8.41,8.41,0,0,1-4.22-11.12c1.82-4.42,7.85-4.74,7.85-4.74,1.64-.09,3-.15,3-.14s1.14-.86,2.47-1.93c0,0,3.17-2.57,6.4-1.23s3.67,5.39,3.67,5.39c.18,1.69.35,3.09.37,3.1s1,1,2.06,2.25C253.48,226.33,257.51,230.81,255.69,235.22Z" transform="translate(0 -0.51)"/><path class="cls-48" d="M251,211.75a3.54,3.54,0,0,0,.75,4.95h0a3.81,3.81,0,0,0,5.34-.49l3.09-4.35c1.34-2.07,1.6-5.16-.54-6.75h0c-3-2.47-3-2.16-5.74,2.08Z" transform="translate(0 -0.51)"/><path class="cls-48" d="M264.81,222.5l-3.22,2.1a3.22,3.22,0,0,1-3,.25,3.12,3.12,0,0,1-1.51-1.28,3.23,3.23,0,0,1,1-4.46l4-2.9a3.25,3.25,0,0,1,3.18-.45,1.41,1.41,0,0,1,.32.17c.74.66.62,3.54.08,5.21A2.16,2.16,0,0,1,264.81,222.5Z" transform="translate(0 -0.51)"/><path class="cls-48" d="M247.71,210.38a3.55,3.55,0,0,1-4,3h0a3.83,3.83,0,0,1-3.45-4.13l.89-5.26c.51-2.41,2.5-4.78,5.15-4.4h0c3.83.34,3.65.59,2.59,5.52Z" transform="translate(0 -0.51)"/><path class="cls-48" d="M230.35,208.26l.8,3.76a3.24,3.24,0,1,0,6.31-1.46l-.79-4.88a3.22,3.22,0,0,0-1.94-2.56,1,1,0,0,0-.34-.11c-1,0-2.94,2.07-3.73,3.63A2.16,2.16,0,0,0,230.35,208.26Z" transform="translate(0 -0.51)"/><path class="cls-48" d="M199.55,225.55a5.44,5.44,0,0,1-3.68,1.76,6.18,6.18,0,0,1-5.32-1.9l2.07-.86s3.75-1.58,6.48.59A3.54,3.54,0,0,1,199.55,225.55Z" transform="translate(0 -0.51)"/><path class="cls-48" d="M201.66,246.32a8.39,8.39,0,0,1-11.77,1.7,7.26,7.26,0,0,1-2.57-4.69,2.85,2.85,0,0,0-3.27-2.61,7.25,7.25,0,0,1-5.16-1.46,8.41,8.41,0,0,1-1-11.85,7.6,7.6,0,0,1,5.6-2.6,10.87,10.87,0,0,0,1.3,4.4c3.95,7.33,8.83,14.93,18.25,12.26A7,7,0,0,1,201.66,246.32Z" transform="translate(0 -0.51)"/><path class="cls-48" d="M211.54,225.84l-3.26,2.6a3.51,3.51,0,0,1-3.94.13,4.86,4.86,0,0,1-1.32-1.14,3.55,3.55,0,0,1,.63-5l4.06-3.58a17.82,17.82,0,0,1,3.21-2.51c.14,3.11.5,6.32.62,9.44C211.53,225.82,211.55,225.83,211.54,225.84Z" transform="translate(0 -0.51)"/><path class="cls-48" d="M212.45,225.12l-.91.72s0,0,0,0c-.12-3.12-.48-6.33-.62-9.44a1.21,1.21,0,0,1,1.14,0,7.12,7.12,0,0,1,1.75,2.09C215.42,220.61,214.31,223.49,212.45,225.12Z" transform="translate(0 -0.51)"/><path class="cls-48" d="M215.21,235.56a2.11,2.11,0,0,1-1.26,1.05l-3.68,1.13a3.28,3.28,0,0,1-1.35.1,13.3,13.3,0,0,0,2.66-7.45l1.56-.55a3.2,3.2,0,0,1,3.17.44,3.31,3.31,0,0,1,.27.26C217.1,231.38,216.19,234.11,215.21,235.56Z" transform="translate(0 -0.51)"/><path class="cls-48" d="M208.92,237.84a3.21,3.21,0,0,1-1.57-.67,3.15,3.15,0,0,1-1.09-1.65,3.23,3.23,0,0,1,2.23-4l3.09-1.13A13.3,13.3,0,0,1,208.92,237.84Z" transform="translate(0 -0.51)"/><path class="cls-48" d="M201.29,219.48a14.49,14.49,0,0,0-3.56-9,4.3,4.3,0,0,1,4.74-1,13.37,13.37,0,0,1,1.86.81c1.53.88,1,1.77-.88,5.22Z" transform="translate(0 -0.51)"/><path class="cls-48" d="M188.81,220.46a3,3,0,0,1-1.24.17,3.2,3.2,0,0,1-2.9-2.16h0c1.11-2.82,2.63-5.52,3.25-8.37a3.19,3.19,0,0,1,2.18-.62,1,1,0,0,1,.3.2,3.26,3.26,0,0,1,1.15,3l-.18,1.5A9,9,0,0,0,188.81,220.46Z" transform="translate(0 -0.51)"/><path class="cls-48" d="M184.68,218.46a3.34,3.34,0,0,1-.18-1.23l.27-3.83a2.18,2.18,0,0,1,.74-1.47,11,11,0,0,1,2.42-1.84C187.31,212.94,185.79,215.64,184.68,218.46Z" transform="translate(0 -0.51)"/><path class="cls-48" d="M188.81,220.46a9,9,0,0,1,2.57-6.3l-.41,3.41A3.26,3.26,0,0,1,188.81,220.46Z" transform="translate(0 -0.51)"/><path class="cls-48" d="M229,194.07a8.31,8.31,0,0,1-10.75.63,7.33,7.33,0,0,1-2.58-4.7,2.82,2.82,0,0,0-3.27-2.6,7.38,7.38,0,0,1-5.16-1.46,7.83,7.83,0,0,1-2.22-2.85c3.67,3.34,9.3,1.84,13.5,2.32C223.56,185.84,225.64,192,229,194.07Z" transform="translate(0 -0.51)"/><path class="cls-48" d="M229.25,179.66A17.8,17.8,0,0,1,218,176a58.92,58.92,0,0,1-5.54-4.5,11.94,11.94,0,0,1,2.68.24c1.6.36,2.93.68,3,.7s1.32-.51,2.9-1.17c0,0,3.75-1.58,6.48.59s2,6.18,2,6.18C229.43,178.61,229.34,179.19,229.25,179.66Z" transform="translate(0 -0.51)"/><path class="cls-48" d="M240.85,171.78l-4.17,3.33a3.54,3.54,0,0,1-4,.13,4.84,4.84,0,0,1-1.32-1.13,3.57,3.57,0,0,1,.65-5l4.06-3.57.73-.65.5.26a47.49,47.49,0,0,0,5.57,3A6.07,6.07,0,0,1,240.85,171.78Z" transform="translate(0 -0.51)"/><path class="cls-48" d="M243.61,182.22a2.14,2.14,0,0,1-1.27,1.07l-3.67,1.13a3.31,3.31,0,0,1-2.91-.58,3.22,3.22,0,0,1-1.11-1.65,3.17,3.17,0,0,1,.82-3.14l1.39-.2a12.09,12.09,0,0,1,7.83,1.14A9.84,9.84,0,0,1,243.61,182.22Z" transform="translate(0 -0.51)"/><path class="cls-48" d="M244.69,180a12.09,12.09,0,0,0-7.83-1.14l-1.39.2a3.1,3.1,0,0,1,1.42-.87l4.64-1.67a3.22,3.22,0,0,1,3.18.45,1.5,1.5,0,0,1,.27.24A4.2,4.2,0,0,1,244.69,180Z" transform="translate(0 -0.51)"/><path class="cls-48" d="M229.27,166.9a3.53,3.53,0,0,1-4.69,1.76,2.39,2.39,0,0,1-.32-.16,3.77,3.77,0,0,1-1.85-4.76l2.3-4.81c1-1.92,3.17-3.51,5.34-3.06-2.28.63-3.8,1.64-1.6,4.46a9,9,0,0,0,3.2,2.2Z" transform="translate(0 -0.51)"/><path class="cls-48" d="M216,167.31a3.11,3.11,0,0,1-1.85-.71,3.26,3.26,0,0,1-1.22-2.7l.28-3.84a2.24,2.24,0,0,1,.75-1.47c1.19-1.27,3.65-2.78,4.6-2.46l.29.2a3.21,3.21,0,0,1,1.14,3l-.59,4.91A3.24,3.24,0,0,1,216,167.31Z" transform="translate(0 -0.51)"/><path class="cls-48" d="M253.37,226.22c-4.88,2.95-11.91-3.75-14.92-6.57-3.26,4.6-6.92,8.4-11.37,9a9,9,0,0,1,.55-5.06c1.82-4.41,7.84-4.74,7.84-4.74,1.65-.08,3-.15,3-.14s1.15-.86,2.47-1.93c0,0,3.17-2.57,6.4-1.24s3.68,5.4,3.68,5.4c.17,1.69.34,3.09.36,3.11S252.33,225.06,253.37,226.22Z" transform="translate(0 -0.51)"/><path class="cls-48" d="M249.41,240.54a7.74,7.74,0,0,1-4.57-.41,7.31,7.31,0,0,1-3.77-3.8,2.84,2.84,0,0,0-3.87-1.61,7.21,7.21,0,0,1-5.36,0,8.35,8.35,0,0,1-1-.53c2.73-3.28,6.11-6.24,8.86-5.32,1.85.77,3.21,5.83,4.33,7.32A11.41,11.41,0,0,0,249.41,240.54Z" transform="translate(0 -0.51)"/><path class="cls-48" d="M260.18,211.85,257.27,216c.25-4.17,0-8.78.06-12.38a2.28,2.28,0,0,1,.63.26,13.12,13.12,0,0,1,1.69,1.28C261.78,206.71,261.53,209.79,260.18,211.85Z" transform="translate(0 -0.51)"/><path class="cls-48" d="M264.81,222.5l-1.21.79c.08-2.55.11-5.18.36-7.74a2.82,2.82,0,0,1,1.37.21,1.41,1.41,0,0,1,.32.17c.74.66.62,3.55.08,5.2A2.19,2.19,0,0,1,264.81,222.5Z" transform="translate(0 -0.51)"/><path class="cls-48" d="M243.69,213.36a4.45,4.45,0,0,1-1.57-.56,3.55,3.55,0,0,1-1.88-3.56l.26-1.56a15.85,15.85,0,0,0,8.68-4q-.13.62-.3,1.41l-1.16,5.28A3.55,3.55,0,0,1,243.69,213.36Z" transform="translate(0 -0.51)"/><path class="cls-48" d="M237,207.58c-2.54-.34-4.57-1.11-6.46-.66.06-.09.1-.19.15-.28.79-1.56,2.73-3.68,3.73-3.63a1.83,1.83,0,0,1,.33.11,3.23,3.23,0,0,1,1.95,2.56Z" transform="translate(0 -0.51)"/><path class="cls-33" d="M184,412.61h9.08v2.73h-5.82v3.33h5v2.73h-5V427H184Z" transform="translate(0 -0.51)"/><path class="cls-33" d="M195.51,412.61h9v2.73h-5.75v2.89h4.89v2.71h-4.89v3.31h6V427h-9.23Z" transform="translate(0 -0.51)"/><path class="cls-33" d="M207.54,412.61h9v2.73H210.8v2.89h4.9v2.71h-4.9v3.31h6V427h-9.24Z" transform="translate(0 -0.51)"/><path class="cls-33" d="M219.57,412.61h4.06c4.41,0,7.23,2.18,7.23,7.12s-2.82,7.25-7,7.25h-4.26Zm3.88,11.75c2.42,0,4.08-1.19,4.08-4.63s-1.66-4.5-4.08-4.5h-.62v9.13Z" transform="translate(0 -0.51)"/><path class="cls-33" d="M233.54,412.61h3.27V427h-3.27Z" transform="translate(0 -0.51)"/><path class="cls-33" d="M240.15,412.61h3.33l3.75,7.14,1.43,3.17h.09c-.16-1.52-.42-3.54-.42-5.24v-5.07h3.08V427h-3.32l-3.75-7.16-1.41-3.13h-.09c.16,1.58.42,3.5.42,5.2V427h-3.11Z" transform="translate(0 -0.51)"/><path class="cls-33" d="M261.18,412.35a6.22,6.22,0,0,1,4.47,1.87l-1.78,2a3.55,3.55,0,0,0-2.65-1.08c-2.2,0-3.79,1.75-3.79,4.63s1.34,4.68,4.06,4.68A2.54,2.54,0,0,0,263,424v-2.47h-2.38v-2.64h5.26v6.61a7.55,7.55,0,0,1-4.82,1.74c-3.88,0-7-2.53-7-7.36S257.28,412.35,261.18,412.35Z" transform="translate(0 -0.51)"/></g></g></svg>