<svg xmlns="http://www.w3.org/2000/svg" viewBox="0 0 449.57 449.57"><defs><style>.cls-1{isolation:isolate;}.cls-2{fill:#7cccc7;}.cls-3{fill:#7d7d7d;opacity:0.47;mix-blend-mode:color-burn;}.cls-10,.cls-17,.cls-4{opacity:0.7;}.cls-5{fill:#fff;}.cls-10,.cls-6,.cls-7,.cls-9{fill:gray;}.cls-6{fill-rule:evenodd;}.cls-6,.cls-7,.cls-8{opacity:0.65;mix-blend-mode:color-dodge;}.cls-10,.cls-13,.cls-17{mix-blend-mode:multiply;}.cls-11{fill:#574038;}.cls-12{fill:#423123;}.cls-13{fill:#ccc;}.cls-14{fill:#e05728;}.cls-15{fill:#ec9b0a;}.cls-16{fill:#ffaa17;}.cls-18{fill:#5768de;}.cls-19{fill:#7d8aeb;}.cls-20{fill:#b5431d;}.cls-21{fill:#f4bb9b;}.cls-22{fill:#664833;}.cls-23{fill:#4d3530;}.cls-24{fill:#96694b;}.cls-25{fill:#3a221d;}.cls-26{fill:#d8653a;}.cls-27{fill:#00302d;}.cls-28{fill:#ffaa12;}.cls-29{fill:#ffc04f;}.cls-30{fill:#b57c17;}.cls-31{fill:#cd8c1a;}.cls-32{fill:#ffa400;}.cls-33{fill:#ffa90f;}.cls-34{fill:#fda60a;}.cls-35{fill:#b35d3d;}.cls-36{fill:#f49d00;}.cls-37{fill:#ffda99;}</style></defs><title>3</title><g class="cls-1"><g id="Layer_4" data-name="Layer 4"><rect class="cls-2" width="449.57" height="449.57"/><path class="cls-3" d="M365.56,240.67a140.25,140.25,0,1,0-255.8,79.51h231.1A139.58,139.58,0,0,0,365.56,240.67Z" transform="translate(-0.35)"/><g class="cls-4"><path class="cls-5" d="M106.2,327.42h-3.08a.93.93,0,0,1-.76-.4c-.58-.85-1.16-1.7-1.73-2.57a.93.93,0,0,1,.26-1.28.92.92,0,0,1,1.28.27c.47.71,1,1.43,1.44,2.13h2.59a.93.93,0,0,1,0,1.85Z" transform="translate(-0.35)"/><path class="cls-5" d="M338.32,327.42h-6.11a.93.93,0,1,1,0-1.85h6.11a.93.93,0,0,1,0,1.85Zm-12.22,0H320a.93.93,0,0,1,0-1.85h6.11a.93.93,0,0,1,0,1.85Zm-12.22,0h-6.11a.93.93,0,0,1,0-1.85h6.11a.93.93,0,1,1,0,1.85Zm-12.21,0h-6.11a.93.93,0,1,1,0-1.85h6.11a.93.93,0,0,1,0,1.85Zm-12.22,0h-6.11a.93.93,0,0,1,0-1.85h6.11a.93.93,0,0,1,0,1.85Zm-12.22,0h-6.11a.93.93,0,0,1,0-1.85h6.11a.93.93,0,1,1,0,1.85Zm-12.21,0h-6.11a.93.93,0,1,1,0-1.85H265a.93.93,0,0,1,0,1.85Zm-12.22,0h-6.11a.93.93,0,0,1,0-1.85h6.11a.93.93,0,0,1,0,1.85Zm-12.22,0h-6.1a.93.93,0,1,1,0-1.85h6.1a.93.93,0,1,1,0,1.85Zm-12.21,0h-6.11a.93.93,0,1,1,0-1.85h6.11a.93.93,0,0,1,0,1.85Zm-12.22,0H210a.93.93,0,0,1,0-1.85h6.11a.93.93,0,0,1,0,1.85Zm-12.22,0h-6.1a.93.93,0,1,1,0-1.85h6.1a.93.93,0,1,1,0,1.85Zm-12.21,0h-6.11a.93.93,0,1,1,0-1.85h6.11a.93.93,0,0,1,0,1.85Zm-12.22,0h-6.11a.93.93,0,0,1,0-1.85h6.11a.93.93,0,0,1,0,1.85Zm-12.22,0h-6.1a.93.93,0,1,1,0-1.85h6.1a.93.93,0,1,1,0,1.85Zm-12.21,0H149a.93.93,0,0,1,0-1.85h6.11a.93.93,0,0,1,0,1.85Zm-12.22,0h-6.11a.93.93,0,0,1,0-1.85h6.11a.93.93,0,0,1,0,1.85Zm-12.22,0h-6.1a.93.93,0,1,1,0-1.85h6.1a.93.93,0,1,1,0,1.85Zm-12.21,0h-6.11a.93.93,0,0,1,0-1.85h6.11a.93.93,0,0,1,0,1.85Z" transform="translate(-0.35)"/><path class="cls-5" d="M347.5,327.42h-3.08a.93.93,0,0,1,0-1.85H347c.48-.7,1-1.42,1.43-2.13a.91.91,0,0,1,1.28-.26.92.92,0,0,1,.27,1.28c-.57.86-1.15,1.71-1.74,2.56A.91.91,0,0,1,347.5,327.42Z" transform="translate(-0.35)"/><path class="cls-5" d="M352.52,319.63a.94.94,0,0,1-.79-1.4c1.06-1.76,2.09-3.55,3.07-5.35a.92.92,0,1,1,1.62.89c-1,1.81-2,3.63-3.1,5.41A.93.93,0,0,1,352.52,319.63ZM98,319.47a.92.92,0,0,1-.79-.45c-1.06-1.78-2.1-3.6-3.09-5.42a.91.91,0,0,1,.37-1.25.92.92,0,0,1,1.25.37c1,1.79,2,3.59,3.06,5.35a.93.93,0,0,1-.32,1.27A.91.91,0,0,1,98,319.47Zm260.46-10.72a.86.86,0,0,1-.41-.1.92.92,0,0,1-.42-1.24c.9-1.83,1.78-3.7,2.6-5.58a.92.92,0,1,1,1.69.75c-.83,1.9-1.72,3.8-2.63,5.65A.92.92,0,0,1,358.46,308.75Zm-266.38-.17a.92.92,0,0,1-.83-.52c-.91-1.86-1.8-3.77-2.63-5.66a.92.92,0,0,1,.48-1.21.9.9,0,0,1,1.21.47c.83,1.87,1.7,3.75,2.6,5.59a.91.91,0,0,1-.42,1.23A.86.86,0,0,1,92.08,308.58Zm271.38-11.17a.83.83,0,0,1-.34-.07.91.91,0,0,1-.52-1.19c.74-1.91,1.46-3.85,2.13-5.78a.91.91,0,0,1,1.17-.58.93.93,0,0,1,.57,1.18c-.67,2-1.4,3.92-2.15,5.85A.93.93,0,0,1,363.46,297.41ZM87.1,297.23a1,1,0,0,1-.87-.59c-.75-1.93-1.47-3.91-2.14-5.86a.92.92,0,0,1,.57-1.17.93.93,0,0,1,1.18.57c.66,1.93,1.37,3.88,2.12,5.79a.92.92,0,0,1-.53,1.19A.78.78,0,0,1,87.1,297.23Zm280.39-11.54a1.09,1.09,0,0,1-.26,0,.93.93,0,0,1-.63-1.15c.59-2,1.13-4,1.63-5.94a.93.93,0,0,1,1.8.45c-.51,2-1.07,4-1.66,6A.91.91,0,0,1,367.49,285.69ZM83.08,285.5a.93.93,0,0,1-.89-.66c-.59-2-1.14-4-1.64-6a.92.92,0,1,1,1.79-.45c.5,2,1,4,1.62,5.94a.92.92,0,0,1-.62,1.15A.82.82,0,0,1,83.08,285.5Zm287.44-11.83h-.19a.94.94,0,0,1-.72-1.1c.42-2,.8-4,1.13-6.05a.91.91,0,0,1,1.06-.76.92.92,0,0,1,.76,1.06c-.34,2.05-.72,4.11-1.14,6.13A.92.92,0,0,1,370.52,273.67Zm-290.46-.2a.92.92,0,0,1-.9-.74c-.42-2-.8-4.09-1.13-6.13a.92.92,0,0,1,1.82-.3c.33,2,.71,4.06,1.12,6.06a.92.92,0,0,1-.72,1.09A.62.62,0,0,1,80.06,273.47Zm292.47-12h-.11a.92.92,0,0,1-.81-1c.25-2,.46-4.08.62-6.12a.92.92,0,0,1,1.84.14c-.16,2.07-.37,4.16-.62,6.21A.93.93,0,0,1,372.53,261.45Zm-294.46-.22a.93.93,0,0,1-.92-.81c-.24-2.05-.45-4.14-.61-6.21a.92.92,0,0,1,.84-1,.93.93,0,0,1,1,.85c.16,2,.36,4.11.61,6.13a.92.92,0,0,1-.81,1ZM373.51,249.1h0a.93.93,0,0,1-.89-1c.07-1.91.11-3.83.11-5.72V242a.93.93,0,0,1,.92-.93h0a.93.93,0,0,1,.93.92v.45c0,1.91,0,3.86-.11,5.79A.93.93,0,0,1,373.51,249.1ZM77.1,248.87a.92.92,0,0,1-.92-.89c-.07-1.85-.1-3.72-.1-5.56v-.68a.92.92,0,0,1,.92-.92h0a.93.93,0,0,1,.92.93v.67c0,1.81,0,3.66.09,5.49a.92.92,0,0,1-.89,1ZM373.48,236.7a.92.92,0,0,1-.93-.88c-.09-2-.22-4.12-.4-6.14a.93.93,0,0,1,1.85-.16c.17,2,.31,4.14.4,6.22a.92.92,0,0,1-.88,1Zm-296.32-.22h0a.94.94,0,0,1-.88-1c.1-2.08.24-4.18.42-6.22a.9.9,0,0,1,1-.84.92.92,0,0,1,.84,1c-.18,2-.32,4.09-.41,6.15A.92.92,0,0,1,77.16,236.48Zm295.26-12.12a.93.93,0,0,1-.92-.81c-.25-2-.56-4.07-.91-6.09a.93.93,0,1,1,1.83-.31c.35,2,.65,4.12.91,6.17a.92.92,0,0,1-.79,1Zm-294.18-.23h-.12a.92.92,0,0,1-.8-1c.26-2.05.57-4.12.93-6.17a.91.91,0,0,1,1.06-.75.92.92,0,0,1,.76,1.07c-.35,2-.66,4.07-.92,6.08A.92.92,0,0,1,78.24,224.13Zm292.09-12a.92.92,0,0,1-.9-.73c-.43-2-.9-4-1.41-6a.93.93,0,0,1,.66-1.13.94.94,0,0,1,1.13.67c.51,2,1,4,1.43,6.07a.92.92,0,0,1-.71,1.09A.68.68,0,0,1,370.33,212.14Zm-290-.22-.2,0a.93.93,0,0,1-.71-1.1c.44-2,.93-4.07,1.45-6.07a.92.92,0,1,1,1.78.47c-.51,2-1,4-1.42,6A.93.93,0,0,1,80.34,211.92Zm286.89-11.78a.92.92,0,0,1-.88-.65c-.6-2-1.24-3.93-1.92-5.87a.92.92,0,1,1,1.74-.61c.69,2,1.35,4,1.95,5.94a.92.92,0,0,1-.62,1.15A.84.84,0,0,1,367.23,200.14Zm-283.77-.21a1.26,1.26,0,0,1-.27,0,.93.93,0,0,1-.62-1.16c.61-2,1.27-4,2-5.92a.93.93,0,1,1,1.75.61c-.68,1.93-1.33,3.9-1.93,5.85A.93.93,0,0,1,83.46,199.93Zm279.66-11.51a.93.93,0,0,1-.86-.58c-.76-1.9-1.57-3.81-2.41-5.69a.92.92,0,0,1,1.69-.75c.85,1.89,1.67,3.83,2.44,5.75a.92.92,0,0,1-.52,1.2A.83.83,0,0,1,363.12,188.42Zm-275.54-.18a.84.84,0,0,1-.35-.07.92.92,0,0,1-.51-1.2c.77-1.92,1.59-3.85,2.43-5.72a.92.92,0,0,1,1.69.75c-.83,1.85-1.64,3.76-2.41,5.66A.92.92,0,0,1,87.58,188.24ZM358,177.09a.93.93,0,0,1-.83-.51c-.91-1.82-1.88-3.66-2.87-5.46a.92.92,0,1,1,1.61-.89c1,1.82,2,3.68,2.91,5.52a.92.92,0,0,1-.41,1.24A.86.86,0,0,1,358,177.09ZM92.65,177a1.06,1.06,0,0,1-.42-.09.93.93,0,0,1-.41-1.24c.93-1.85,1.91-3.71,2.91-5.51a.93.93,0,1,1,1.62.9c-1,1.78-2,3.61-2.88,5.44A.91.91,0,0,1,92.65,177ZM352,166.23a.92.92,0,0,1-.79-.44c-1.07-1.75-2.19-3.5-3.33-5.2a.93.93,0,0,1,.26-1.28.92.92,0,0,1,1.28.26c1.15,1.71,2.28,3.48,3.36,5.26a.93.93,0,0,1-.3,1.27A1,1,0,0,1,352,166.23Zm-253.38-.08a1,1,0,0,1-.48-.14.92.92,0,0,1-.31-1.27c1.08-1.76,2.21-3.53,3.36-5.25a.93.93,0,0,1,1.54,1c-1.14,1.7-2.26,3.44-3.32,5.18A.92.92,0,0,1,98.65,166.15Zm246.48-10.23a.93.93,0,0,1-.75-.38c-1.21-1.65-2.46-3.3-3.74-4.9a.93.93,0,1,1,1.45-1.15c1.29,1.62,2.56,3.29,3.79,5a.92.92,0,0,1-.21,1.29A.9.9,0,0,1,345.13,155.92Zm-239.59-.06a.9.9,0,0,1-.54-.18.91.91,0,0,1-.2-1.29c1.22-1.67,2.49-3.34,3.78-4.95a.92.92,0,1,1,1.44,1.15c-1.27,1.59-2.53,3.24-3.73,4.89A.93.93,0,0,1,105.54,155.86Zm231.86-9.64a.9.9,0,0,1-.7-.32c-1.33-1.54-2.72-3.07-4.13-4.56a.93.93,0,1,1,1.35-1.27c1.42,1.51,2.83,3.06,4.18,4.62a.92.92,0,0,1-.7,1.53Zm-224.14,0a1,1,0,0,1-.61-.23.93.93,0,0,1-.09-1.3c1.36-1.56,2.77-3.12,4.19-4.62a.92.92,0,1,1,1.34,1.26c-1.4,1.49-2.79,3-4.13,4.57A.92.92,0,0,1,113.26,146.18Zm215.64-9a.91.91,0,0,1-.65-.26c-1.45-1.42-3-2.83-4.49-4.21a.92.92,0,0,1,1.23-1.37c1.55,1.39,3.08,2.82,4.56,4.26a.92.92,0,0,1-.65,1.58Zm-207.14,0a.92.92,0,0,1-.64-1.58c1.48-1.45,3-2.88,4.55-4.26a.93.93,0,0,1,1.31.07.92.92,0,0,1-.07,1.3c-1.52,1.37-3,2.79-4.5,4.21A.9.9,0,0,1,121.76,137.16Zm197.92-8.23a.92.92,0,0,1-.59-.22c-1.57-1.3-3.2-2.58-4.82-3.81a.93.93,0,0,1-.18-1.3.91.91,0,0,1,1.29-.18c1.65,1.25,3.29,2.55,4.89,3.87a.93.93,0,0,1,.13,1.3A1,1,0,0,1,319.68,128.93Zm-188.69,0a.93.93,0,0,1-.59-1.64c1.6-1.31,3.24-2.62,4.9-3.87a.92.92,0,1,1,1.11,1.47c-1.63,1.24-3.26,2.53-4.83,3.83A.93.93,0,0,1,131,128.89Zm178.82-7.44a.92.92,0,0,1-.52-.17c-1.68-1.16-3.4-2.31-5.13-3.4a.92.92,0,0,1-.28-1.28.91.91,0,0,1,1.27-.28c1.75,1.1,3.5,2.26,5.19,3.44a.93.93,0,0,1,.23,1.29A.91.91,0,0,1,309.81,121.45Zm-168.93,0a.93.93,0,0,1-.76-.4.92.92,0,0,1,.23-1.28c1.71-1.19,3.46-2.35,5.2-3.45a.92.92,0,0,1,1.28.28.94.94,0,0,1-.29,1.28c-1.72,1.09-3.45,2.23-5.14,3.4A.92.92,0,0,1,140.88,121.4Zm158.48-6.59a.88.88,0,0,1-.46-.12c-1.77-1-3.58-2-5.39-3a.93.93,0,0,1,.86-1.64c1.83,1,3.66,2,5.46,3a.92.92,0,0,1-.47,1.72Zm-148,0a.93.93,0,0,1-.46-1.73c1.8-1,3.65-2,5.47-3a.92.92,0,0,1,1.25.39.94.94,0,0,1-.39,1.25c-1.81.94-3.63,1.94-5.41,3A1,1,0,0,1,151.36,114.76Zm137-5.68A1.09,1.09,0,0,1,288,109c-1.85-.88-3.74-1.72-5.61-2.5a.93.93,0,0,1,.71-1.71c1.9.8,3.81,1.65,5.69,2.53a.92.92,0,0,1-.4,1.76Zm-126-.06a.92.92,0,0,1-.39-1.76c1.87-.88,3.79-1.73,5.71-2.54a.93.93,0,0,1,.72,1.71c-1.9.79-3.8,1.63-5.64,2.5A.93.93,0,0,1,162.36,109ZM277,104.29a1.13,1.13,0,0,1-.32-.05c-1.93-.72-3.89-1.4-5.82-2a.93.93,0,0,1-.6-1.16.94.94,0,0,1,1.17-.6c2,.64,3.94,1.33,5.89,2a.92.92,0,0,1-.32,1.79Zm-103.19-.07a.92.92,0,0,1-.32-1.79c1.93-.72,3.92-1.41,5.91-2.05a.92.92,0,1,1,.56,1.76c-2,.63-3.92,1.31-5.83,2A1,1,0,0,1,173.82,104.22Zm91.4-3.75a1.18,1.18,0,0,1-.25,0c-2-.55-4-1.06-6-1.53a.91.91,0,0,1-.69-1.11.93.93,0,0,1,1.11-.69c2,.47,4,1,6,1.55a.93.93,0,0,1-.25,1.82Zm-79.59-.07a.92.92,0,0,1-.25-1.81c2-.56,4-1.07,6-1.54a.92.92,0,1,1,.42,1.8c-2,.46-4,1-6,1.52A1,1,0,0,1,185.63,100.4Zm67.53-2.76H253c-2-.39-4-.73-6.07-1a.94.94,0,0,1-.78-1,.91.91,0,0,1,1.05-.78c2,.3,4.11.64,6.15,1a.92.92,0,0,1,.73,1.08A.91.91,0,0,1,253.16,97.64Zm-55.46,0a.92.92,0,0,1-.17-1.83c2-.38,4.09-.73,6.15-1a.92.92,0,0,1,.26,1.83c-2,.3-4.07.64-6.07,1A.52.52,0,0,1,197.7,97.6Zm43.2-1.76h-.1c-2-.21-4.09-.39-6.14-.51a.93.93,0,0,1,.12-1.85c2.07.13,4.16.31,6.21.52a.92.92,0,0,1-.09,1.84Zm-30.94,0a.92.92,0,0,1-.1-1.84c2-.21,4.14-.39,6.22-.51a.91.91,0,0,1,1,.86.93.93,0,0,1-.87,1c-2.05.13-4.11.3-6.14.5Zm18.57-.75h0c-2,0-4.12,0-6.16,0h0a.92.92,0,1,1,0-1.84c2.08,0,4.16,0,6.24,0a.93.93,0,0,1,0,1.85Z" transform="translate(-0.35)"/></g><path class="cls-6" d="M399.45,205.66a10.5,10.5,0,0,1,5.21,9v32.2a3.27,3.27,0,0,1-3.27,3.26H385.24A3.27,3.27,0,0,1,382,246.9V214.7a10.49,10.49,0,0,1,5.21-9v1.15c3.57,1.1,9.39.8,12.26,0v-1.15ZM389.2,197v7.85a16.29,16.29,0,0,0,8.24,0V197a17,17,0,0,0-8.24,0Zm7,28.91a8.71,8.71,0,0,0-5.83,0,2.51,2.51,0,0,0-.6-1.22l.11.46a9.09,9.09,0,0,0-5.39-3.6c.11.95-.18,1.95-.14,2.95l-.15-.46c0,1.65.12,2.78,1.46,3.91l-.37,0c.47.83,0,1.55,1.84,2.23l-.58,0c.63.48.38,1.07.91,1.58-.22,0-.33-.08-.63-.26.28.36.25.65.61.9a2.15,2.15,0,0,1-1.07,0,4.44,4.44,0,0,0,.74.8,2.62,2.62,0,0,1-1.21-.09,4.17,4.17,0,0,0,1.26,1.59,1.21,1.21,0,0,1-.85-.29c.65,2.61,2.89,2,4.81,3.31a4,4,0,0,0,1,.47,4.31,4.31,0,0,0,2.11.05,3.9,3.9,0,0,0,1.19-.52c1.93-1.3,4.17-.7,4.82-3.31a1.21,1.21,0,0,1-.85.29,4.17,4.17,0,0,0,1.26-1.59,2.66,2.66,0,0,1-1.22.09,3.82,3.82,0,0,0,.74-.8,2.11,2.11,0,0,1-1.06,0c.36-.25.33-.54.61-.9-.31.18-.42.26-.63.26.53-.51.27-1.1.91-1.58l-.59,0c1.86-.68,1.37-1.4,1.85-2.23l-.37,0c1.34-1.13,1.43-2.26,1.45-3.91l-.14.46c0-1-.25-2-.14-2.95a9.12,9.12,0,0,0-5.4,3.6l.12-.46A2.61,2.61,0,0,0,396.23,225.91Z" transform="translate(-0.35)"/><path class="cls-7" d="M38.12,209.93a5.38,5.38,0,0,1,3.59-.47,6.14,6.14,0,0,0,.25,1.63,6,6,0,0,0,6.55,4.2l4,13.23L50.09,213.3a5.75,5.75,0,0,1-5.68-4.84,5.87,5.87,0,0,1-.06-1.32,5.72,5.72,0,0,1,8.2-4.75,6,6,0,0,1,1.48,1,5.65,5.65,0,0,1,3.34-2.74,4.26,4.26,0,0,1,.8-.2,5.74,5.74,0,0,1,2.39,11.21l1.76,11.11L64,233.64a5.65,5.65,0,0,1,1.6.14,5.26,5.26,0,0,1,1.28.45A5.74,5.74,0,0,1,65.26,245a5.67,5.67,0,0,1-1.36.05l-.37,0h-.12a5.53,5.53,0,0,1-2.83-.53,5.43,5.43,0,0,1-2.91,3.89,5,5,0,0,1-.87.35,5.49,5.49,0,0,1-6.53-2.76,5.42,5.42,0,0,1-.44-3.77,6.4,6.4,0,0,1-.14-.63A5.68,5.68,0,0,1,51,237.14l-8.66-17.07a5.5,5.5,0,0,1-4.17-10.14Z" transform="translate(-0.35)"/><g class="cls-8"><path class="cls-9" d="M343,98.89l-2.05-3.84-.23-1.76-1.23-.84-1-.09-3-3.54L334,84.39l-1.27-3.18-2.07-2.65,1.74-1.94-.05-.84-1.05,0-1.82,1.49-9.8-.46-7.86-1.1-4.47-1.82-5-3.47-1.6-.74-1.83-3.29-.55-1-.7,1.71v2.61L295.32,71l-.66,1.23-4.25,2.68v.71L292.05,77l1,.39,5.78-1.69,1.14.12L302,78.18l1.44,4,.74,4.12,3.46,2.76,2.06.77L312,96.54v.73l4.18,4.29,1-.15v-2.2l-1.64-.41-1.37-1.14.34-.53-.78-4.06,0-3.32,2.06-.24,5-2.57,2.87-1.32,4,2.65L331,91.68l7,3.56,4.26,5.58,1,1.08,1.19,0,.32-2.48ZM291.28,76.11l-.6-.5V75l.58-.37.34.44Z" transform="translate(-0.35)"/><polygon class="cls-9" points="302.76 85.15 302.86 87.58 302.54 88.91 296.21 95.9 292.41 99.09 290.5 99.67 289.65 101.56 292.87 101.56 293.74 100.17 296.14 98.64 297.08 98.66 306.51 90.53 306.67 89.62 306.68 89.62 306.8 89.51 303.2 87.07 302.76 85.15"/><polygon class="cls-9" points="323.36 86.73 320.48 88.2 320.58 90.4 322.43 94.5 322.43 96.7 319.9 100.26 318.18 100.31 317.18 101.56 317.34 102.51 319.73 102.51 324.15 98.94 325.76 98 325.76 96.95 324.89 92.75 326.61 89.53 323.36 86.73"/><path class="cls-9" d="M319.45,62.79c1.2.34,2.44.72,3.66,1.14l.12,0a.39.39,0,0,0,.38-.27.4.4,0,0,0-.24-.51c-1.24-.42-2.48-.81-3.71-1.15a.4.4,0,1,0-.21.77Z" transform="translate(-0.35)"/><path class="cls-9" d="M312,61.21c1.24.18,2.51.4,3.76.67h.09a.4.4,0,0,0,.39-.32.41.41,0,0,0-.31-.48c-1.27-.27-2.56-.49-3.82-.67a.4.4,0,0,0-.45.33A.41.41,0,0,0,312,61.21Z" transform="translate(-0.35)"/><path class="cls-9" d="M333.64,68.5c1.12.58,2.25,1.21,3.36,1.86a.46.46,0,0,0,.2,0,.39.39,0,0,0,.35-.2.41.41,0,0,0-.15-.55c-1.12-.65-2.26-1.28-3.39-1.87a.41.41,0,0,0-.54.17A.41.41,0,0,0,333.64,68.5Z" transform="translate(-0.35)"/><path class="cls-9" d="M326.69,65.27c1.17.47,2.35,1,3.52,1.53a.33.33,0,0,0,.17,0,.42.42,0,0,0,.36-.23.4.4,0,0,0-.2-.53c-1.18-.55-2.37-1.07-3.55-1.55a.41.41,0,0,0-.52.22A.4.4,0,0,0,326.69,65.27Z" transform="translate(-0.35)"/><path class="cls-9" d="M304.34,60.71h0c1.24,0,2.53,0,3.81.1h0a.4.4,0,0,0,.4-.37.4.4,0,0,0-.37-.43c-1.31-.08-2.62-.12-3.89-.1a.41.41,0,0,0-.39.41A.39.39,0,0,0,304.34,60.71Z" transform="translate(-0.35)"/><path class="cls-9" d="M285.81,65.08a22,22,0,0,0-3.06,2.45.4.4,0,0,0,.27.69.43.43,0,0,0,.28-.11,21,21,0,0,1,2.95-2.36.39.39,0,0,0,.11-.56A.4.4,0,0,0,285.81,65.08Z" transform="translate(-0.35)"/><path class="cls-9" d="M293.35,62a.41.41,0,0,0-.51-.26,30.66,30.66,0,0,0-3.62,1.44.4.4,0,0,0-.2.53.42.42,0,0,0,.37.23.38.38,0,0,0,.17,0,29.14,29.14,0,0,1,3.53-1.4A.39.39,0,0,0,293.35,62Z" transform="translate(-0.35)"/><path class="cls-9" d="M296.69,61.53h.08a37.54,37.54,0,0,1,3.77-.58.4.4,0,0,0-.09-.8c-1.31.14-2.6.34-3.84.6a.39.39,0,0,0-.31.47A.4.4,0,0,0,296.69,61.53Z" transform="translate(-0.35)"/><path class="cls-9" d="M340.26,72.43c.56.35,1.11.72,1.67,1.08a.46.46,0,0,0,.27.09.5.5,0,0,0,.4-.22.48.48,0,0,0-.14-.66c-.56-.38-1.12-.74-1.69-1.1a.48.48,0,0,0-.51.81Z" transform="translate(-0.35)"/><polygon class="cls-9" points="268.28 71.23 272.57 72.28 270.91 75.26 272 75.73 274.63 72.62 285.08 74.92 285.42 73.34 268.7 69.26 268.28 71.23"/></g><g class="cls-8"><polygon class="cls-9" points="131.36 100.77 131.24 99.86 130.6 99.41 130.06 99.37 128.49 97.51 127.75 95.2 127.08 93.54 126 92.15 126.91 91.14 126.89 90.7 126.34 90.69 125.39 91.47 120.26 91.23 116.16 90.65 113.82 89.7 113.5 89.48 110.77 91.64 111.04 91.96 111.79 94.04 112.18 96.19 113.99 97.64 115.06 98.04 116.25 101.55 116.25 101.93 118.43 104.17 118.95 104.09 118.95 102.94 118.09 102.73 117.38 102.13 117.55 101.86 117.15 99.74 117.14 98.01 118.21 97.87 120.82 96.54 122.33 95.84 124.4 97.23 126.16 99.01 129.84 100.87 132.05 103.78 132.59 104.35 133.2 104.33 133.37 103.04 132.44 102.78 131.36 100.77"/><path class="cls-9" d="M106.68,91.56l3-.88.6.06.1.12,2.18-2.25-1-.72-.83-.39-1-1.72-.27-.55-.37.9v1.36l-1.23.71-.34.64-2.22,1.41v.36l.85.75Zm-.91-.68-.32-.27v-.33l.3-.19.18.23Z" transform="translate(-0.35)"/><polygon class="cls-9" points="111.59 95.6 111.65 96.87 111.48 97.56 108.17 101.22 106.19 102.88 105.19 103.18 104.75 104.17 106.43 104.17 106.88 103.45 108.14 102.65 108.63 102.66 113.56 98.41 113.64 97.94 113.64 97.94 113.71 97.87 111.82 96.6 111.59 95.6"/><polygon class="cls-9" points="122.36 96.43 120.86 97.19 120.91 98.34 121.87 100.49 121.87 101.64 120.55 103.49 119.66 103.52 119.13 104.17 119.22 104.67 120.47 104.67 122.77 102.81 123.62 102.31 123.62 101.77 123.16 99.57 124.06 97.89 122.36 96.43"/><path class="cls-9" d="M145.27,103.71l.07-1.75-.22,0,0-.31-2.68-.33,0,.33a.13.13,0,0,1,0-.06l-2,0a1.73,1.73,0,0,0-1.85,1.31l-.25,0-.07.52,7.1,1,.07-.52-.22,0S145.27,103.73,145.27,103.71Z" transform="translate(-0.35)"/><path class="cls-9" d="M157.92,101.67l-.21.07s0,0,0-.06L157,100.1l-.21.07-.09-.26-2.54.93.08.22-.76.37-.51.06a1.74,1.74,0,0,0-1.65,1.53H151v.52h3.06l4-1.39Z" transform="translate(-0.35)"/><path class="cls-9" d="M146.8,62.81l4.58-1.49,1.19-.38.15,0A3.33,3.33,0,0,0,152.3,58s0,0,0,0a.46.46,0,0,0,.25-.26c-.37-.23-.46-.67-.71-1a1.45,1.45,0,0,0-1.48-.68,2.18,2.18,0,0,0-2.2-.31c-.43.12-1.45.32-1.77-.09a1.15,1.15,0,0,0,.06,1,3.22,3.22,0,0,1-.94-.6,2.4,2.4,0,0,0,.61,1.21l.08.09a3.74,3.74,0,0,0,.62,5.52Z" transform="translate(-0.35)"/><path class="cls-9" d="M156.93,99.35,153.12,90,152,81.16h1.2s.58-8.16.92-12.86-1.57-5.24-1.57-5.24l.56-1.87-6,2.38.82.6s-3.27,10-3.31,12.9,1.1,4.09,1.1,4.09l-2.36,10.2-1.15,9.42,3.51.44,2.47-10.87.37-.74,3.07-6.11-2.65,7.56.11.37,4.5,9.14Zm-5.74-17a1.62,1.62,0,1,1-3.24,0,1.87,1.87,0,0,1,.11-.59l-.43,0,.07-.58.86-6.94V65.86a2,2,0,0,1,2-2,2,2,0,0,1,2,2v8.62a.15.15,0,0,1,0,.07.21.21,0,0,1,0,.11l0,.14-.78,6.36-.12.93-.43,0A1.55,1.55,0,0,1,151.19,82.37Z" transform="translate(-0.35)"/><polygon class="cls-9" points="110.49 91.61 113.32 89.03 112.74 88.56 110.04 91.16 110.49 91.61"/><path class="cls-9" d="M138.53,78.35a7.93,7.93,0,0,0-.23-1.8,1.56,1.56,0,0,0,.8-.6l.16.24,4.9-3.11c.47-2,1.12-4.26,1.67-6L143,69.37l-5.81,3.69.25.38A1.64,1.64,0,0,0,136.14,75a1.58,1.58,0,0,0,.2.75L113.19,88.65l.21.17,23.12-12.76a1.61,1.61,0,0,0,1.24.59,4.69,4.69,0,0,1,0,1.35,5.37,5.37,0,0,0-.23,1.54c0,.38.38.67.72.33S138.54,78.83,138.53,78.35Zm-.47,1.1,0,.16a2.09,2.09,0,0,1,.06-1.19,0,0,0,0,1,0,0A9,9,0,0,1,138.06,79.45Z" transform="translate(-0.35)"/></g><path class="cls-10" d="M257.63,117.21,255,109l-1.51,1.21L239.43,71l-9-14.88.33-2.7L228.54,45l-8.85-11.88L217.5,49.37,216.76,53V49.79h0L205.1,36.65l-2,12.93,1.53,2.7.66,1.18-3.92,2.61L194.3,67.39l.38,5.11-15.8,26.09,4,3.76,1.05,2.59,10.4,1.58,8-1.39,10.53-8.82.81,27.8-.81-1.56V131l2.37,6.51a13.13,13.13,0,0,0-3,8.87c0,6,3.15,10.79,7,10.79a4.32,4.32,0,0,0,.88-.1,4.41,4.41,0,0,0,.89.1c3.88,0,7-4.83,7-10.79a15.63,15.63,0,0,0-.7-4.65Z" transform="translate(-0.35)"/><path class="cls-11" d="M254,113.43c-9.11,8.95-23,21.7-32.27,30.1-1.47,1.33-6.93-13-8.86-13.28l-1-35-10.53,8.83-8,1.39-10.4-1.59-1.05-2.58-4-3.76,15.8-26.09-.38-5.12L200.35,55l3.92-2.62-2.2-3.87,2-12.94,11.67,13.15V52l.73-3.66,2.2-16.22L227.5,44l2.23,8.43-.33,2.7,9,14.88Z" transform="translate(-0.35)"/><path d="M210.32,70.67a2.3,2.3,0,1,1-2.31-2.3A2.31,2.31,0,0,1,210.32,70.67Z" transform="translate(-0.35)"/><polygon class="cls-12" points="178.66 97.21 180.82 99.41 181.68 99.41 182.66 100.95 183.04 99.08 186.07 98.24 186.07 94.77 184.2 93.22 181.17 93.22 178.66 97.21"/><polygon class="cls-13" points="203.72 35.61 201.74 48.53 203.91 52.42 213.32 51.02 215.38 51.99 215.38 48.75 203.72 35.61"/><polygon class="cls-13" points="211.46 95.27 218.89 93.22 212.31 124.44 211.46 95.27"/><polygon class="cls-14" points="253.63 108 218.89 135.85 211.46 121.52 211.46 129.93 217.77 147.26 256.25 116.17 253.63 108"/><path class="cls-15" d="M227,145.32c0,6-3.14,10.78-7,10.78s-7-4.82-7-10.78,3.14-10.79,7-10.79S227,139.36,227,145.32Z" transform="translate(-0.35)"/><path class="cls-16" d="M225.21,145.32c0,6-3.15,10.78-7,10.78s-7-4.82-7-10.78,3.15-10.79,7-10.79S225.21,139.36,225.21,145.32Z" transform="translate(-0.35)"/><path class="cls-15" d="M218.89,154.7a4.19,4.19,0,0,1-.74.08c-3.09,0-5.7-4.3-5.7-9.48s2.61-9.45,5.7-9.45a4.16,4.16,0,0,1,.74.09c-2.79.57-5,4.61-5,9.36S216.1,154.13,218.89,154.7Z" transform="translate(-0.35)"/><polygon class="cls-13" points="198.97 101.32 209.97 87.87 214.01 87.87 198.97 101.32"/><g class="cls-17"><path class="cls-9" d="M330.08,303c-2.77-4.81-7.63-5.33-3.43.47s0,16.94-4.8,18.8-4.64-1.3-8.71-6.9c-.23-.31-.46-.66-.7-1l-.51-.83-.3-.51c-.14-.24-.29-.5-.43-.76l-.43-.77-.34-.65-.54-1.06-.26-.51-.65-1.35-.17-.35-.76-1.63a1.42,1.42,0,0,0-.08-.18l-.84-1.9h0c-2.3-5.29-4.48-11.05-5.88-15.21-.06-.21-.13-.41-.2-.61l-.38-1.19c-.14-.44-.28-.87-.43-1.29l-.07-.19c-.06-.17-.12-.35-.18-.51a.36.36,0,0,1,0-.09c-.05-.16-.11-.3-.17-.45l-.06-.16a31.76,31.76,0,0,0-4-7.35l-.11-.15-.32-.43-.22-.28-.15-.18c-.74-.93-1.44-1.72-2.05-2.42a11.75,11.75,0,0,1-1.4-2.29c-.14-.26-.28-.54-.42-.83L291,270l-.42-.9-.08-.16c-.11-.24-.22-.5-.34-.75l-.17-.39c-.09-.19-.17-.39-.26-.58-1.93-4.42-4.11-10-5.67-13v0c-.14-.25-.27-.49-.4-.71q-.44-.75-.87-1.41c.55-3.92.94-10.51-2.2-11.71-4-1.51-6.95.91-5.34,1.26a6.28,6.28,0,0,0,.78.07h0l.88,0-.22,0a8.14,8.14,0,0,1,.86,0l.3,0-.94,0c.76.13,1.61.61.71,2.18-.49.86-1,1.73-1.48,2.5-.47-.2-1-.39-1.51-.59a7.42,7.42,0,0,0-.77-.22l-.23-.05-.54-.09-.24,0c-.23,0-.45,0-.68,0h-.68l-.39,0-.24,0c-.31.05-.62.1-.92.17h0a16,16,0,0,0-4.76,2.19l-.31.18a1,1,0,0,1-.22,0h-.46l-.38-.05-.18,0-.39-.07-.13,0-.6-.13-.13,0c-1-.23-2.21-.54-3.43-.81l-.44-.1-.27-.06-.67-.13h0a12.1,12.1,0,0,0-3.87-.27,2.09,2.09,0,0,0-.93.41.08.08,0,0,0,0,0,1.58,1.58,0,0,0-.3.28,1.37,1.37,0,0,0-.13.2,2,2,0,0,0-.12.19,6,6,0,0,0,.18,4.5.61.61,0,0,1,.05.12q.09.22.18.42c0,.05.05.11.08.16s.12.23.18.33l.09.15q.13.21.27.39a5,5,0,0,0,3.37,1.72,47.57,47.57,0,0,1,5,2.8c.61.53-1.8.73-4.07,1.11-2.43-1-4.72-1.13-6-.47-1.78.91-1.12,4.55,1,2.1,1.23-1.42,2.12-1.33,2.59-1.09l-.15.05a.36.36,0,0,0-.21.14l-.09.05h0l0,0-.09.09a1,1,0,0,0-.21.3,3.17,3.17,0,0,0-.19.6.64.64,0,0,1,0,.07,2.83,2.83,0,0,0,0,.57v0c.2,3.37,8,4.64,12.32,5.84,4.79,1.35,5.83,5.28,5.49,10.13-.19,2.68-1,6.91-1.36,11.41-.82.52-1.78,1.13-2.92,1.88-3.8,2.5-5,3.72-4.76,6.1-3.16,2.23-2.31,4.29-1.21,11.66a30.32,30.32,0,0,0,1.25,5.61h0l.1.27c.09.22.18.43.27.61l.15.31.15.25a2.29,2.29,0,0,0,.16.23,1.57,1.57,0,0,0,.15.19,1.75,1.75,0,0,0,.28.27l.14.09.19.1.15,0a.69.69,0,0,0,.2,0h.14a.87.87,0,0,0,.31-.07.52.52,0,0,0,.13-.06,1,1,0,0,0,.23-.12l.14-.09.28-.23.07-.06.37-.39.1-.12.29-.38.1-.14c.13-.18.25-.36.38-.57a5,5,0,0,0,.74-3.24c1,.53,1.88-.46,2.71-2.26,1.26-2.73-.59-5.34-1.74-7.93a15.59,15.59,0,0,1,2.1.09c2.64,7.45,14.74,18.25,21.11,22.14a10.34,10.34,0,0,1,1.1.77c.12.09.23.2.35.3s.49.43.72.66l.24.24c.22.24.43.48.64.74l.27.33c.18.24.35.49.52.75s.22.31.32.47c.2.33.4.68.59,1l.13.28c.18.35.35.7.51,1.06h0c.08.18.15.36.22.54s.2.5.29.76.16.44.23.66l.27.83c0,.09.06.19.08.29.12.39.22.79.32,1.19,0,.1.05.19.07.29a.31.31,0,0,0,0,.08l.06.31c.14.63.26,1.25.37,1.88,0,.15,0,.29.08.43s0,.19,0,.29c.15,1,.27,2,.37,2.94l0,.34c0,.07,0,.14,0,.21-1.42,6.24,1.12,12.16,1.87,15s-1.82,7.06-4.27,11.46-.26,6.89,1.55,4.73,7.59-9.58,7.62-11.27c0-.69,0-2.43,0-4.37a20.77,20.77,0,0,1,1.69,2c1.4,2.15-.05,7.44-1.26,12.44s-2.63,10.11.12,10.69,5.08-10.81,6.63-16.23c1.91-6.71,1.46-7,.12-9.45s.28-5.36,2.7-9.6A27.68,27.68,0,0,0,320,335.06c.18-2.5-1.81-1.91,5.34-9.55S332.85,307.78,330.08,303Z" transform="translate(-0.35)"/><path class="cls-9" d="M272.2,229.52a2,2,0,0,0-1.11-3.76l-27.57,8.1-.1-.24c-1.19-2.47-10.55-1-11.37-.2a4.7,4.7,0,0,1-.44.37l.22-2.62s-17.48,0-23.83-3.76S194,217.9,190.19,214s-9.43-7.54-10.87-7.51a12.07,12.07,0,0,1-.08-3.79,20.47,20.47,0,0,1,2-1.58,5.08,5.08,0,0,1,4-.59h0l.23,0c1.38.25,4,1.14,5.1.5a1.32,1.32,0,0,0,.33-.29l.08-.13a1.35,1.35,0,0,0,.15-.26,2.09,2.09,0,0,0,.08-.23,1.72,1.72,0,0,0,.07-.21c0-.11,0-.23.06-.34a.13.13,0,0,0,0-.06h0c.11-.77,0-1.59.11-1.89.12-.54.79-.4,1.47-.91s-.14-1.48-.14-1.48c.28-.22,1.2-.93.81-1.39-.54-.61-1.27-1.36.78-2.13,1.82-.68.68-1.65-.27-3.16-.62-1-1.71-2.77-.84-4.13.52-.81.67-.53.31-3.15a9,9,0,0,0-1.93-4.4.17.17,0,0,1,.17.1c2.56-2.76.24-9.56.24-9.56-1.19,2.92-8-.55-14.86-1.31s-10.31,4.71-13,10.29,3.24,16.34,3.24,16.34l2.29,4,0-.31c.07.54.13,1.07.18,1.57-.69,1.45-1.54,3.05-2.44,4.63h0a24.65,24.65,0,0,0-4.58,5.61c-3.17,5.1-5.32,9.56-5.49,21.63-.1,7.61-3.54,33.74-3.54,33.74-2.3,4.85-2.61,13.06,0,22s7,23.52,6.66,33.6-4.13,44.51-4.13,44.51l1.46.13c-.41,1.17-1.82,5.74-.53,9.51l28.32,1.82a9.82,9.82,0,0,0-1.23-4.32l13.75-.13s-.4-4.6-4-6.35c-2-1-5.55-1.9-8.8-3.75h3.09s1.28-32.86.54-41.56-2.91-35.92-7.75-51.17h0l1.19-9.87c7.26,7.11,18.38,17.88,18.38,17.88l1.18-1.3a19.88,19.88,0,0,1,1.71,3.24c.38,1.25,9,7.71,11.46,5.88s.86-1.6-1.28-3.41-4.45-3.46-3.3-4.35,2,1.45,3.5,1.25c1.08-.14,0-1.56-1.46-3.43-.59-.75-1.84-2-2.19-2.37a12.8,12.8,0,0,0-3.37-2.42l1.56-1.73s-19-20.54-20.25-24.6c-.46-1.5-1.6-5.64-2.86-10.26l0-.28.25-2A173.59,173.59,0,0,1,201,238.84c7.67,5,29.83,4.62,29.83,4.62l.15-1.75a11.7,11.7,0,0,0,3.68-.48c.42-.12,1.92-.6,2.69-.94a13.52,13.52,0,0,0,2.42-1.23Z" transform="translate(-0.35)"/></g><path class="cls-18" d="M168.73,360.16s-1.72,5.59.09,9.83l28.37-.26s-.39-4.6-4-6.35-12.08-3.33-15-10.27Z" transform="translate(-0.35)"/><path class="cls-19" d="M157,362.56s-2.12,5.44-.63,9.8l28.32,1.82s-.06-4.63-3.49-6.63-11.82-4.2-14.2-11.33Z" transform="translate(-0.35)"/><path class="cls-20" d="M153.5,268.55c-1,5.07-1.91,11.6,2.64,19.33s13,21.88,15,31.36,2.74,40.38,2.74,40.38h13.63s1.27-32.85.54-41.55-2.91-35.93-7.75-51.18Z" transform="translate(-0.35)"/><path class="cls-14" d="M152.9,262.58c-2.3,4.86-2.62,13.07,0,22s7,23.51,6.66,33.59-4.14,44.51-4.14,44.51l17.88,1.65s3.8-33.47,5.3-42.43,2.6-39.94,1.63-56.55Z" transform="translate(-0.35)"/><path class="cls-21" d="M200.36,272.51a29.24,29.24,0,0,1,2.41,4.34c.38,1.25,8.95,7.71,11.45,5.87s.87-1.59-1.28-3.4-4.44-3.47-3.29-4.35,2,1.45,3.49,1.25c1.08-.14,0-1.56-1.46-3.43-.59-.75-1.83-2-2.18-2.37-2.68-2.6-3.9-2.21-4.67-3.54S200.36,272.51,200.36,272.51Z" transform="translate(-0.35)"/><path class="cls-22" d="M284.49,288.75c-.64,2.29.48,6.12-5,6.34s-12.71-1.08-12.34,2.38,4.18,6.85,2.5,10.48-3.56,3.95-6-4.66-3.54-9.15,2.85-13.36,7.34-4.31,9.33-5.87S284.49,288.75,284.49,288.75Z" transform="translate(-0.35)"/><path class="cls-23" d="M255.43,254.29a47.52,47.52,0,0,1,5,2.8c.86.74-4.32.84-6.61,1.69S267,262.31,267,262.31s.05-4.51.09-4.73-7.6-4.13-7.6-4.13S254.83,250.32,255.43,254.29Z" transform="translate(-0.35)"/><path class="cls-22" d="M306.14,348.33c-.53,2-.37,9.85-.39,11.55s-5.81,9.11-7.62,11.27-4-.33-1.54-4.73,5-8.6,4.27-11.47-3.3-8.79-1.87-15S307,345.17,306.14,348.33Z" transform="translate(-0.35)"/><path class="cls-24" d="M253.17,259.41c.53-1.19,1.93-.4,5.52.3s7.91.28,7.69-.81c-.38-1.85-3.15-3.26-6.72-4s-4.22-1.45-4.23-.6a5,5,0,0,1-3.36-1.73c-1.35-1.63-2.51-6.62.49-7.18s10.22,2.15,11.16,1.67,5.21-3.82,9.78-2.18,6.57,3.41,9.07,7.66,7.05,17.23,9.23,19.73a33.64,33.64,0,0,1,7.84,13.5c2.33,7.44,8.39,22.94,12.47,28.53s3.91,8.79,8.71,6.91,9-13,4.8-18.8.65-5.29,3.42-.47,2.4,14.9-4.73,22.55-5.15,7-5.33,9.55a27.68,27.68,0,0,1-3.24,11.34c-2.41,4.24-4,7.12-2.69,9.6s1.79,2.75-.12,9.46c-1.56,5.41-3.87,16.8-6.63,16.22S305,375,306.18,370s2.66-10.28,1.26-12.44-7.93-7.42-8.23-14.09-1.33-17.05-8.08-21.18-20-16.05-21.49-23.48.75-17.29,1.09-22.13-.7-8.78-5.5-10.13S251.25,263.74,253.17,259.41Z" transform="translate(-0.35)"/><path class="cls-25" d="M274.91,240.74s3-.3,1.59,2.22-3.13,5.1-3.13,5.1l3.63,2,2.86-9.1Z" transform="translate(-0.35)"/><path class="cls-23" d="M281.28,253.56c.5-2.38,2.2-12.63-1.78-14.15s-7,.91-5.34,1.25c.65.14,1.51.05,2.27.12,1.13.1,2.05.56,1.79,2.65a60.4,60.4,0,0,1-1.22,6.63Z" transform="translate(-0.35)"/><path class="cls-22" d="M253.73,251.64c1.73.7,6.42,1.18,10.27,2.84s3.7,3.88,3.57,5.15l-1.41-.29a.44.44,0,0,0,.22-.44c-.38-1.85-3.15-3.26-6.72-4s-4.22-1.45-4.23-.6a5,5,0,0,1-3.36-1.73,7.57,7.57,0,0,1-1.36-4.84C251.7,249,252,250.94,253.73,251.64Z" transform="translate(-0.35)"/><path class="cls-22" d="M253.17,259.41c.53-1.19,1.93-.4,5.52.3,2.89.57,6.49.37,7.45-.35l0,0a.41.41,0,0,0,.09-.1.16.16,0,0,0,.06-.08.59.59,0,0,0,0-.08.32.32,0,0,0,0-.17c4.05,2.21,2.68,3.49,7.18,6.7s6.85,3.92,6.14,10.55-8.16,15.23,1,24.16,16.22,12,17.75,19.75.66,12.8.5,19.64c-.11-1.18-.26-2.4-.45-3.63a.25.25,0,0,1,0-.07c-.13-.82-.28-1.63-.47-2.43,0,0,0,0,0-.05-.08-.39-.18-.78-.28-1.15a.83.83,0,0,1,0-.15l-.34-1.13s0,0,0,0c-.12-.37-.24-.72-.37-1.08a.52.52,0,0,0-.06-.13c-.12-.35-.27-.7-.42-1,0-.05,0-.12-.07-.18-.16-.34-.31-.67-.49-1a.11.11,0,0,1,0-.05c-.16-.31-.34-.61-.52-.92l-.1-.16c-.18-.3-.39-.59-.59-.88a1,1,0,0,1-.12-.16c-.22-.29-.44-.58-.68-.84l0,0c-.24-.26-.48-.52-.73-.76l-.14-.13a10.27,10.27,0,0,0-.8-.68l-.16-.13c-.29-.21-.59-.42-.9-.62-6.76-4.13-20-16.05-21.49-23.48s.75-17.29,1.09-22.13-.7-8.78-5.5-10.13S251.25,263.74,253.17,259.41Z" transform="translate(-0.35)"/><path class="cls-24" d="M263.72,247.05c.75-.37,3.54-2.51,6.92-2.61.67,2.18,1.35,5,2.27,5.78,1.47,1.21,4.5,3.43,3.47,7.28s-2.49,4.89-2.46,6.38-1.75,1-5.16,0-2.95-.11-4.94-.31-4.2-1.78-6.79-2.33c-2-.4-2.49.73-3.76.52a2.36,2.36,0,0,1-.1-2.33,1,1,0,0,1,.34-.43,27.22,27.22,0,0,1,3.89.46h0c.39.08.8.18,1.25.26,3.44.68,7.91.28,7.69-.81a12,12,0,0,0,3-1.52c1.21-.94-1.71-1.55-2.59-3s-3.31-2-4.42-3.4-2.59.49-4.15.67-2.85-.1-2.92-.61.86-1.69,2.16-3-1.08-2.17-1.08-2.17l.08-.2C259.57,246.24,263.08,247.37,263.72,247.05Z" transform="translate(-0.35)"/><path class="cls-26" d="M254.37,259s-1.08-1.39-3,.79c-2.15,2.46-2.81-1.19-1-2.1s5.5-.38,8.82,2.07Z" transform="translate(-0.35)"/><path class="cls-23" d="M296.69,295.21c.79-3.77-2.18-4.65-1.2-8.29s.61-4.65,2.69-5.07a40.05,40.05,0,0,1,1.46,3.91c2.21,7,7.74,21.29,11.79,27.55-1.93,1.7-4.7-.23-6.42-2.08-1.9-2-4-1-7.62-3.21S295.9,299,296.69,295.21Z" transform="translate(-0.35)"/><path class="cls-22" d="M291.88,280.46a49.11,49.11,0,0,0,1.28-6.63,32.49,32.49,0,0,1,6.48,11.93c.19.62.41,1.29.65,2-.48,3.89-1.61,8.65-5.54,9.17s-4.3-.68-7.18-2.83,2.08-4.11,3-7.31S290.17,282.19,291.88,280.46Z" transform="translate(-0.35)"/><path class="cls-23" d="M301.57,327.27c1,2,2.51.52,5.32,1.12s2.47,4.35,4.7,8.89-3.25,6.76-2.73,13.42-1.36,2.47-1.42,6.82c-1.41-2.16-7.93-7.42-8.23-14.09-.23-5.24-.92-12.79-4.49-17.77C296,325.31,300.54,325.24,301.57,327.27Z" transform="translate(-0.35)"/><path class="cls-23" d="M273.5,244.87c4.57,1.64,6.57,3.41,9.07,7.66,2,3.49,5.47,12.84,7.85,17.47-2,3.16-2.08,1.53-3.9,0s-1.38,1.18-3.95,2.1-3.75-.44-4.5-3.31-.92-1-3.67-1.79-1.17-1.49-1.49-2.19,3.19-6.37,3.56-7.69-1.84-5.42-3.31-5.83-1.15-2.59-2.17-3.07-2.18-3.53-2.2-3.56A8.21,8.21,0,0,1,273.5,244.87Z" transform="translate(-0.35)"/><path class="cls-24" d="M284.58,295.3c-1,2.33-.34,6.53-6.16,6s-13.27-3-13.37.75,3.44,7.84,1.16,11.42-4.33,3.67-5.74-5.77S258,297.52,265.39,294s8.35-3.5,10.68-4.88S284.58,295.3,284.58,295.3Z" transform="translate(-0.35)"/><path class="cls-24" d="M261.73,313.29a19,19,0,0,1,1.74-2.09c1.77-2,.89-3.87,3-3.4.59,1.94.9,3.87-.24,5.66C264.54,316.1,263,316.83,261.73,313.29Z" transform="translate(-0.35)"/><path class="cls-12" d="M267.09,248a1,1,0,1,0,2,.4,1,1,0,0,0-2-.4Z" transform="translate(-0.35)"/><path class="cls-12" d="M252.56,245.38a5.48,5.48,0,0,1,1.52,0c.06.06,1.27,1.42.16,2.51-.78.75-2.51.74-3.55.65C250.61,247,251.07,245.66,252.56,245.38Z" transform="translate(-0.35)"/><path class="cls-22" d="M261.74,247.6c-1.05-.53,2.76,0,3.78-.4s2.63-.8,3.15-.52.63,2.61,1.91,2.15,2.27.41,1.41,1.19-1.39-1.41-3.45,0-1.84.06-2.56-.54a3.89,3.89,0,0,0-2.39-1C262.8,248.5,262.15,247.8,261.74,247.6Z" transform="translate(-0.35)"/><path class="cls-12" d="M268.4,249a9.81,9.81,0,0,1-1.51-.71c-.49-.22.07-1,.62-1.23a.88.88,0,0,1,1.14.76C268.76,248.33,269,249.18,268.4,249Z" transform="translate(-0.35)"/><path class="cls-23" d="M272.49,226.05a2,2,0,0,1-1.33,2.43l-37.06,10.9a2,2,0,0,1-2.44-1.33h0a2,2,0,0,1,1.33-2.43l37.07-10.89a2,2,0,0,1,2.43,1.32Z" transform="translate(-0.35)"/><path class="cls-21" d="M227.33,234.76a26.52,26.52,0,0,0,3.69-2.37c.81-.81,10.18-2.28,11.36.2s0,1.6-2.42,2.12-4.9.84-4.37,2,2.18-.28,3.25.48c.77.56-.65,1.22-2.58,2.06a25.88,25.88,0,0,1-2.68.93c-3.18.91-4,.1-5.11.82S227.33,234.76,227.33,234.76Z" transform="translate(-0.35)"/><path class="cls-21" d="M179.16,226.38c1.09-12.19,0-18.39-.62-19.94s-1.68-10.38,5.31-7.64c5.33,2.08,5.63-.15,5.58-1.9-.75-.44-1.27,0-1.09-1.11l.08-.52-2.94-4a2.33,2.33,0,0,1-3.37-.47l-10.6-14.3c-2.34,6.22-.88,13.82-.81,15.16.12,2.45-3.84,9.61-7,14.7s-5,12.15-5.15,24.23c-.11,7.62-3.25,32.26-3.25,32.26l14.61,1.28C170.37,260.83,178.07,238.57,179.16,226.38Z" transform="translate(-0.35)"/><path class="cls-21" d="M187.07,172.41c.68.94,4.91,3.13,5.56,7.87.36,2.62.21,2.34-.31,3.15-.87,1.36.22,3.15.84,4.12,1,1.52,2.09,2.49.26,3.17-2,.77-1.31,1.51-.77,2.12.38.46-.53,1.18-.81,1.39,0,0,.82,1,.13,1.49s-1.34.36-1.46.91.21,2.77-.9,3.41-3.71-.25-5.09-.5a5.4,5.4,0,0,0-4.29.54c-4.81,3.36-4.27,5.2-4.27,5.2s-3.09-.05-6.46-3.71c-.82-.88-1.22.82-.57-1.06,1-3-3.67-18.75,1.66-18.4.23,0,11.85-3,11.85-3Z" transform="translate(-0.35)"/><path class="cls-12" d="M163.21,175.4c2.72-5.58,6.2-11.06,13-10.29s13.66,4.23,14.86,1.31c0,0,2.32,6.79-.24,9.56-.51-1.27-10.32,8.54-11.85,10s.14-3.31-2.39-3.39-4.72,4.77-4.13,7.18c.44,1.85-3.64,4.41-3.64,4.41l-.11,1.56-2.29-4S160.49,181,163.21,175.4Z" transform="translate(-0.35)"/><path class="cls-12" d="M184.29,199.51a1,1,0,0,1,.23,0c1.38.25,4,1.14,5.09.5a2,2,0,0,0,.79-1.52s-7.8-.73-9.54-3.28c-2.24-3.26-1.12-7-1.6-13.16s-1,3.78-1,3.78-1.49,11.6,4.11,13A9.93,9.93,0,0,1,184.29,199.51Z" transform="translate(-0.35)"/><path class="cls-18" d="M168.73,203.41s7.16,2.11,9.56,2.05c1.44,0,7.1,3.6,10.87,7.51s11.52,9.71,17.81,13.4,23.83,3.77,23.83,3.77l-1.06,12.29s-22.15.34-29.82-4.63-15.06-8.65-15.06-8.65l-4.63,36.23-22.55-2.47Z" transform="translate(-0.35)"/><path class="cls-27" d="M172.35,255.3h0v-50a22,22,0,0,1-5.85-3.67,24.71,24.71,0,0,0-4.58,5.61c-3.17,5.09-5.31,9.56-5.49,21.63-.1,7.61-3.53,33.73-3.53,33.73l20.18,2.11Z" transform="translate(-0.35)"/><path class="cls-19" d="M166.5,201.61a24.71,24.71,0,0,0-4.58,5.61c-3.17,5.09-5.31,9.56-5.49,21.63-.1,7.61-3.53,33.73-3.53,33.73l27.41,4.31,4.31-35.9c1.82-14.24-6.33-25.53-6.33-25.53-2.13,0-8-1.6-9.29-2A23.32,23.32,0,0,1,166.5,201.61Z" transform="translate(-0.35)"/><path class="cls-18" d="M179.93,214.25s6.27,23.36,7.51,27.42,20.25,24.6,20.25,24.6l-7.81,8.63s-23.94-23.16-24.49-24-9.92-21.71-12-28.24c-1.37-4.22,2.43-9.64,7.78-10.73C174.06,211.37,179.93,214.25,179.93,214.25Z" transform="translate(-0.35)"/><path class="cls-10" d="M140.38,172.67a43.91,43.91,0,0,0-3.18-6.41c-2-3.48-4-7.07-4-10.86V142.09c0-12.34-5.84-19.71-15.64-19.71H94.91a17.39,17.39,0,0,0-12,4.82,13,13,0,0,0-2.22,2.91A34.55,34.55,0,0,0,77,134.78c-2.6,4-2,9.18-2,13.7v27.43c0,4.83-.29,9.22,2,13.69,5.47,10.55,16.58,8.72,24.26,2.39l0,.07.15-.16.1-.08a14.75,14.75,0,0,0,3.5-2.54,17.55,17.55,0,0,0,5.11-11.51,61.25,61.25,0,0,0,.17-8.47c-.06-.93-.13-2.15-.16-4.84a2.49,2.49,0,0,0,2.32-2.48v-1.23a2.5,2.5,0,0,0-2.49-2.5h-1v-6.77c.78-.25,1.38-1.83,1.38-2.75v-2.62c0-.92-.6-.86-1.38-.85v-.69a1.12,1.12,0,0,0-.33-.79V141.5a3.95,3.95,0,0,0-7.89,0v.61c0,2.12.38,4.79,3.34,6.51.88.51,2,1.08,2.57,1.37v8.26h-.74a2.5,2.5,0,0,0-2.5,2.5V162a2.48,2.48,0,0,0,1.73,2.36v6.27c0,6.31.83,12.92-2,18.55a13.77,13.77,0,0,1-14.19,1.73A14.16,14.16,0,0,1,80,177.7v-31c0-1,0-2,0-3-.13-5.3-.24-10.32,2.81-14.29,8.15-4.07,20.15-2,28.65-2,6.2,0,11.2,2,14.71,7.37,2.57,3.93,2,9,2,13.47,0,3.11-.31,8.07-.43,12.36-4.91,9.86-14.76,21.41-15,32.51-.29,11.7,13.75,17.9,22.14,9.69.54-.54,1.1-1.07,1.65-1.61a11.79,11.79,0,0,0,5.4-5.29C145.82,189.87,143.14,180.32,140.38,172.67Zm-35.71-25.22c-2.35-1.37-2.66-3.47-2.66-5.34v-.61a2.59,2.59,0,0,1,5.18,0v2.06a1.13,1.13,0,0,0-.63,1v3.9C106,148.18,105.26,147.8,104.67,147.45Zm23.55,21.16c5.06,10.13,14.26,20.1,9.09,30.54a12.77,12.77,0,0,1-13.22,1c-4.42-2-6.49-6.49-6.31-13.63.16-6.69,4.88-13.95,9.44-21,.17-.25.33-.5.49-.75A11.29,11.29,0,0,0,128.22,168.61ZM104.67,162v-1.23a1.14,1.14,0,0,1,1.15-1.14h1.68a1.42,1.42,0,0,0,.2,0h0a1.3,1.3,0,0,0,.21,0h2a1.14,1.14,0,0,1,1.14,1.14V162a1.13,1.13,0,0,1-1,1.11v-.92a.69.69,0,0,0-.68-.68.68.68,0,0,0-.67.68h-3.68v.65A1.14,1.14,0,0,1,104.67,162Z" transform="translate(-0.35)"/><path class="cls-28" d="M106.25,149.25h-.15l-.14-.07c-.07,0-1.75-.85-3-1.56-3-1.72-3.33-4.39-3.33-6.51v-.6a3.94,3.94,0,0,1,7.88,0v4.29a7.93,7.93,0,0,0,.2,1.5c.18.93.35,1.81-.16,2.42A1.63,1.63,0,0,1,106.25,149.25ZM103.63,138a2.57,2.57,0,0,0-2.62,2.56v.6c0,1.87.31,4,2.66,5.34,1,.56,2.28,1.22,2.73,1.44a.32.32,0,0,0,.15,0,3.88,3.88,0,0,0-.13-1.29,8.91,8.91,0,0,1-.23-1.76v-4.29A2.56,2.56,0,0,0,103.63,138Z" transform="translate(-0.35)"/><path class="cls-28" d="M107.65,150.54h0a1.73,1.73,0,0,1-1.6-1.83V146.1a1.73,1.73,0,0,1,1.6-1.83h0c.89,0,1.6-.16,1.6.85v2.61C109.25,148.74,108.54,150.54,107.65,150.54Z" transform="translate(-0.35)"/><path class="cls-28" d="M108.92,163.48h-4.1a2.5,2.5,0,0,1-2.5-2.5v-1.23a2.51,2.51,0,0,1,2.5-2.5h4.1a2.51,2.51,0,0,1,2.5,2.5V161A2.51,2.51,0,0,1,108.92,163.48Zm-4.1-4.87a1.14,1.14,0,0,0-1.15,1.14V161a1.14,1.14,0,0,0,1.15,1.14h4.1a1.14,1.14,0,0,0,1.14-1.14v-1.23a1.14,1.14,0,0,0-1.14-1.14Z" transform="translate(-0.35)"/><rect class="cls-28" x="105.21" y="142.43" width="2.31" height="16.22" rx="1.14"/><path class="cls-22" d="M127.16,158.74c-4.75,10-15.18,21.95-15.46,33.39a13,13,0,0,0,22.14,9.68c2.34-2.3,4.76-4.46,6.48-7.27,3.84-6.26.67-16.44-1.58-22.64-2.11-5.82-7.23-11.25-7.23-17.51v-13.3c0-9.42-3.78-19-15-19H93.92c-7.58,0-13.91,5.63-17.91,11.72-2.6,4-2,9.18-2,13.7v27.43c0,4.83-.28,9.22,2,13.69,8.68,16.76,31.63,2.29,32.39-11.86.56-10.37,0-5.19,0-15.57h-4.35v8.44c0,7.43,1.18,15.3-3.83,21.45l2.15-2.19-1.08,1.07c.74-.71,1.47-1.43,2.2-2.15-9.65,7.86-25.16,2.19-25.16-11.09v-31c0-6.74-.74-13.15,3.83-18.77-.71.74-1.43,1.47-2.15,2.2l1.08-1.08-2.2,2.16c7.94-6.47,22-3.84,31.54-3.84,6.19,0,11.19,2,14.7,7.37,2.57,3.93,2,9,2,13.47,0,5.81-1.09,18.06.06,20.36,5.58,11.17,16.19,22.14,7,33.75l2.15-2.19-1.06,1.06,2.19-2.15a13.52,13.52,0,0,1-14.72,1.72c-5.68-2.6-6.84-8.7-6.7-14.25.25-10.34,11.1-22.06,15.4-31.16-.82,1.73-3.52,2.59-4.35,4.35Z" transform="translate(-0.35)"/><path class="cls-24" d="M128.92,201.88a15.23,15.23,0,0,1-6.39-1.46c-4.9-2.25-7.29-7.26-7.1-14.89.17-7.08,5.21-14.83,9.66-21.67a91.86,91.86,0,0,0,5.74-9.63V141.09c0-4.3-1-18.35-14.29-18.35H93.92a16,16,0,0,0-11,4.43c-4.18,4.13-4.05,9.67-3.91,15.54,0,1,0,2,0,3v31a14.19,14.19,0,0,0,8.89,13.2A13.72,13.72,0,0,0,103,187.32a16.2,16.2,0,0,0,4.7-10.62,59,59,0,0,0,.17-8.32c-.07-1.18-.17-2.8-.17-7.21a.68.68,0,1,1,1.35,0c0,4.37.1,6,.17,7.13a61.25,61.25,0,0,1-.17,8.47A17.55,17.55,0,0,1,104,188.28a15,15,0,0,1-16.6,2.86,15.51,15.51,0,0,1-9.72-14.44v-31c0-1,0-2,0-3-.14-5.89-.29-12,4.31-16.54a17.39,17.39,0,0,1,12-4.81h22.62c9.8,0,15.64,7.36,15.64,19.7V154.4c0,3.79,2,7.39,4,10.86a43.91,43.91,0,0,1,3.18,6.41c2.77,7.65,5.44,17.2,1.51,23.24a16.52,16.52,0,0,1-2.89,3.66A14.53,14.53,0,0,1,128.92,201.88Zm2.14-45.12c-1.36,2.48-3.06,5.09-4.84,7.83-4.56,7-9.27,14.28-9.44,21-.18,7.14,1.89,11.6,6.31,13.63a12.82,12.82,0,0,0,14-1.64,15.86,15.86,0,0,0,2.64-3.38c3.6-5.54,1-14.69-1.65-22a43.14,43.14,0,0,0-3.09-6.2C133.36,163,131.66,160,131.06,156.76Z" transform="translate(-0.35)"/><g class="cls-17"><path class="cls-9" d="M335,135.52a3.07,3.07,0,0,0-.28-.42,26.12,26.12,0,0,0-3.05-3.65,27.51,27.51,0,1,0-38.9,38.9,26.12,26.12,0,0,0,3.65,3.05,3.07,3.07,0,0,0,.42.28A27.48,27.48,0,0,0,335,135.52Z" transform="translate(-0.35)"/><path class="cls-9" d="M394,138.33c-.24-.26-.49-.51-.75-.76l-.2-.18a3.61,3.61,0,0,0-.3-.25c-.17-.15-.33-.3-.51-.44-6.5-5.13-16.19-2.13-19.28,5.56-.94,2.35-2.34,5.57-3.71,8.67a63.55,63.55,0,0,1-11.59,17.56l-.15.16a64.19,64.19,0,0,1-6.67,6.21,62.41,62.41,0,0,1,2.37-10.07l.06-.2a63.57,63.57,0,0,1,9.68-18.69c2-2.7,4.16-5.49,5.75-7.47,5.21-6.44,3.11-16.37-4.55-19.54-.32-.14-.66-.26-1-.37l-.25-.08c-.34-.11-.69-.21-1-.29-8.07-1.9-15.57,4.92-15.12,13.2.14,2.53.24,6,.3,9.42A63.4,63.4,0,0,1,344,161.59l-.07.2a63.78,63.78,0,0,1-9.67,18.69c-2,2.71-4.17,5.49-5.76,7.47a12.79,12.79,0,0,0-2.54,5.26,12.08,12.08,0,0,0,2.38,12.25c.24.26.49.51.76.76l.19.18.3.25.51.44c6.51,5.13,16.2,2.13,19.28-5.56.95-2.36,2.34-5.57,3.71-8.67a63.58,63.58,0,0,1,11.6-17.56l.14-.16a63.72,63.72,0,0,1,16.67-12.84c3-1.59,6.1-3.22,8.38-4.33C397.27,154.33,399.56,144.45,394,138.33Z" transform="translate(-0.35)"/></g><path class="cls-18" d="M361.84,117.41l.25.08c.34.11.67.23,1,.37,7.65,3.17,9.76,13.09,4.55,19.54-1.59,2-3.72,4.76-5.76,7.47a63.78,63.78,0,0,0-9.67,18.69l-.07.2a63.61,63.61,0,0,0-3.07,20.81c.06,3.39.16,6.9.3,9.43.46,8.27-7.05,15.09-15.12,13.2-.34-.08-.69-.18-1-.29l-.25-.08c-.34-.11-.68-.24-1-.37-7.65-3.17-9.76-13.1-4.55-19.54,1.59-2,3.72-4.77,5.76-7.47a63.78,63.78,0,0,0,9.67-18.69l.07-.2A63.93,63.93,0,0,0,346,139.74c-.07-3.39-.16-6.89-.3-9.43-.46-8.27,7.05-15.09,15.11-13.19C361.15,117.2,361.49,117.3,361.84,117.41Z" transform="translate(-0.35)"/><path class="cls-20" d="M330.6,169.32a27.48,27.48,0,0,1-34.83,3.33c4.61,2.68,15.63-2.66,25.57-12.59s15.27-21,12.59-25.57A27.48,27.48,0,0,1,330.6,169.32Z" transform="translate(-0.35)"/><path class="cls-5" d="M321.34,160.06c-9.94,9.93-21,15.27-25.57,12.59a3.18,3.18,0,0,1-.43-.28,26.75,26.75,0,0,1-3.64-3.05,27.4,27.4,0,0,1-3.63-4.48c1.5.76,3.59.74,6.07.06,5.39-1.48,12.58-6.09,19.26-12.78s11.3-13.87,12.78-19.26c.68-2.48.7-4.58-.06-6.07a27.4,27.4,0,0,1,4.48,3.63,26,26,0,0,1,3,3.64,3.18,3.18,0,0,1,.28.43C336.61,139.1,331.27,150.12,321.34,160.06Z" transform="translate(-0.35)"/><path class="cls-14" d="M313.4,152.12c-6.68,6.69-13.87,11.3-19.26,12.78-2.48.68-4.57.7-6.07-.06a26.81,26.81,0,0,1-2.37-4.53,27.51,27.51,0,0,1,35.89-35.89,26.81,26.81,0,0,1,4.53,2.37c.76,1.49.74,3.59.06,6.07C324.7,138.25,320.09,145.44,313.4,152.12Z" transform="translate(-0.35)"/><path class="cls-19" d="M391.18,135.66c-6.51-5.13-16.19-2.12-19.28,5.57-.95,2.35-2.34,5.57-3.71,8.67a63.58,63.58,0,0,1-11.6,17.56l-.14.16a63.93,63.93,0,0,1-16.67,12.84c-3,1.59-6.1,3.21-8.38,4.33-7.44,3.64-9.73,13.52-4.14,19.63.24.26.49.52.75.76l.2.18c.09.09.2.17.3.26l63.18-69.52Z" transform="translate(-0.35)"/><path class="cls-18" d="M352,191.83a63.75,63.75,0,0,1,11.59-17.57l.15-.15a63.18,63.18,0,0,1,16.67-12.84c3-1.6,6.1-3.22,8.38-4.34,7.44-3.64,9.73-13.52,4.14-19.63-.24-.26-.49-.51-.76-.76l-.19-.18-.3-.26-63.18,69.52c.17.15.33.3.51.44,6.5,5.13,16.19,2.12,19.28-5.56C349.24,198.14,350.64,194.92,352,191.83Z" transform="translate(-0.35)"/><path class="cls-10" d="M386.48,288.77c.35-.72.68-1.44,1-2.12,3.46-7.73,5.07-12.92,4-13.55l-16.28-9.22v0c-2-1.15-12.6,13.54-23.54,32.84s-18.12,35.92-16.08,37.08c1.43.81,6.89-5.92,13.72-16.5-6.83,10.58-12.29,17.32-13.72,16.51L351.81,343c1.83,1,10.23-10.28,19.68-26.19a1.81,1.81,0,0,0,2.26-.57l6-10.59a1.8,1.8,0,0,0-.68-2.23c1.7-3.16,3.28-6.19,4.69-9a2.22,2.22,0,0,0,2.77-.68l1.13-2A2.33,2.33,0,0,0,386.48,288.77Zm-11-23.83a2.71,2.71,0,0,0,0-.29A2.71,2.71,0,0,1,375.49,264.94Zm-.14-.81a.36.36,0,0,0,0-.09A.36.36,0,0,1,375.35,264.13Zm.11.36,0-.19Zm0,1.05c-.28,2.33-2,6.89-4.66,12.82-.19.39-.38.78-.55,1.19h0C373.24,273.05,375.13,268,375.44,265.54Zm.05-.47c0,.12,0,.26,0,.4C375.47,265.33,375.48,265.19,375.49,265.07Zm2.73,40.14-5.45,9.63a.69.69,0,0,1-.24.24c.93-1.6,1.88-3.24,2.83-4.91s2-3.57,2.94-5.3A.66.66,0,0,1,378.22,305.21Z" transform="translate(-0.35)"/><path class="cls-29" d="M350.57,295.67c10.93-19.3,21.49-34,23.53-32.84s-5.1,17.78-16,37.09-21.5,34-23.57,32.83S339.63,315,350.57,295.67Zm6.33,3.59c10.19-18,15.53-30.67,16.18-34.6-3,2.59-11.17,13.7-21.36,31.66S336.18,327,335.52,331C338.57,328.35,346.71,317.25,356.9,299.26Z" transform="translate(-0.35)"/><path class="cls-30" d="M373.08,264.66c-.65,3.93-6,16.62-16.18,34.6S338.57,328.35,335.52,331c.66-3.95,6-16.65,16.2-34.63S370,267.25,373.08,264.66Z" transform="translate(-0.35)"/><path class="cls-31" d="M374.1,262.84l16.29,9.23c1.11.62-.49,5.82-3.95,13.55l-16.7-8.29C373.48,269.1,375.29,263.5,374.1,262.84Z" transform="translate(-0.35)"/><path class="cls-28" d="M384.73,281.56l1.71,4.06c-.42.91-.87,1.88-1.34,2.87-.05.09-.08.2-.13.29-2.8,5.89-6.43,12.91-10.64,20.35-10.94,19.31-21.48,34-23.55,32.85l-16.29-9.23c2.07,1.18,12.63-13.53,23.57-32.83,4.46-7.87,8.28-15.3,11.14-21.4.17-.42.36-.8.54-1.19l4.19-1.46C377.46,275.37,383.32,278.26,384.73,281.56Z" transform="translate(-0.35)"/><path class="cls-5" d="M358.74,293.32l-6,10.59a1.93,1.93,0,0,0,1,2.48l16.27,9.22a1.94,1.94,0,0,0,2.67-.38l6-10.59a1.94,1.94,0,0,0-1.05-2.49l-16.26-9.21A1.93,1.93,0,0,0,358.74,293.32Zm17.93,9.62a1,1,0,0,1,.52,1.24l-5.45,9.62a1,1,0,0,1-1.34.19l-14.89-8.43a1,1,0,0,1-.52-1.24l5.45-9.63a1,1,0,0,1,1.34-.19Z" transform="translate(-0.35)"/><path class="cls-23" d="M371.21,294.59a1.06,1.06,0,0,1,.57,1.36l-4.89,8.65a1.06,1.06,0,0,1-1.46.2h0a1.05,1.05,0,0,1-.57-1.36l4.89-8.64a1.07,1.07,0,0,1,1.46-.21Z" transform="translate(-0.35)"/><path class="cls-5" d="M386.62,290.69l-1.13,2c-.54,1-2,1.16-3.24.46L366,283.93a2.35,2.35,0,0,1-1.27-3l1.13-2c.54-1,2-1.16,3.24-.46l16.27,9.22A2.35,2.35,0,0,1,386.62,290.69Z" transform="translate(-0.35)"/><path class="cls-10" d="M129.55,266.86h-5.68l.63-6.25a.58.58,0,0,0,.11-.29c0-1.74-10.68-3.15-23.77-3.15s-23.69,1.41-23.69,3.15l.65,6.54H72.28a10.83,10.83,0,0,0-10.7,12.55l1.55,9.72a10.84,10.84,0,0,0,7.28,8.58l10.84,3.6,0,.45c.7,5.63,4.11,14.35,11.23,17.85a9.73,9.73,0,0,1,5.74,8.76l.33,9.44-.24.06A18.48,18.48,0,0,0,85.24,350v0a.73.73,0,0,0-.13.4c0,1.78,7,3.22,15.74,3.22s15.73-1.44,15.73-3.22l-.13-.4v0a18.48,18.48,0,0,0-13.11-12.13l-.24-.06.33-9.44a9.72,9.72,0,0,1,5.75-8.76c7.11-3.5,10.53-12.22,11.22-17.85l0-.39,11-3.66a10.83,10.83,0,0,0,7.3-8.58l1.55-9.72A10.84,10.84,0,0,0,129.55,266.86ZM71.06,295.78a8.78,8.78,0,0,1-5.92-7l-1.55-9.73a8.81,8.81,0,0,1,8.69-10.18H78l3,30.19Zm31.41-32.3h0Zm35.78,15.6-1.55,9.73a8.81,8.81,0,0,1-5.92,7l-10.14,3.37,3-30.25h5.88a8.81,8.81,0,0,1,8.7,10.18Z" transform="translate(-0.35)"/><rect class="cls-29" x="99.46" y="259.29" height="90.1"/><path class="cls-32" d="M81.45,299.07l0-.54L70,294.75a8.76,8.76,0,0,1-5.92-7l-1.55-9.73a8.81,8.81,0,0,1,8.68-10.18h7l-.22-2H71.24a10.83,10.83,0,0,0-10.69,12.55l1.55,9.72a10.81,10.81,0,0,0,7.28,8.58l12.17,4A12.94,12.94,0,0,1,81.45,299.07Z" transform="translate(-0.35)"/><path class="cls-33" d="M139.23,278.38l-1.55,9.72a10.83,10.83,0,0,1-7.3,8.58l-12.26,4.08a15.81,15.81,0,0,0,.12-1.69l0-.51,11.47-3.81a8.8,8.8,0,0,0,5.91-7l1.56-9.73a8.81,8.81,0,0,0-8.7-10.18h-7.11l.21-2h6.9A10.85,10.85,0,0,1,139.23,278.38Z" transform="translate(-0.35)"/><path class="cls-34" d="M105,267.54a110.42,110.42,0,0,0,12.52-.93l-3.36,33.6c-.5,4.05-3.16,11.18-8.37,13.75-.27.13-.53.26-.79.41Z" transform="translate(-0.35)"/><polygon class="cls-28" points="99.46 262.45 99.46 346.17 99.46 346.17 99.46 349.39 99.46 349.39 99.46 259.29 99.46 259.29 99.46 262.45 99.46 262.45"/><path class="cls-32" d="M99.8,256.13v3.16h0v3.16c-13,0-23.69-1.43-23.69-3.16s10.59-3.16,23.69-3.16Z" transform="translate(-0.35)"/><rect class="cls-35" x="99.46" y="259.29" height="3.17"/><path class="cls-33" d="M123.57,259.29a.61.61,0,0,1-.24.45h0c-1.66,1.53-11.6,2.7-23.53,2.7v-6.32C112.89,256.13,123.57,257.55,123.57,259.29Z" transform="translate(-0.35)"/><path class="cls-35" d="M84.07,349.39a.7.7,0,0,1,.13-.4Z" transform="translate(-0.35)"/><rect class="cls-35" x="99.46" y="346.17" height="3.22"/><path class="cls-29" d="M99.8,349.39v3.22h0c-8.71,0-15.73-1.44-15.73-3.22l.13-.4v0a18.47,18.47,0,0,1,13.1-12.13l.25-.06-.34-9.44a9.73,9.73,0,0,0-5.74-8.77c-7.12-3.5-10.53-12.21-11.22-17.85l-4.15-41.43c0,1.73,10.68,3.15,23.69,3.16v86.94Z" transform="translate(-0.35)"/><path class="cls-28" d="M99.8,349.39v3.22h0c8.72,0,15.74-1.44,15.74-3.22l-.13-.4v0a18.46,18.46,0,0,0-13.11-12.13l-.24-.06.33-9.44a9.75,9.75,0,0,1,5.74-8.77c7.12-3.5,10.53-12.21,11.23-17.85l4.14-41.43c0,1.73-10.67,3.15-23.69,3.16v86.94Z" transform="translate(-0.35)"/><path class="cls-36" d="M105,267.54a107.61,107.61,0,0,0,12.63-.92l-3.36,33.59c-.5,4.05-3.15,11.18-8.37,13.75-.31.15-.61.3-.9.47Z" transform="translate(-0.35)"/><path class="cls-37" d="M94.65,314.43c-.29-.17-.59-.32-.89-.47-5.22-2.57-7.88-9.7-8.39-13.87L82,266.62a108,108,0,0,0,12.63.92Z" transform="translate(-0.35)"/><path class="cls-12" d="M182.3,416.56h-4v-2.73h11.15v2.73h-3.94V428.2H182.3Z" transform="translate(-0.35)"/><path class="cls-12" d="M199.49,428.2,196.73,423H195v5.18h-3.26V413.83h5.18c3,0,5.55,1.05,5.55,4.47a4.25,4.25,0,0,1-2.56,4.15l3.24,5.75ZM195,420.44h1.65c1.7,0,2.62-.73,2.62-2.14s-.92-1.9-2.62-1.9H195Z" transform="translate(-0.35)"/><path class="cls-12" d="M211.81,424.78H207.4l-.88,3.42h-3.31l4.52-14.37h3.88l4.52,14.37h-3.44Zm-.66-2.53-.36-1.33c-.39-1.43-.77-3.13-1.16-4.62h-.09c-.33,1.52-.73,3.19-1.13,4.62l-.35,1.33Z" transform="translate(-0.35)"/><path class="cls-12" d="M217.63,413.83h3.26V428.2h-3.26Z" transform="translate(-0.35)"/><path class="cls-12" d="M224.24,413.83h3.33l3.75,7.14,1.43,3.17h.09c-.16-1.52-.42-3.55-.42-5.24v-5.07h3.08V428.2h-3.33L228.43,421,227,417.9h-.09c.15,1.59.42,3.51.42,5.21v5.09h-3.11Z" transform="translate(-0.35)"/><path class="cls-12" d="M238.88,413.83h3.26V428.2h-3.26Z" transform="translate(-0.35)"/><path class="cls-12" d="M245.49,413.83h3.33l3.75,7.14,1.43,3.17h.09c-.16-1.52-.42-3.55-.42-5.24v-5.07h3.08V428.2h-3.33L249.68,421l-1.41-3.13h-.09c.15,1.59.42,3.51.42,5.21v5.09h-3.11Z" transform="translate(-0.35)"/><path class="cls-12" d="M266.52,413.56a6.24,6.24,0,0,1,4.47,1.87l-1.78,2a3.54,3.54,0,0,0-2.65-1.08c-2.2,0-3.79,1.74-3.79,4.63s1.34,4.67,4.06,4.67a2.51,2.51,0,0,0,1.52-.44v-2.47H266v-2.64h5.26v6.61a7.61,7.61,0,0,1-4.82,1.74c-3.88,0-7-2.53-7-7.36S262.62,413.56,266.52,413.56Z" transform="translate(-0.35)"/></g></g></svg>