<svg id="Layer_3_copy" data-name="Layer 3 copy" xmlns="http://www.w3.org/2000/svg" viewBox="0 0 356.87 437.65"><defs><style>.cls-1{fill:#e3813a;}.cls-2{fill:#e7e6e1;}.cls-3{fill:#6d493d;}.cls-4{fill:#963b06;}</style></defs><title>PicCorgi3</title><path class="cls-1" d="M103.23,434.45c-4.38-5.52-29.68-40.24,2.92-68.14a1.62,1.62,0,0,0,.54-1.56c-.51-2.32-1.35-8.31,3.12-9.8a1.69,1.69,0,0,0,.74-.46c1-1.09,3.52-4.43-.32-5.28-4.23-.94-9-.15-9.25-5.19a1.59,1.59,0,0,0-1.4-1.48c-2-.29-5.63-1.74-5.71-8.43a1.61,1.61,0,0,0-1.12-1.52c-3-.94-10.66-4.69-7.7-18a1.62,1.62,0,0,0-1.75-2c-2.29.26-5.21-.5-4.08-6.64A1.61,1.61,0,0,0,78,304.08c-3.57-.86-10.65-5.5,7.54-30.24a1.62,1.62,0,0,1,.32-.32c.92-.75,5.45-5.32,5.45-23.52,0-18.59,10.3-36.44,12-39.29a1.7,1.7,0,0,1,.58-.55c1.21-.73,4.77-4.29-4.42-18.73C88.79,174.57,95.94,101,95.94,101s1-21.44,10.72-24.51,18.89-4.59,41.87,16.85c22.61,21.1,37.3,38.74,49.44,73.82.32.92,3.3-3.44,4.18-3.86,9.9-4.79,45.2-30.64,101.38,2.41a1.63,1.63,0,0,0,2.42-.84c5-15,38.13-109.72,79.92-116.45l.2,0C387.93,47.83,417,40,413.55,123c0,0-2,37.41-11.4,60.95-.21.53-7.31,12.43-7,12.88,0,0,35.34,47.36,15.83,62.51-2.18,1.69,20.18,7.39,14.3,22.23a3,3,0,0,0,.65,3.22c10.19,10.58,1,9.82-5.25,9.57-1.07,0,4.86,3.27,5.11,4.31,1,4.32-7.89,1.65-4.6,4.59,3.52,3.13-3.62,9-6.36,11a1.62,1.62,0,0,0-.54,1.9l1.33,3.32a1.73,1.73,0,0,1,.11.6V323a1.62,1.62,0,0,1-2.12,1.55h0a1.62,1.62,0,0,0-2.09,1.86l.41,2.08a1.59,1.59,0,0,1,0,.72l-3.4,13.06a1.72,1.72,0,0,0,0,.64c.19,1.39.59,7.09-5.67,8.88-7.14,2-.52,10.88-19.36,18.2l-.09,0c-.77.37-10.47,5.22,3.28,9.43a1.59,1.59,0,0,1,.62.35,19.63,19.63,0,0,1,5.34,8.24c1.47,4.91,6.73,12.2,7.12,12.75l.05.07c.42.65,5.51,8.77,3.55,12.2s-5.62,12.26-19.91,18.39S269.55,474.32,263.94,482c0,0-4.6,8.17-15.83,0-10.94-8-132.14-47.43-143.57-46.91A1.58,1.58,0,0,1,103.23,434.45Z" transform="translate(-73.64 -47.96)"/><path class="cls-2" d="M240.19,160.53S219.51,220,227.94,250c0,0-65.11,41.17-55.15,85,0,0-34.47-32.13-53.62-15.21s-8.94,29.42-8.94,29.42v5.62s-1,20.05,25,24.7,52.08,2.57,60.51,10.89a100.89,100.89,0,0,1,14.55,19.1l3.06,6.08,11.49,5.57a51.28,51.28,0,0,1,15.32,14s9.54,40.94-10.55,38.62h0L248.11,482l8.08,3.57,7.75-3.57,13.56-7.78,6.77-3.07s-9.53-23.17,0-41.65c0,0,8.77-7.78,10.3-3.94s2.3-19.14,8.43-12.24c0,0,3.06-15,10-12.5,0,0,19.15-19.95,56.68-26.32l22.11-8.81,6.79-9.21s-13.58-63-71.8-21.46c0,0-9.19-71.85-57.44-89.07,0,0,6.89-59.36-6.13-85.4C263.17,160.53,254,150.57,240.19,160.53Z" transform="translate(-73.64 -47.96)"/><path class="cls-3" d="M235.3,284.39c5.55-2.52,15-5.07,24.55.58a10.9,10.9,0,0,1,4.89,6.55c1.67,6.14,1.88,17.29-15.23,23.5-1.6.58,0,1-1.6.58-5.29-1.33-19.75-6.32-18.62-21.91A10.94,10.94,0,0,1,235.3,284.39Z" transform="translate(-73.64 -47.96)"/><path class="cls-4" d="M308.89,392.42s40.85-22.82,63.32-23.85c0,0,15.1.47,5.76,4.19s-53.59,22.38-65.67,23.4S302.47,395.84,308.89,392.42Z" transform="translate(-73.64 -47.96)"/><path class="cls-3" d="M206.49,335s-3.83-4.34,4.34-6.38S266,322.15,281,324.19s20.76,1.36,21.1,7.49c0,0-44.4,8-69.78,3.32C232.28,335,212.36,332.19,206.49,335Z" transform="translate(-73.64 -47.96)"/><path class="cls-2" d="M183,181.69l-.14-5.17,4,1.08,4.64-1.32h0c1.47,0,1.46-2.72.73-4-3.32-5.88-2.38-25.34-14.25-39.13-13.86-16.1-39.62-58.26-68.47-46.66,0,0-7.33,2.72-7.41,38.15,0,0-7.42,37.54,10.22,77.25,0,0,20.31-14.81,32.66-11.57s-14.29-15.13-14.29-15.13,22,4.16,24.31,11.26-5.56-8.2-2.5-13.06.3,10.74,8.38,13.7S175.85,177.7,183,181.69Z" transform="translate(-73.64 -47.96)"/><path class="cls-2" d="M331.81,173v-4.58a1.4,1.4,0,0,0-1.92-1.29l-4.45,1.78a1.39,1.39,0,0,1-1.91-1.29h0a1.26,1.26,0,0,0-1.26-1.26h0a1.25,1.25,0,0,1-1.25-1.3c.24-6,2-31.28,14.14-48.74,13.9-19.91,27.69-60.77,58.33-63.32,0,0,13.26-1.53,14.29,43.81,0,.07,0,.13,0,.2.36,1.94,2.46,35-12.43,84.37-.21.7-17-2.56-26.9,1.32-8.58,3.36,2.46-8.82,9-15.62a1.39,1.39,0,0,0-1.51-2.26c-6.36,2.52-15.88,7.24-17.22,13.29-2,9.19,5.1-10.73,2-16.85s0,13.78-7.66,17.87S331.81,177.11,331.81,173Z" transform="translate(-73.64 -47.96)"/><path class="cls-3" d="M192.67,229c0,8.37-9.89,15.15-16.22,15.15s-8.17-6.78-8.17-15.15,6.58-15.15,12.92-15.15S192.67,220.68,192.67,229Z" transform="translate(-73.64 -47.96)"/><path class="cls-3" d="M326.57,232.28c0,9-8.07,16.34-15,16.34s-11.58-7-11.58-16,5.6-18.73,12.5-18.73S326.57,223.25,326.57,232.28Z" transform="translate(-73.64 -47.96)"/><path class="cls-1" d="M205.39,380.47c20,4.28,58,9.32,98.55-1.54a2.75,2.75,0,0,1,2,5.09c-22.05,12-61.8,25.93-102.52,1.53A2.76,2.76,0,0,1,205.39,380.47Z" transform="translate(-73.64 -47.96)"/><path class="cls-4" d="M233.63,414.14l16.91,21.39a5.49,5.49,0,0,0,8.38.28l11.72-12.94c5.92-6.54,31.42-30.55,5.55-15.75-2.25,1.29-18.86,7.45-21.63,7.45-5.28,0-10.89-7.54-15.53-9.22C217.47,397.57,230.46,410.12,233.63,414.14Z" transform="translate(-73.64 -47.96)"/><path class="cls-4" d="M115.34,361s15.75,20,55.66,22c10.12.5,19.45,1.21,23.89,2.56,5.28,1.6,9.71,9.66,4.3,8.59-12.83-2.54-46.26-9.72-52.6-6C137.81,393.13,105.13,375.77,115.34,361Z" transform="translate(-73.64 -47.96)"/></svg>