<svg id="Layer_1" data-name="Layer 1" xmlns="http://www.w3.org/2000/svg" viewBox="0 0 45.74 42.37"><defs><style>.cls-1{fill:#e7e6e1;}</style></defs><title>logo4848_2</title><path class="cls-1" d="M17.82,20.19a.66.66,0,0,0-.43.38,1.81,1.81,0,0,0-.17.71,1.56,1.56,0,0,0,.73-.42.61.61,0,0,0,.17-.49.31.31,0,0,0-.11-.16A.24.24,0,0,0,17.82,20.19Z" transform="translate(-1.31 -2.53)"/><path class="cls-1" d="M44.72,25.19a24.45,24.45,0,0,0-4.85-5.62h0l-1.63-1.22a.28.28,0,0,1,.16-.5,2.8,2.8,0,0,0,.94-.17.27.27,0,0,0,.1-.06c1-1,0-2-.52-2.36a.28.28,0,0,1-.07-.36c.71-1.1-.3-1.84-.85-2.11a1.7,1.7,0,0,0-.68-.17.26.26,0,0,1-.25-.36,15.63,15.63,0,0,0,.47-3.07.36.36,0,0,0,0-.1c-.1-.3-.61-1.84-1.08-3.66-.52-2-.81-2.55-1.34-2.84s-1.66.74-1.73.8h0L29.44,7.31a.1.1,0,0,0,0,.05l-1,1.72a.28.28,0,0,1-.36.11L27.67,9a9.77,9.77,0,0,0-7.87-.35h0l-1.55.77a.27.27,0,0,1-.4-.23,3.67,3.67,0,0,0-.35-1.34l0,0c-.09-.13-.74-1-.69-1.32a10.33,10.33,0,0,0-.69-2.15,2,2,0,0,0-1.74-1.21c-.85,0-2.58,1.55-2.86,1.81a.24.24,0,0,0-.06.09A45.19,45.19,0,0,0,9.76,9.34a.06.06,0,0,1,0,0L9.21,13a.28.28,0,0,1-.22.23,2.17,2.17,0,0,0-1,.5c-.6.52-.73.75-.44,1.16l.24.34a.27.27,0,0,1,0,.33,1.65,1.65,0,0,0-.21,2.34,1.05,1.05,0,0,0,.65.43.27.27,0,0,1,.1.48,23.11,23.11,0,0,0-3.81,4.13l0,0A14.71,14.71,0,0,0,1.7,28.78a12.51,12.51,0,0,0,.46,7.6A18.77,18.77,0,0,0,5.7,41.77C8.25,44.55,13,44.84,15,44.9a8.34,8.34,0,0,0,3.35-.61.22.22,0,0,1,.14,0,12.4,12.4,0,0,0,2.19.16,3.79,3.79,0,0,0,1.9-1,.35.35,0,0,1,.16-.08l.37,0a2.64,2.64,0,0,0,2-1.51.27.27,0,0,1,.42-.09l.88.73a1.54,1.54,0,0,0,1.38.42.28.28,0,0,1,.29.09,7.6,7.6,0,0,0,3,1.58c3,1.1,7.24-.35,8.81-1s6.55-4.52,7.07-8.17A17.11,17.11,0,0,0,44.72,25.19ZM32,38.27c-.78-1.35-.67-2.87.24-3.39s2.28.14,3,1.48.67,2.86-.24,3.39S32.81,39.61,32,38.27Zm.57,3.43a.67.67,0,1,1-.67-.67A.67.67,0,0,1,32.61,41.7Zm.08-20.1a1,1,0,0,1,.47-.53,1.4,1.4,0,0,1,.73-.12,2.71,2.71,0,0,1,.83.2,1.54,1.54,0,0,1,.67.44.53.53,0,0,1,.13.53.48.48,0,0,1-.31.31.67.67,0,0,1-.42,0,.78.78,0,0,1-.32-.25.76.76,0,0,1-.13-.4.69.69,0,0,0-.36,0,.94.94,0,0,0-.31.22,3.14,3.14,0,0,1,1.06.82.83.83,0,0,1,.09.81.87.87,0,0,1-.34.43,1.19,1.19,0,0,1-.51.17,2.41,2.41,0,0,1-1-.15c-.85-.31-1.2-.66-1.06-1a.91.91,0,0,1,.46-.47,1.05,1.05,0,0,0,.26.45,1.18,1.18,0,0,0,.45.31.48.48,0,0,0,.64-.18,2.59,2.59,0,0,1-1-.76A.94.94,0,0,1,32.69,21.6Zm-2.53.85a9.89,9.89,0,0,1,.59-1.37c.26-.54.43-.9.52-1.07a.3.3,0,0,0,0-.21l0-.11a.29.29,0,0,1,.21-.36,1.91,1.91,0,0,1,.82,0,.44.44,0,0,1,.27.17.51.51,0,0,1,0,.35,11.59,11.59,0,0,1-.61,1.28,9.29,9.29,0,0,0-.67,1.49,1.72,1.72,0,0,0-.07.46.27.27,0,0,1-.2.29,1.11,1.11,0,0,1-.48,0,.53.53,0,0,1-.37-.32A1,1,0,0,1,30.16,22.45ZM19.81,19.72a.59.59,0,0,1,.38-.18,1.22,1.22,0,0,0-.12-.42.27.27,0,0,1,.09-.32,1.56,1.56,0,0,1,.27-.2,1,1,0,0,1,.45-.14.48.48,0,0,1,.34.05.35.35,0,0,1,.12.27,3.11,3.11,0,0,1,0,.58,4.28,4.28,0,0,0,.43-.14,1.05,1.05,0,0,1,.06.29.51.51,0,0,1-.1.35.49.49,0,0,1-.38.19h-.08a6.24,6.24,0,0,0-.05,1.38,1.3,1.3,0,0,0,.11.47.3.3,0,0,1-.08.36.79.79,0,0,1-.41.15.57.57,0,0,1-.5-.15,1.13,1.13,0,0,1-.21-.62,11.7,11.7,0,0,1,.05-1.38,2.37,2.37,0,0,0-.4.15,1.14,1.14,0,0,1-.07-.28A.49.49,0,0,1,19.81,19.72Zm-3.38.62a2.13,2.13,0,0,1,1.32-.87,1.13,1.13,0,0,1,.79.05.8.8,0,0,1,.39.53,1,1,0,0,1-.29.93,2.69,2.69,0,0,1-1.38.67,1,1,0,0,0,.28.49.41.41,0,0,0,.38.12.5.5,0,0,0,.32-.22.44.44,0,0,0,.07-.26.27.27,0,0,1,.24-.27c.34,0,.54,0,.58.23a.77.77,0,0,1-.24.68,1.57,1.57,0,0,1-.9.49,1.49,1.49,0,0,1-1.19-.12,1.38,1.38,0,0,1-.62-.92A1.85,1.85,0,0,1,16.43,20.34Zm2.87,15c.81.81.5,2.45-.7,3.65s-2.84,1.52-3.66.7-.49-2.45.71-3.65S18.49,34.5,19.3,35.32Zm1.43,5.61a.6.6,0,1,1-.6-.6A.6.6,0,0,1,20.73,40.93Zm-.28-2.64a.6.6,0,0,1,.6-.6.6.6,0,1,1,0,1.2A.6.6,0,0,1,20.45,38.29Zm-1.72,3.47a.6.6,0,1,1-1.2,0,.6.6,0,1,1,1.2,0Zm-6.08-21.4a.94.94,0,0,1,.3-.07.63.63,0,0,1,.26,0,1.92,1.92,0,0,1,.63-.42,1,1,0,0,1,.87,0,1.33,1.33,0,0,1,.59.7,1.63,1.63,0,0,1,0,1.17,1.54,1.54,0,0,1-.39.56,1.9,1.9,0,0,1-.61.4,2.45,2.45,0,0,1-.6.16c0,.13.06.22.08.29a1.78,1.78,0,0,0,.3.52.29.29,0,0,1,0,.36,1.1,1.1,0,0,1-.38.27.59.59,0,0,1-.54,0,1,1,0,0,1-.37-.51,19.08,19.08,0,0,1-.52-2.17.38.38,0,0,0-.09-.15l-.23-.2a.28.28,0,0,1,0-.39A1.79,1.79,0,0,1,12.65,20.36ZM21.44,43l-.06,0c-5.05,3.29-12-7.26-12-7.26s8.18,10.43,12,6.69c0,0,.05,0,.07-.06,4.82-5.14-5.54-10.52-5.54-10.52h.64C17.18,31.91,27.45,38.27,21.44,43ZM25.51,20.6a1.55,1.55,0,0,1-.57.36,2.28,2.28,0,0,1-.73.12,2,2,0,0,1-.61-.1,2.51,2.51,0,0,0,0,.3,1.79,1.79,0,0,0,.06.6.28.28,0,0,1-.14.33.93.93,0,0,1-.46.09.56.56,0,0,1-.49-.22,1,1,0,0,1-.13-.61,19.44,19.44,0,0,1,.38-2.2.25.25,0,0,0,0-.17l-.12-.28a.29.29,0,0,1,.13-.37,1.83,1.83,0,0,1,.88-.23.89.89,0,0,1,.3.06.68.68,0,0,1,.23.12,2.1,2.1,0,0,1,.74-.13,1,1,0,0,1,.79.38,1.34,1.34,0,0,1,.26.87A1.6,1.6,0,0,1,25.51,20.6Zm1.47,2a.88.88,0,0,1-.65-.47,1.46,1.46,0,0,1-.11-1,2.06,2.06,0,0,1,.85-1.38,2,2,0,0,1,1.57-.35,2.2,2.2,0,0,1,.41.12,2.26,2.26,0,0,1,0,.27,1,1,0,0,1,.57-.08c.26.05.36.21.31.49a5.33,5.33,0,0,1-.32.88,6.93,6.93,0,0,0-.37,1.09,1.07,1.07,0,0,0,0,.36.26.26,0,0,1-.17.3.83.83,0,0,1-.41,0,.57.57,0,0,1-.43-.27,1,1,0,0,1,0-.63l-.05,0a1.4,1.4,0,0,1-.51.54A1,1,0,0,1,27,22.58ZM40,34.83a.19.19,0,0,1,0,.08c-.25.75-3.76,10.91-9.73,8.4-3.17-1.25-4.62-5.49,1.43-10.61.28-.29,2.29-1.66,2.29-1.66-3.43,2.78-4.95,5.07-5.55,6.79a4,4,0,0,0,3.07,5.29c5.07.71,8.51-8.89,8.51-8.89ZM30,40a.6.6,0,0,1,.72.44.61.61,0,0,1-.44.73.6.6,0,0,1-.71-.45A.59.59,0,0,1,30,40Zm-.92-.78a.6.6,0,0,1,.4-1.14.59.59,0,0,1,.36.76A.6.6,0,0,1,29.12,39.2Z" transform="translate(-1.31 -2.53)"/><path class="cls-1" d="M13.58,22.38l.15-.05a.85.85,0,0,0,.48-.45.8.8,0,0,0,0-.66.62.62,0,0,0-.29-.34.46.46,0,0,0-.43,0,.8.8,0,0,0-.22.14C13.41,21.48,13.51,21.94,13.58,22.38Z" transform="translate(-1.31 -2.53)"/><path class="cls-1" d="M17.82,20.2a.66.66,0,0,0-.43.38,1.9,1.9,0,0,0-.17.71,1.48,1.48,0,0,0,.73-.42.59.59,0,0,0,.17-.48.27.27,0,0,0-.11-.16A.21.21,0,0,0,17.82,20.2Z" transform="translate(-1.31 -2.53)"/><path class="cls-1" d="M23.73,20.45l.15,0a.86.86,0,0,0,.62-.23.82.82,0,0,0,.29-.6.66.66,0,0,0-.13-.42.51.51,0,0,0-.4-.19.75.75,0,0,0-.24,0C23.93,19.56,23.83,20,23.73,20.45Z" transform="translate(-1.31 -2.53)"/><path class="cls-1" d="M27.27,21.14a.7.7,0,0,0,0,.42.37.37,0,0,0,.29.2.66.66,0,0,0,.42-.08,1.23,1.23,0,0,0,.4-.36,10.35,10.35,0,0,1,.43-1.24,1.32,1.32,0,0,0-1,.22A1.29,1.29,0,0,0,27.27,21.14Z" transform="translate(-1.31 -2.53)"/></svg>